<mxfile host="app.diagrams.net" modified="2022-09-29T10:39:12.527Z" agent="5.0 (Macintosh; Intel Mac OS X 10_15_7) AppleWebKit/537.36 (KHTML, like Gecko) Chrome/105.0.0.0 Safari/537.36" etag="tqlGRujSWJlsM4m8Y6AH" version="20.3.7" type="github" pages="2">
  <diagram id="W21dhTbmkytk5lZT4MXD" name="หน้า-1">
    <mxGraphModel dx="1580" dy="2080" grid="1" gridSize="10" guides="1" tooltips="1" connect="1" arrows="1" fold="1" page="1" pageScale="1" pageWidth="827" pageHeight="1169" math="0" shadow="0">
      <root>
        <mxCell id="0" />
        <mxCell id="1" parent="0" />
        <mxCell id="pc5gfeJwSec_l9Dx47gQ-340" value="ใช่" style="text;html=1;align=center;verticalAlign=middle;resizable=0;points=[];autosize=1;strokeColor=none;fillColor=none;" parent="1" vertex="1">
          <mxGeometry x="370" y="1705" width="40" height="30" as="geometry" />
        </mxCell>
        <mxCell id="wM5cR2NXaFkqZFmCrkMM-1" value="" style="group" parent="1" vertex="1" connectable="0">
          <mxGeometry x="49" y="19.998217656857292" width="730" height="1854.7917823431426" as="geometry" />
        </mxCell>
        <mxCell id="pc5gfeJwSec_l9Dx47gQ-3" style="edgeStyle=orthogonalEdgeStyle;rounded=0;orthogonalLoop=1;jettySize=auto;html=1;endArrow=classic;endFill=1;" parent="wM5cR2NXaFkqZFmCrkMM-1" source="pc5gfeJwSec_l9Dx47gQ-4" edge="1">
          <mxGeometry relative="1" as="geometry">
            <mxPoint x="411.25" y="1277.3348139922264" as="targetPoint" />
          </mxGeometry>
        </mxCell>
        <mxCell id="pc5gfeJwSec_l9Dx47gQ-4" value="ซ้ำซ้อน" style="rhombus;whiteSpace=wrap;html=1;rounded=1;" parent="wM5cR2NXaFkqZFmCrkMM-1" vertex="1">
          <mxGeometry x="371.25" y="1127.1960022209887" width="80" height="92.3931149361466" as="geometry" />
        </mxCell>
        <mxCell id="pc5gfeJwSec_l9Dx47gQ-5" value="ใช่" style="text;html=1;align=center;verticalAlign=middle;resizable=0;points=[];autosize=1;strokeColor=none;fillColor=none;" parent="wM5cR2NXaFkqZFmCrkMM-1" vertex="1">
          <mxGeometry x="440" y="1127.1960022209887" width="40" height="30" as="geometry" />
        </mxCell>
        <mxCell id="pc5gfeJwSec_l9Dx47gQ-6" value="ไม่" style="text;html=1;align=center;verticalAlign=middle;resizable=0;points=[];autosize=1;strokeColor=none;fillColor=none;" parent="wM5cR2NXaFkqZFmCrkMM-1" vertex="1">
          <mxGeometry x="364" y="1219.5891171571352" width="40" height="30" as="geometry" />
        </mxCell>
        <mxCell id="pc5gfeJwSec_l9Dx47gQ-7" style="edgeStyle=orthogonalEdgeStyle;rounded=0;orthogonalLoop=1;jettySize=auto;html=1;endArrow=none;endFill=0;" parent="wM5cR2NXaFkqZFmCrkMM-1" source="pc5gfeJwSec_l9Dx47gQ-80" edge="1">
          <mxGeometry relative="1" as="geometry">
            <mxPoint x="730" y="757.6235424764021" as="targetPoint" />
          </mxGeometry>
        </mxCell>
        <mxCell id="pc5gfeJwSec_l9Dx47gQ-8" style="edgeStyle=orthogonalEdgeStyle;rounded=0;orthogonalLoop=1;jettySize=auto;html=1;endArrow=none;endFill=0;" parent="wM5cR2NXaFkqZFmCrkMM-1" source="pc5gfeJwSec_l9Dx47gQ-78" edge="1">
          <mxGeometry relative="1" as="geometry">
            <mxPoint x="730" y="831.5380344253193" as="targetPoint" />
          </mxGeometry>
        </mxCell>
        <mxCell id="pc5gfeJwSec_l9Dx47gQ-11" value="เพิ่มข้อมูลผู้ถือหุ้น โดยนำข้อมูลใน table Request Temp ที่ตรงกับ verifyToken เพิ่มลงใน Table Request&amp;nbsp;" style="rounded=1;whiteSpace=wrap;html=1;" parent="wM5cR2NXaFkqZFmCrkMM-1" vertex="1">
          <mxGeometry x="336.75" y="1277.3348139922264" width="149" height="69.29483620210993" as="geometry" />
        </mxCell>
        <mxCell id="pc5gfeJwSec_l9Dx47gQ-13" value="บันทึกข้อมูล" style="whiteSpace=wrap;html=1;rounded=1;" parent="wM5cR2NXaFkqZFmCrkMM-1" vertex="1">
          <mxGeometry x="346" y="1624.7989950027763" width="120" height="69.29483620210993" as="geometry" />
        </mxCell>
        <mxCell id="pc5gfeJwSec_l9Dx47gQ-16" value="สำเร็จ" style="rhombus;whiteSpace=wrap;html=1;rounded=1;" parent="wM5cR2NXaFkqZFmCrkMM-1" vertex="1">
          <mxGeometry x="371.25" y="1719.6668517490284" width="80" height="92.3931149361466" as="geometry" />
        </mxCell>
        <mxCell id="pc5gfeJwSec_l9Dx47gQ-12" value="" style="edgeStyle=orthogonalEdgeStyle;rounded=0;orthogonalLoop=1;jettySize=auto;html=1;endArrow=classic;endFill=1;" parent="wM5cR2NXaFkqZFmCrkMM-1" source="pc5gfeJwSec_l9Dx47gQ-13" target="pc5gfeJwSec_l9Dx47gQ-16" edge="1">
          <mxGeometry relative="1" as="geometry" />
        </mxCell>
        <mxCell id="pc5gfeJwSec_l9Dx47gQ-24" value="ค้นหาข้อมูลใน Table Request Temp ที่ verifyToken ตรงกัน" style="rounded=1;whiteSpace=wrap;html=1;" parent="wM5cR2NXaFkqZFmCrkMM-1" vertex="1">
          <mxGeometry x="130" y="121.26596335369243" width="120" height="69.29483620210993" as="geometry" />
        </mxCell>
        <mxCell id="pc5gfeJwSec_l9Dx47gQ-28" value="มีข้อมูล" style="rhombus;whiteSpace=wrap;html=1;rounded=1;" parent="wM5cR2NXaFkqZFmCrkMM-1" vertex="1">
          <mxGeometry x="150" y="236.75735702387567" width="80" height="92.3931149361466" as="geometry" />
        </mxCell>
        <mxCell id="pc5gfeJwSec_l9Dx47gQ-29" value="" style="edgeStyle=orthogonalEdgeStyle;rounded=0;orthogonalLoop=1;jettySize=auto;html=1;" parent="wM5cR2NXaFkqZFmCrkMM-1" source="pc5gfeJwSec_l9Dx47gQ-24" target="pc5gfeJwSec_l9Dx47gQ-28" edge="1">
          <mxGeometry relative="1" as="geometry" />
        </mxCell>
        <mxCell id="pc5gfeJwSec_l9Dx47gQ-30" style="edgeStyle=orthogonalEdgeStyle;rounded=0;orthogonalLoop=1;jettySize=auto;html=1;endArrow=classic;endFill=1;entryX=0;entryY=0.5;entryDx=0;entryDy=0;" parent="wM5cR2NXaFkqZFmCrkMM-1" source="pc5gfeJwSec_l9Dx47gQ-31" target="pc5gfeJwSec_l9Dx47gQ-60" edge="1">
          <mxGeometry relative="1" as="geometry">
            <mxPoint x="530" y="150.0017823431427" as="targetPoint" />
            <Array as="points">
              <mxPoint x="531" y="283" />
              <mxPoint x="531" y="93" />
            </Array>
          </mxGeometry>
        </mxCell>
        <mxCell id="pc5gfeJwSec_l9Dx47gQ-31" value="ส่ง Error Code 3&amp;nbsp;&amp;nbsp;&lt;br&gt;รหัสยืนยันตัวตนไม่ถูกต้อง" style="whiteSpace=wrap;html=1;rounded=1;" parent="wM5cR2NXaFkqZFmCrkMM-1" vertex="1">
          <mxGeometry x="320" y="262.7429205996669" width="160" height="40.42198778456413" as="geometry" />
        </mxCell>
        <mxCell id="pc5gfeJwSec_l9Dx47gQ-32" value="" style="edgeStyle=orthogonalEdgeStyle;rounded=0;orthogonalLoop=1;jettySize=auto;html=1;" parent="wM5cR2NXaFkqZFmCrkMM-1" source="pc5gfeJwSec_l9Dx47gQ-28" target="pc5gfeJwSec_l9Dx47gQ-31" edge="1">
          <mxGeometry relative="1" as="geometry" />
        </mxCell>
        <mxCell id="pc5gfeJwSec_l9Dx47gQ-33" value="ตรวจสอบไฟลแนบ" style="whiteSpace=wrap;html=1;rounded=1;" parent="wM5cR2NXaFkqZFmCrkMM-1" vertex="1">
          <mxGeometry x="130" y="375.34702942809554" width="120" height="69.29483620210993" as="geometry" />
        </mxCell>
        <mxCell id="pc5gfeJwSec_l9Dx47gQ-34" value="" style="edgeStyle=orthogonalEdgeStyle;rounded=0;orthogonalLoop=1;jettySize=auto;html=1;" parent="wM5cR2NXaFkqZFmCrkMM-1" source="pc5gfeJwSec_l9Dx47gQ-28" target="pc5gfeJwSec_l9Dx47gQ-33" edge="1">
          <mxGeometry relative="1" as="geometry" />
        </mxCell>
        <mxCell id="pc5gfeJwSec_l9Dx47gQ-35" value="ใช่" style="text;html=1;align=center;verticalAlign=middle;resizable=0;points=[];autosize=1;strokeColor=none;fillColor=none;" parent="wM5cR2NXaFkqZFmCrkMM-1" vertex="1">
          <mxGeometry x="150" y="323.3759022765131" width="40" height="30" as="geometry" />
        </mxCell>
        <mxCell id="pc5gfeJwSec_l9Dx47gQ-36" value="ไม่ใช่" style="text;html=1;align=center;verticalAlign=middle;resizable=0;points=[];autosize=1;strokeColor=none;fillColor=none;" parent="wM5cR2NXaFkqZFmCrkMM-1" vertex="1">
          <mxGeometry x="215" y="242.5319267073848" width="50" height="30" as="geometry" />
        </mxCell>
        <mxCell id="pc5gfeJwSec_l9Dx47gQ-37" style="edgeStyle=orthogonalEdgeStyle;rounded=0;orthogonalLoop=1;jettySize=auto;html=1;entryX=0;entryY=0.5;entryDx=0;entryDy=0;" parent="wM5cR2NXaFkqZFmCrkMM-1" source="pc5gfeJwSec_l9Dx47gQ-38" edge="1">
          <mxGeometry relative="1" as="geometry">
            <mxPoint x="320" y="537.034980566352" as="targetPoint" />
          </mxGeometry>
        </mxCell>
        <mxCell id="pc5gfeJwSec_l9Dx47gQ-38" value="มีข้อมูล" style="rhombus;whiteSpace=wrap;html=1;rounded=1;" parent="wM5cR2NXaFkqZFmCrkMM-1" vertex="1">
          <mxGeometry x="150" y="490.8384230982788" width="80" height="92.3931149361466" as="geometry" />
        </mxCell>
        <mxCell id="pc5gfeJwSec_l9Dx47gQ-39" value="" style="edgeStyle=orthogonalEdgeStyle;rounded=0;orthogonalLoop=1;jettySize=auto;html=1;" parent="wM5cR2NXaFkqZFmCrkMM-1" source="pc5gfeJwSec_l9Dx47gQ-33" target="pc5gfeJwSec_l9Dx47gQ-38" edge="1">
          <mxGeometry relative="1" as="geometry" />
        </mxCell>
        <mxCell id="pc5gfeJwSec_l9Dx47gQ-40" value="ไม่ใช่" style="text;html=1;align=center;verticalAlign=middle;resizable=0;points=[];autosize=1;strokeColor=none;fillColor=none;" parent="wM5cR2NXaFkqZFmCrkMM-1" vertex="1">
          <mxGeometry x="215" y="490.8384230982788" width="50" height="30" as="geometry" />
        </mxCell>
        <mxCell id="pc5gfeJwSec_l9Dx47gQ-41" value="ใช่" style="text;html=1;align=center;verticalAlign=middle;resizable=0;points=[];autosize=1;strokeColor=none;fillColor=none;" parent="wM5cR2NXaFkqZFmCrkMM-1" vertex="1">
          <mxGeometry x="140" y="565.9078289838978" width="40" height="30" as="geometry" />
        </mxCell>
        <mxCell id="pc5gfeJwSec_l9Dx47gQ-42" value="อัปโหลดไฟลแนบ" style="whiteSpace=wrap;html=1;rounded=1;" parent="wM5cR2NXaFkqZFmCrkMM-1" vertex="1">
          <mxGeometry x="130" y="629.4280955024986" width="120" height="69.29483620210993" as="geometry" />
        </mxCell>
        <mxCell id="pc5gfeJwSec_l9Dx47gQ-43" value="" style="edgeStyle=orthogonalEdgeStyle;rounded=0;orthogonalLoop=1;jettySize=auto;html=1;" parent="wM5cR2NXaFkqZFmCrkMM-1" source="pc5gfeJwSec_l9Dx47gQ-38" target="pc5gfeJwSec_l9Dx47gQ-42" edge="1">
          <mxGeometry relative="1" as="geometry" />
        </mxCell>
        <mxCell id="pc5gfeJwSec_l9Dx47gQ-44" value="สำเร็จ" style="rhombus;whiteSpace=wrap;html=1;rounded=1;" parent="wM5cR2NXaFkqZFmCrkMM-1" vertex="1">
          <mxGeometry x="150" y="744.9194891726819" width="80" height="92.3931149361466" as="geometry" />
        </mxCell>
        <mxCell id="pc5gfeJwSec_l9Dx47gQ-45" value="" style="edgeStyle=orthogonalEdgeStyle;rounded=0;orthogonalLoop=1;jettySize=auto;html=1;" parent="wM5cR2NXaFkqZFmCrkMM-1" source="pc5gfeJwSec_l9Dx47gQ-42" target="pc5gfeJwSec_l9Dx47gQ-44" edge="1">
          <mxGeometry relative="1" as="geometry" />
        </mxCell>
        <mxCell id="pc5gfeJwSec_l9Dx47gQ-46" value="ตรวจสอบว่ามีไฟลอีกหรือไม่" style="whiteSpace=wrap;html=1;rounded=1;" parent="wM5cR2NXaFkqZFmCrkMM-1" vertex="1">
          <mxGeometry x="130" y="871.9600222098835" width="120" height="69.29483620210993" as="geometry" />
        </mxCell>
        <mxCell id="pc5gfeJwSec_l9Dx47gQ-47" value="" style="edgeStyle=orthogonalEdgeStyle;rounded=0;orthogonalLoop=1;jettySize=auto;html=1;" parent="wM5cR2NXaFkqZFmCrkMM-1" source="pc5gfeJwSec_l9Dx47gQ-44" target="pc5gfeJwSec_l9Dx47gQ-46" edge="1">
          <mxGeometry relative="1" as="geometry" />
        </mxCell>
        <mxCell id="pc5gfeJwSec_l9Dx47gQ-48" style="edgeStyle=orthogonalEdgeStyle;rounded=0;orthogonalLoop=1;jettySize=auto;html=1;endArrow=classic;endFill=1;entryX=1;entryY=0.5;entryDx=0;entryDy=0;" parent="wM5cR2NXaFkqZFmCrkMM-1" source="pc5gfeJwSec_l9Dx47gQ-49" target="pc5gfeJwSec_l9Dx47gQ-42" edge="1">
          <mxGeometry relative="1" as="geometry">
            <mxPoint x="275" y="538.1898945030539" as="targetPoint" />
            <Array as="points">
              <mxPoint x="260" y="1022.0988339811216" />
              <mxPoint x="260" y="664.0755136035538" />
            </Array>
          </mxGeometry>
        </mxCell>
        <mxCell id="pc5gfeJwSec_l9Dx47gQ-49" value="มีช้อมูล" style="rhombus;whiteSpace=wrap;html=1;rounded=1;" parent="wM5cR2NXaFkqZFmCrkMM-1" vertex="1">
          <mxGeometry x="150" y="975.9022765130484" width="80" height="92.3931149361466" as="geometry" />
        </mxCell>
        <mxCell id="pc5gfeJwSec_l9Dx47gQ-50" value="" style="edgeStyle=orthogonalEdgeStyle;rounded=0;orthogonalLoop=1;jettySize=auto;html=1;" parent="wM5cR2NXaFkqZFmCrkMM-1" source="pc5gfeJwSec_l9Dx47gQ-46" target="pc5gfeJwSec_l9Dx47gQ-49" edge="1">
          <mxGeometry relative="1" as="geometry" />
        </mxCell>
        <mxCell id="pc5gfeJwSec_l9Dx47gQ-51" value="ไม่ใช่" style="text;html=1;align=center;verticalAlign=middle;resizable=0;points=[];autosize=1;strokeColor=none;fillColor=none;" parent="wM5cR2NXaFkqZFmCrkMM-1" vertex="1">
          <mxGeometry x="190" y="1056.7462520821769" width="50" height="30" as="geometry" />
        </mxCell>
        <mxCell id="pc5gfeJwSec_l9Dx47gQ-52" value="ตรวจสอบเวลาการเปิดรับเอกสาร&amp;nbsp;" style="rounded=1;whiteSpace=wrap;html=1;" parent="wM5cR2NXaFkqZFmCrkMM-1" vertex="1">
          <mxGeometry x="320" y="502.38756246529715" width="120" height="69.29483620210993" as="geometry" />
        </mxCell>
        <mxCell id="pc5gfeJwSec_l9Dx47gQ-54" value="เปิดรับเอกสาร" style="rhombus;whiteSpace=wrap;html=1;rounded=1;" parent="wM5cR2NXaFkqZFmCrkMM-1" vertex="1">
          <mxGeometry x="480" y="490.8384230982788" width="80" height="92.3931149361466" as="geometry" />
        </mxCell>
        <mxCell id="pc5gfeJwSec_l9Dx47gQ-55" value="" style="edgeStyle=orthogonalEdgeStyle;rounded=0;orthogonalLoop=1;jettySize=auto;html=1;" parent="wM5cR2NXaFkqZFmCrkMM-1" source="pc5gfeJwSec_l9Dx47gQ-52" target="pc5gfeJwSec_l9Dx47gQ-54" edge="1">
          <mxGeometry relative="1" as="geometry" />
        </mxCell>
        <mxCell id="pc5gfeJwSec_l9Dx47gQ-56" style="edgeStyle=orthogonalEdgeStyle;rounded=0;orthogonalLoop=1;jettySize=auto;html=1;endArrow=none;endFill=0;" parent="wM5cR2NXaFkqZFmCrkMM-1" source="pc5gfeJwSec_l9Dx47gQ-57" edge="1">
          <mxGeometry relative="1" as="geometry">
            <mxPoint x="730" y="1023.2537479178233" as="targetPoint" />
            <Array as="points">
              <mxPoint x="60" y="1854.7917823431426" />
              <mxPoint x="730" y="1854.7917823431426" />
            </Array>
          </mxGeometry>
        </mxCell>
        <mxCell id="pc5gfeJwSec_l9Dx47gQ-57" value="ส่ง Error Code 1&amp;nbsp;&amp;nbsp;&lt;br&gt;ไม่สามารถอัพโหลดเอกสารแนบได้" style="rounded=1;whiteSpace=wrap;html=1;" parent="wM5cR2NXaFkqZFmCrkMM-1" vertex="1">
          <mxGeometry y="756.4686285397003" width="120" height="69.29483620210993" as="geometry" />
        </mxCell>
        <mxCell id="pc5gfeJwSec_l9Dx47gQ-58" style="edgeStyle=orthogonalEdgeStyle;rounded=0;orthogonalLoop=1;jettySize=auto;html=1;" parent="wM5cR2NXaFkqZFmCrkMM-1" source="pc5gfeJwSec_l9Dx47gQ-44" target="pc5gfeJwSec_l9Dx47gQ-57" edge="1">
          <mxGeometry relative="1" as="geometry">
            <mxPoint x="280" y="791.1160466407553" as="targetPoint" />
          </mxGeometry>
        </mxCell>
        <mxCell id="pc5gfeJwSec_l9Dx47gQ-59" value="ใช่" style="text;html=1;align=center;verticalAlign=middle;resizable=0;points=[];autosize=1;strokeColor=none;fillColor=none;" parent="wM5cR2NXaFkqZFmCrkMM-1" vertex="1">
          <mxGeometry x="215" y="975.9022765130484" width="40" height="30" as="geometry" />
        </mxCell>
        <mxCell id="pc5gfeJwSec_l9Dx47gQ-60" value="" style="ellipse;whiteSpace=wrap;html=1;aspect=fixed;" parent="wM5cR2NXaFkqZFmCrkMM-1" vertex="1">
          <mxGeometry x="552" y="80" width="25" height="25" as="geometry" />
        </mxCell>
        <mxCell id="pc5gfeJwSec_l9Dx47gQ-62" style="edgeStyle=orthogonalEdgeStyle;rounded=0;orthogonalLoop=1;jettySize=auto;html=1;entryX=0.5;entryY=1;entryDx=0;entryDy=0;endArrow=classic;endFill=1;" parent="wM5cR2NXaFkqZFmCrkMM-1" source="pc5gfeJwSec_l9Dx47gQ-63" target="pc5gfeJwSec_l9Dx47gQ-60" edge="1">
          <mxGeometry relative="1" as="geometry">
            <Array as="points">
              <mxPoint x="520" y="319" />
              <mxPoint x="580" y="319" />
              <mxPoint x="580" y="140" />
              <mxPoint x="565" y="140" />
            </Array>
          </mxGeometry>
        </mxCell>
        <mxCell id="pc5gfeJwSec_l9Dx47gQ-63" value="ส่ง Error Code&amp;nbsp; 4&amp;nbsp;&lt;br&gt;การยื่นเอกสารคำร้อง&lt;br&gt;ยังไม่เปิด/ปิดอยู่" style="whiteSpace=wrap;html=1;rounded=1;" parent="wM5cR2NXaFkqZFmCrkMM-1" vertex="1">
          <mxGeometry x="440" y="358.023320377568" width="160" height="57.74569683509162" as="geometry" />
        </mxCell>
        <mxCell id="pc5gfeJwSec_l9Dx47gQ-64" style="edgeStyle=orthogonalEdgeStyle;rounded=0;orthogonalLoop=1;jettySize=auto;html=1;entryX=0.5;entryY=1;entryDx=0;entryDy=0;" parent="wM5cR2NXaFkqZFmCrkMM-1" source="pc5gfeJwSec_l9Dx47gQ-54" target="pc5gfeJwSec_l9Dx47gQ-63" edge="1">
          <mxGeometry relative="1" as="geometry">
            <mxPoint x="520" y="444.64186563020553" as="targetPoint" />
          </mxGeometry>
        </mxCell>
        <mxCell id="pc5gfeJwSec_l9Dx47gQ-65" value="ไม่ใช่" style="text;html=1;align=center;verticalAlign=middle;resizable=0;points=[];autosize=1;strokeColor=none;fillColor=none;" parent="wM5cR2NXaFkqZFmCrkMM-1" vertex="1">
          <mxGeometry x="520" y="456.1910049972238" width="50" height="30" as="geometry" />
        </mxCell>
        <mxCell id="pc5gfeJwSec_l9Dx47gQ-66" value="ใช่" style="text;html=1;align=center;verticalAlign=middle;resizable=0;points=[];autosize=1;strokeColor=none;fillColor=none;" parent="wM5cR2NXaFkqZFmCrkMM-1" vertex="1">
          <mxGeometry x="530" y="565.9078289838978" width="40" height="30" as="geometry" />
        </mxCell>
        <mxCell id="pc5gfeJwSec_l9Dx47gQ-67" value="สิ้นสุด" style="ellipse;whiteSpace=wrap;html=1;" parent="wM5cR2NXaFkqZFmCrkMM-1" vertex="1">
          <mxGeometry x="651" y="71.53" width="59" height="41.94" as="geometry" />
        </mxCell>
        <mxCell id="pc5gfeJwSec_l9Dx47gQ-68" value="" style="edgeStyle=orthogonalEdgeStyle;rounded=0;orthogonalLoop=1;jettySize=auto;html=1;endArrow=classic;endFill=1;" parent="wM5cR2NXaFkqZFmCrkMM-1" source="pc5gfeJwSec_l9Dx47gQ-60" target="pc5gfeJwSec_l9Dx47gQ-67" edge="1">
          <mxGeometry relative="1" as="geometry" />
        </mxCell>
        <mxCell id="pc5gfeJwSec_l9Dx47gQ-69" value="ใช่" style="text;html=1;align=center;verticalAlign=middle;resizable=0;points=[];autosize=1;strokeColor=none;fillColor=none;" parent="wM5cR2NXaFkqZFmCrkMM-1" vertex="1">
          <mxGeometry x="190" y="819.988895058301" width="40" height="30" as="geometry" />
        </mxCell>
        <mxCell id="pc5gfeJwSec_l9Dx47gQ-70" value="ไม่ใช่" style="text;html=1;align=center;verticalAlign=middle;resizable=0;points=[];autosize=1;strokeColor=none;fillColor=none;" parent="wM5cR2NXaFkqZFmCrkMM-1" vertex="1">
          <mxGeometry x="115" y="750.6940588561911" width="50" height="30" as="geometry" />
        </mxCell>
        <mxCell id="pc5gfeJwSec_l9Dx47gQ-71" value="ตรวจสอบข้อมูล&lt;br&gt;ตรวจสอบความเป็นผู้ถือหุ้น โดยตรวจสอบจาก Table Shareholder&amp;nbsp;" style="whiteSpace=wrap;html=1;rounded=1;" parent="wM5cR2NXaFkqZFmCrkMM-1" vertex="1">
          <mxGeometry x="320" y="646.7518045530261" width="195" height="98.16768461965576" as="geometry" />
        </mxCell>
        <mxCell id="pc5gfeJwSec_l9Dx47gQ-53" style="edgeStyle=orthogonalEdgeStyle;rounded=0;orthogonalLoop=1;jettySize=auto;html=1;entryX=0.5;entryY=0;entryDx=0;entryDy=0;" parent="wM5cR2NXaFkqZFmCrkMM-1" source="pc5gfeJwSec_l9Dx47gQ-54" target="pc5gfeJwSec_l9Dx47gQ-71" edge="1">
          <mxGeometry relative="1" as="geometry">
            <mxPoint x="410" y="642.1321488062188" as="targetPoint" />
          </mxGeometry>
        </mxCell>
        <mxCell id="pc5gfeJwSec_l9Dx47gQ-73" value="เป็นผู้ถือหุ้น" style="rhombus;whiteSpace=wrap;html=1;rounded=1;" parent="wM5cR2NXaFkqZFmCrkMM-1" vertex="1">
          <mxGeometry x="377.5" y="785.3414769572461" width="80" height="92.3931149361466" as="geometry" />
        </mxCell>
        <mxCell id="pc5gfeJwSec_l9Dx47gQ-74" value="" style="edgeStyle=orthogonalEdgeStyle;rounded=0;orthogonalLoop=1;jettySize=auto;html=1;" parent="wM5cR2NXaFkqZFmCrkMM-1" source="pc5gfeJwSec_l9Dx47gQ-71" target="pc5gfeJwSec_l9Dx47gQ-73" edge="1">
          <mxGeometry relative="1" as="geometry" />
        </mxCell>
        <mxCell id="pc5gfeJwSec_l9Dx47gQ-75" value="ใช่" style="text;html=1;align=center;verticalAlign=middle;resizable=0;points=[];autosize=1;strokeColor=none;fillColor=none;" parent="wM5cR2NXaFkqZFmCrkMM-1" vertex="1">
          <mxGeometry x="364" y="877.7345918933926" width="40" height="30" as="geometry" />
        </mxCell>
        <mxCell id="pc5gfeJwSec_l9Dx47gQ-76" value="ไม่ใช่" style="text;html=1;align=center;verticalAlign=middle;resizable=0;points=[];autosize=1;strokeColor=none;fillColor=none;" parent="wM5cR2NXaFkqZFmCrkMM-1" vertex="1">
          <mxGeometry x="457.5" y="791.1160466407553" width="50" height="30" as="geometry" />
        </mxCell>
        <mxCell id="pc5gfeJwSec_l9Dx47gQ-77" value="ตรวจสอบข้อมูล&lt;br&gt;ตรวจสอบความซ้ำซ้อนของเอกสาร ว่าเคยมีการยื่นมาหรือไม่ โดยมีเงื่อนไขคือ เลขทะเบียนผู้ถือหุ้น เเละ เบอรโทร และ อีเมล์ ต้องไม่ซ้ำใน Table Request&amp;nbsp;" style="whiteSpace=wrap;html=1;rounded=1;" parent="wM5cR2NXaFkqZFmCrkMM-1" vertex="1">
          <mxGeometry x="298.75" y="935.4802887284842" width="237.5" height="115.49139367018324" as="geometry" />
        </mxCell>
        <mxCell id="pc5gfeJwSec_l9Dx47gQ-1" value="" style="edgeStyle=orthogonalEdgeStyle;rounded=0;orthogonalLoop=1;jettySize=auto;html=1;exitX=0.5;exitY=1;exitDx=0;exitDy=0;" parent="wM5cR2NXaFkqZFmCrkMM-1" source="pc5gfeJwSec_l9Dx47gQ-77" target="pc5gfeJwSec_l9Dx47gQ-4" edge="1">
          <mxGeometry relative="1" as="geometry">
            <mxPoint x="411" y="1104.097723486952" as="sourcePoint" />
            <Array as="points">
              <mxPoint x="411" y="1050.9716823986678" />
            </Array>
          </mxGeometry>
        </mxCell>
        <mxCell id="pc5gfeJwSec_l9Dx47gQ-78" value="ส่ง Error Code 6 ไม่พบข้อมูลผู้ถือหุ้นนี้ในระบบ" style="whiteSpace=wrap;html=1;rounded=1;" parent="wM5cR2NXaFkqZFmCrkMM-1" vertex="1">
          <mxGeometry x="570" y="796.8906163242644" width="120" height="69.29483620210993" as="geometry" />
        </mxCell>
        <mxCell id="pc5gfeJwSec_l9Dx47gQ-79" style="edgeStyle=orthogonalEdgeStyle;rounded=0;orthogonalLoop=1;jettySize=auto;html=1;entryX=0;entryY=0.5;entryDx=0;entryDy=0;exitX=1;exitY=0.5;exitDx=0;exitDy=0;" parent="wM5cR2NXaFkqZFmCrkMM-1" source="pc5gfeJwSec_l9Dx47gQ-73" target="pc5gfeJwSec_l9Dx47gQ-78" edge="1">
          <mxGeometry relative="1" as="geometry">
            <Array as="points">
              <mxPoint x="520" y="831.5380344253193" />
              <mxPoint x="520" y="831.5380344253193" />
            </Array>
          </mxGeometry>
        </mxCell>
        <mxCell id="pc5gfeJwSec_l9Dx47gQ-80" value="ส่ง Error Code 5 มีการใช้งานผู้ถือหุ้นนี้ในระบบ" style="whiteSpace=wrap;html=1;rounded=1;" parent="wM5cR2NXaFkqZFmCrkMM-1" vertex="1">
          <mxGeometry x="570" y="896.2132148806221" width="120" height="69.29483620210993" as="geometry" />
        </mxCell>
        <mxCell id="pc5gfeJwSec_l9Dx47gQ-81" style="edgeStyle=orthogonalEdgeStyle;rounded=0;orthogonalLoop=1;jettySize=auto;html=1;endArrow=classic;endFill=1;entryX=1;entryY=1;entryDx=0;entryDy=0;" parent="wM5cR2NXaFkqZFmCrkMM-1" target="pc5gfeJwSec_l9Dx47gQ-60" edge="1">
          <mxGeometry relative="1" as="geometry">
            <mxPoint x="710" y="191.71571349250416" as="targetPoint" />
            <mxPoint x="730" y="757.6235424764021" as="sourcePoint" />
            <Array as="points">
              <mxPoint x="640" y="758" />
              <mxPoint x="640" y="140" />
              <mxPoint x="612" y="140" />
              <mxPoint x="612" y="110" />
              <mxPoint x="573" y="110" />
            </Array>
          </mxGeometry>
        </mxCell>
        <mxCell id="pc5gfeJwSec_l9Dx47gQ-82" style="edgeStyle=orthogonalEdgeStyle;rounded=0;orthogonalLoop=1;jettySize=auto;html=1;endArrow=none;endFill=0;" parent="wM5cR2NXaFkqZFmCrkMM-1" source="pc5gfeJwSec_l9Dx47gQ-83" edge="1">
          <mxGeometry relative="1" as="geometry">
            <mxPoint x="730" y="919.3114936146586" as="targetPoint" />
          </mxGeometry>
        </mxCell>
        <mxCell id="pc5gfeJwSec_l9Dx47gQ-83" value="ส่ง Error Code&amp;nbsp; 2&amp;nbsp;&lt;br&gt;ไม่สามารถบันทึกข้อมูลได้" style="rounded=1;whiteSpace=wrap;html=1;" parent="wM5cR2NXaFkqZFmCrkMM-1" vertex="1">
          <mxGeometry x="570" y="999.0005552470851" width="120" height="70.44975013881177" as="geometry" />
        </mxCell>
        <mxCell id="pc5gfeJwSec_l9Dx47gQ-84" value="ไม่ใช่" style="text;html=1;align=center;verticalAlign=middle;resizable=0;points=[];autosize=1;strokeColor=none;fillColor=none;" parent="wM5cR2NXaFkqZFmCrkMM-1" vertex="1">
          <mxGeometry x="440" y="1731.215991116047" width="50" height="30" as="geometry" />
        </mxCell>
        <mxCell id="pc5gfeJwSec_l9Dx47gQ-85" value="ใช่" style="text;html=1;align=center;verticalAlign=middle;resizable=0;points=[];autosize=1;strokeColor=none;fillColor=none;" parent="wM5cR2NXaFkqZFmCrkMM-1" vertex="1">
          <mxGeometry x="431.25" y="1777.41254858412" width="40" height="30" as="geometry" />
        </mxCell>
        <mxCell id="pc5gfeJwSec_l9Dx47gQ-87" value="เพิ่มข้อมูลกรรมการผู้รับมอบฉันทะในข้อมูล Request" style="whiteSpace=wrap;html=1;rounded=1;" parent="wM5cR2NXaFkqZFmCrkMM-1" vertex="1">
          <mxGeometry x="351.25" y="1381.277068295392" width="120" height="69.29483620210993" as="geometry" />
        </mxCell>
        <mxCell id="pc5gfeJwSec_l9Dx47gQ-72" value="" style="edgeStyle=orthogonalEdgeStyle;rounded=0;orthogonalLoop=1;jettySize=auto;html=1;endArrow=classic;endFill=1;" parent="wM5cR2NXaFkqZFmCrkMM-1" source="pc5gfeJwSec_l9Dx47gQ-73" target="pc5gfeJwSec_l9Dx47gQ-77" edge="1">
          <mxGeometry relative="1" as="geometry" />
        </mxCell>
        <mxCell id="pc5gfeJwSec_l9Dx47gQ-2" value="" style="edgeStyle=orthogonalEdgeStyle;rounded=0;orthogonalLoop=1;jettySize=auto;html=1;entryX=0;entryY=0.5;entryDx=0;entryDy=0;" parent="wM5cR2NXaFkqZFmCrkMM-1" source="pc5gfeJwSec_l9Dx47gQ-4" target="pc5gfeJwSec_l9Dx47gQ-80" edge="1">
          <mxGeometry relative="1" as="geometry">
            <Array as="points">
              <mxPoint x="560" y="1173.3925596890617" />
              <mxPoint x="560" y="930.8606329816768" />
            </Array>
          </mxGeometry>
        </mxCell>
        <mxCell id="pc5gfeJwSec_l9Dx47gQ-92" value="เพิ่มข้อมูลโหวตใน Table RequestProxyVote" style="whiteSpace=wrap;html=1;rounded=1;" parent="wM5cR2NXaFkqZFmCrkMM-1" vertex="1">
          <mxGeometry x="191.25" y="1471.924247221672" width="120" height="69.29483620210993" as="geometry" />
        </mxCell>
        <mxCell id="pc5gfeJwSec_l9Dx47gQ-95" style="edgeStyle=orthogonalEdgeStyle;rounded=0;orthogonalLoop=1;jettySize=auto;html=1;endArrow=none;endFill=0;" parent="wM5cR2NXaFkqZFmCrkMM-1" source="pc5gfeJwSec_l9Dx47gQ-96" edge="1">
          <mxGeometry relative="1" as="geometry">
            <mxPoint x="730" y="1820.1443642420882" as="targetPoint" />
          </mxGeometry>
        </mxCell>
        <mxCell id="pc5gfeJwSec_l9Dx47gQ-96" value="ส่งกลับข้อมูลผู้ถือหุ้นและข้อมูลวาระที่มีการลงคะแนนเสียง" style="rounded=1;whiteSpace=wrap;html=1;" parent="wM5cR2NXaFkqZFmCrkMM-1" vertex="1">
          <mxGeometry x="507.5" y="1797.0460855080514" width="140" height="46.1965574680733" as="geometry" />
        </mxCell>
        <mxCell id="pc5gfeJwSec_l9Dx47gQ-14" style="edgeStyle=orthogonalEdgeStyle;rounded=0;orthogonalLoop=1;jettySize=auto;html=1;entryX=0.5;entryY=1;entryDx=0;entryDy=0;endArrow=classic;endFill=1;" parent="wM5cR2NXaFkqZFmCrkMM-1" source="pc5gfeJwSec_l9Dx47gQ-16" target="pc5gfeJwSec_l9Dx47gQ-83" edge="1">
          <mxGeometry relative="1" as="geometry" />
        </mxCell>
        <mxCell id="pc5gfeJwSec_l9Dx47gQ-10" value="" style="edgeStyle=orthogonalEdgeStyle;rounded=0;orthogonalLoop=1;jettySize=auto;html=1;endArrow=classic;endFill=1;" parent="wM5cR2NXaFkqZFmCrkMM-1" source="pc5gfeJwSec_l9Dx47gQ-11" target="pc5gfeJwSec_l9Dx47gQ-87" edge="1">
          <mxGeometry relative="1" as="geometry" />
        </mxCell>
        <mxCell id="pc5gfeJwSec_l9Dx47gQ-15" style="edgeStyle=orthogonalEdgeStyle;rounded=0;orthogonalLoop=1;jettySize=auto;html=1;entryX=0;entryY=0.5;entryDx=0;entryDy=0;endArrow=classic;endFill=1;" parent="wM5cR2NXaFkqZFmCrkMM-1" source="pc5gfeJwSec_l9Dx47gQ-16" target="pc5gfeJwSec_l9Dx47gQ-96" edge="1">
          <mxGeometry relative="1" as="geometry">
            <Array as="points">
              <mxPoint x="411" y="1820.1443642420882" />
            </Array>
          </mxGeometry>
        </mxCell>
        <mxCell id="pc5gfeJwSec_l9Dx47gQ-98" value="อัปโหลดไฟล์ลายเซนต์" style="whiteSpace=wrap;html=1;rounded=1;" parent="wM5cR2NXaFkqZFmCrkMM-1" vertex="1">
          <mxGeometry x="130" y="1127.1960022209887" width="120" height="69.29483620210993" as="geometry" />
        </mxCell>
        <mxCell id="pc5gfeJwSec_l9Dx47gQ-99" value="" style="edgeStyle=orthogonalEdgeStyle;rounded=0;orthogonalLoop=1;jettySize=auto;html=1;" parent="wM5cR2NXaFkqZFmCrkMM-1" source="pc5gfeJwSec_l9Dx47gQ-49" target="pc5gfeJwSec_l9Dx47gQ-98" edge="1">
          <mxGeometry relative="1" as="geometry" />
        </mxCell>
        <mxCell id="pc5gfeJwSec_l9Dx47gQ-103" value="สำเร็จ" style="rhombus;whiteSpace=wrap;html=1;rounded=1;" parent="wM5cR2NXaFkqZFmCrkMM-1" vertex="1">
          <mxGeometry x="150" y="1229.9833425874517" width="80" height="92.3931149361466" as="geometry" />
        </mxCell>
        <mxCell id="pc5gfeJwSec_l9Dx47gQ-104" value="" style="edgeStyle=orthogonalEdgeStyle;rounded=0;orthogonalLoop=1;jettySize=auto;html=1;" parent="wM5cR2NXaFkqZFmCrkMM-1" source="pc5gfeJwSec_l9Dx47gQ-98" target="pc5gfeJwSec_l9Dx47gQ-103" edge="1">
          <mxGeometry relative="1" as="geometry" />
        </mxCell>
        <mxCell id="pc5gfeJwSec_l9Dx47gQ-106" value="ใช่" style="text;html=1;align=center;verticalAlign=middle;resizable=0;points=[];autosize=1;strokeColor=none;fillColor=none;" parent="wM5cR2NXaFkqZFmCrkMM-1" vertex="1">
          <mxGeometry x="225" y="1242.6873958911715" width="40" height="30" as="geometry" />
        </mxCell>
        <mxCell id="pc5gfeJwSec_l9Dx47gQ-105" value="ไม่ใช่" style="text;html=1;align=center;verticalAlign=middle;resizable=0;points=[];autosize=1;strokeColor=none;fillColor=none;" parent="wM5cR2NXaFkqZFmCrkMM-1" vertex="1">
          <mxGeometry x="135" y="1322.3764575235978" width="50" height="30" as="geometry" />
        </mxCell>
        <mxCell id="pc5gfeJwSec_l9Dx47gQ-107" style="edgeStyle=orthogonalEdgeStyle;rounded=0;orthogonalLoop=1;jettySize=auto;html=1;entryX=0;entryY=0.5;entryDx=0;entryDy=0;" parent="wM5cR2NXaFkqZFmCrkMM-1" source="pc5gfeJwSec_l9Dx47gQ-103" target="pc5gfeJwSec_l9Dx47gQ-71" edge="1">
          <mxGeometry relative="1" as="geometry">
            <mxPoint x="292" y="1068.295391449195" as="targetPoint" />
            <Array as="points">
              <mxPoint x="282" y="1276.1799000555247" />
              <mxPoint x="282" y="696.413103831205" />
            </Array>
          </mxGeometry>
        </mxCell>
        <mxCell id="pc5gfeJwSec_l9Dx47gQ-322" style="edgeStyle=orthogonalEdgeStyle;rounded=0;orthogonalLoop=1;jettySize=auto;html=1;endArrow=none;endFill=0;" parent="wM5cR2NXaFkqZFmCrkMM-1" source="pc5gfeJwSec_l9Dx47gQ-318" edge="1">
          <mxGeometry relative="1" as="geometry">
            <mxPoint x="132" y="1853.636868406441" as="targetPoint" />
            <Array as="points">
              <mxPoint x="131" y="1765.863409217102" />
            </Array>
          </mxGeometry>
        </mxCell>
        <mxCell id="pc5gfeJwSec_l9Dx47gQ-318" value="ส่ง Error code 8 ไม่สามารถอัพโหลดไฟล์ลายเซนได้" style="whiteSpace=wrap;html=1;rounded=1;" parent="wM5cR2NXaFkqZFmCrkMM-1" vertex="1">
          <mxGeometry x="71.25" y="1391.671293725708" width="120" height="69.29483620210993" as="geometry" />
        </mxCell>
        <mxCell id="pc5gfeJwSec_l9Dx47gQ-319" value="" style="edgeStyle=orthogonalEdgeStyle;rounded=0;orthogonalLoop=1;jettySize=auto;html=1;" parent="wM5cR2NXaFkqZFmCrkMM-1" source="pc5gfeJwSec_l9Dx47gQ-103" target="pc5gfeJwSec_l9Dx47gQ-318" edge="1">
          <mxGeometry relative="1" as="geometry">
            <Array as="points">
              <mxPoint x="190" y="1357.023875624653" />
              <mxPoint x="130" y="1357.023875624653" />
            </Array>
          </mxGeometry>
        </mxCell>
        <mxCell id="pc5gfeJwSec_l9Dx47gQ-329" value="ตรวจประเภทเอกสาร โดยเช็คจากข้อมูลการโหวต (agendaVote)" style="whiteSpace=wrap;html=1;rounded=1;" parent="wM5cR2NXaFkqZFmCrkMM-1" vertex="1">
          <mxGeometry x="490" y="1502.0867095332299" width="120" height="62.71356783919599" as="geometry" />
        </mxCell>
        <mxCell id="pc5gfeJwSec_l9Dx47gQ-330" value="" style="edgeStyle=orthogonalEdgeStyle;rounded=0;orthogonalLoop=1;jettySize=auto;html=1;endArrow=none;endFill=0;" parent="wM5cR2NXaFkqZFmCrkMM-1" source="pc5gfeJwSec_l9Dx47gQ-87" target="pc5gfeJwSec_l9Dx47gQ-329" edge="1">
          <mxGeometry relative="1" as="geometry" />
        </mxCell>
        <mxCell id="pc5gfeJwSec_l9Dx47gQ-335" style="edgeStyle=orthogonalEdgeStyle;rounded=0;orthogonalLoop=1;jettySize=auto;html=1;entryX=0.5;entryY=0;entryDx=0;entryDy=0;endArrow=classic;endFill=1;" parent="wM5cR2NXaFkqZFmCrkMM-1" source="pc5gfeJwSec_l9Dx47gQ-333" target="pc5gfeJwSec_l9Dx47gQ-13" edge="1">
          <mxGeometry relative="1" as="geometry" />
        </mxCell>
        <mxCell id="pc5gfeJwSec_l9Dx47gQ-337" value="" style="edgeStyle=orthogonalEdgeStyle;rounded=0;orthogonalLoop=1;jettySize=auto;html=1;endArrow=classic;endFill=1;" parent="wM5cR2NXaFkqZFmCrkMM-1" source="pc5gfeJwSec_l9Dx47gQ-333" target="pc5gfeJwSec_l9Dx47gQ-92" edge="1">
          <mxGeometry relative="1" as="geometry" />
        </mxCell>
        <mxCell id="pc5gfeJwSec_l9Dx47gQ-333" value="มีข้อมูลการโหวต" style="rhombus;whiteSpace=wrap;html=1;rounded=1;" parent="wM5cR2NXaFkqZFmCrkMM-1" vertex="1">
          <mxGeometry x="366" y="1464.7642472216721" width="80" height="83.61809045226131" as="geometry" />
        </mxCell>
        <mxCell id="pc5gfeJwSec_l9Dx47gQ-334" value="" style="edgeStyle=orthogonalEdgeStyle;rounded=0;orthogonalLoop=1;jettySize=auto;html=1;endArrow=classic;endFill=1;" parent="wM5cR2NXaFkqZFmCrkMM-1" source="pc5gfeJwSec_l9Dx47gQ-329" target="pc5gfeJwSec_l9Dx47gQ-333" edge="1">
          <mxGeometry relative="1" as="geometry" />
        </mxCell>
        <mxCell id="pc5gfeJwSec_l9Dx47gQ-336" value="ไม่ใช่" style="text;html=1;align=center;verticalAlign=middle;resizable=0;points=[];autosize=1;strokeColor=none;fillColor=none;" parent="wM5cR2NXaFkqZFmCrkMM-1" vertex="1">
          <mxGeometry x="421.25" y="1564.7917823431426" width="50" height="30" as="geometry" />
        </mxCell>
        <mxCell id="pc5gfeJwSec_l9Dx47gQ-343" value="ตรวจสอบว่ามีข้อมูลโหวตอีกหรอไม่" style="whiteSpace=wrap;html=1;rounded=1;" parent="wM5cR2NXaFkqZFmCrkMM-1" vertex="1">
          <mxGeometry x="191.25" y="1564.796501524837" width="120" height="60" as="geometry" />
        </mxCell>
        <mxCell id="pc5gfeJwSec_l9Dx47gQ-344" value="" style="edgeStyle=orthogonalEdgeStyle;rounded=0;orthogonalLoop=1;jettySize=auto;html=1;endArrow=classic;endFill=1;" parent="wM5cR2NXaFkqZFmCrkMM-1" source="pc5gfeJwSec_l9Dx47gQ-92" target="pc5gfeJwSec_l9Dx47gQ-343" edge="1">
          <mxGeometry relative="1" as="geometry" />
        </mxCell>
        <mxCell id="pc5gfeJwSec_l9Dx47gQ-347" style="edgeStyle=orthogonalEdgeStyle;rounded=0;orthogonalLoop=1;jettySize=auto;html=1;entryX=0;entryY=0.5;entryDx=0;entryDy=0;endArrow=classic;endFill=1;" parent="wM5cR2NXaFkqZFmCrkMM-1" source="pc5gfeJwSec_l9Dx47gQ-345" target="pc5gfeJwSec_l9Dx47gQ-13" edge="1">
          <mxGeometry relative="1" as="geometry" />
        </mxCell>
        <mxCell id="pc5gfeJwSec_l9Dx47gQ-350" style="edgeStyle=orthogonalEdgeStyle;rounded=0;orthogonalLoop=1;jettySize=auto;html=1;entryX=0;entryY=0.5;entryDx=0;entryDy=0;endArrow=classic;endFill=1;" parent="wM5cR2NXaFkqZFmCrkMM-1" source="pc5gfeJwSec_l9Dx47gQ-345" target="pc5gfeJwSec_l9Dx47gQ-92" edge="1">
          <mxGeometry relative="1" as="geometry">
            <Array as="points">
              <mxPoint x="171" y="1694.7917823431426" />
              <mxPoint x="171" y="1506.7917823431426" />
            </Array>
          </mxGeometry>
        </mxCell>
        <mxCell id="pc5gfeJwSec_l9Dx47gQ-345" value="มีข้อมูล" style="rhombus;whiteSpace=wrap;html=1;rounded=1;" parent="wM5cR2NXaFkqZFmCrkMM-1" vertex="1">
          <mxGeometry x="211.25" y="1654.796501524837" width="80" height="80" as="geometry" />
        </mxCell>
        <mxCell id="pc5gfeJwSec_l9Dx47gQ-346" value="" style="edgeStyle=orthogonalEdgeStyle;rounded=0;orthogonalLoop=1;jettySize=auto;html=1;endArrow=classic;endFill=1;" parent="wM5cR2NXaFkqZFmCrkMM-1" source="pc5gfeJwSec_l9Dx47gQ-343" target="pc5gfeJwSec_l9Dx47gQ-345" edge="1">
          <mxGeometry relative="1" as="geometry" />
        </mxCell>
        <mxCell id="pc5gfeJwSec_l9Dx47gQ-348" value="ไม่ใช่" style="text;html=1;align=center;verticalAlign=middle;resizable=0;points=[];autosize=1;strokeColor=none;fillColor=none;" parent="wM5cR2NXaFkqZFmCrkMM-1" vertex="1">
          <mxGeometry x="275" y="1664.0917823431428" width="50" height="30" as="geometry" />
        </mxCell>
        <mxCell id="pc5gfeJwSec_l9Dx47gQ-349" value="ใช่" style="text;html=1;align=center;verticalAlign=middle;resizable=0;points=[];autosize=1;strokeColor=none;fillColor=none;" parent="wM5cR2NXaFkqZFmCrkMM-1" vertex="1">
          <mxGeometry x="175" y="1664.0917823431428" width="40" height="30" as="geometry" />
        </mxCell>
        <mxCell id="wM5cR2NXaFkqZFmCrkMM-3" value="" style="edgeStyle=orthogonalEdgeStyle;rounded=0;orthogonalLoop=1;jettySize=auto;html=1;" parent="wM5cR2NXaFkqZFmCrkMM-1" source="pc5gfeJwSec_l9Dx47gQ-17" target="pc5gfeJwSec_l9Dx47gQ-24" edge="1">
          <mxGeometry relative="1" as="geometry" />
        </mxCell>
        <mxCell id="pc5gfeJwSec_l9Dx47gQ-17" value="เริ่มต้น" style="ellipse;whiteSpace=wrap;html=1;" parent="wM5cR2NXaFkqZFmCrkMM-1" vertex="1">
          <mxGeometry x="160" y="33.801782343142705" width="60" height="46.1965574680733" as="geometry" />
        </mxCell>
        <mxCell id="NjEQZNnnTkiGfQqc1ZRg-84" style="edgeStyle=orthogonalEdgeStyle;rounded=0;orthogonalLoop=1;jettySize=auto;html=1;entryX=1;entryY=0.5;entryDx=0;entryDy=0;" edge="1" parent="1">
          <mxGeometry relative="1" as="geometry">
            <mxPoint x="1321" y="5319" as="targetPoint" />
            <mxPoint x="1610" y="2750" as="sourcePoint" />
            <Array as="points">
              <mxPoint x="1610" y="4830" />
              <mxPoint x="1610" y="5120" />
            </Array>
          </mxGeometry>
        </mxCell>
        <mxCell id="NjEQZNnnTkiGfQqc1ZRg-228" value="" style="endArrow=none;html=1;rounded=0;" edge="1" parent="1">
          <mxGeometry width="50" height="50" relative="1" as="geometry">
            <mxPoint x="1610" y="2750" as="sourcePoint" />
            <mxPoint x="1640" y="2560" as="targetPoint" />
            <Array as="points">
              <mxPoint x="1609" y="2560" />
            </Array>
          </mxGeometry>
        </mxCell>
        <mxCell id="NjEQZNnnTkiGfQqc1ZRg-232" style="edgeStyle=orthogonalEdgeStyle;rounded=0;orthogonalLoop=1;jettySize=auto;html=1;endArrow=none;endFill=0;" edge="1" parent="1" source="NjEQZNnnTkiGfQqc1ZRg-233">
          <mxGeometry relative="1" as="geometry">
            <mxPoint x="1640" y="2500" as="targetPoint" />
          </mxGeometry>
        </mxCell>
        <mxCell id="NjEQZNnnTkiGfQqc1ZRg-25" value="นำข้อมูลที่ค้นหาได้จาก &lt;br&gt;Table Request Temp&amp;nbsp;&lt;br&gt;มาตรวจสอบว่าว่าเคยมีการยื่นมาเเล้วหรือยัง" style="whiteSpace=wrap;html=1;rounded=1;" vertex="1" parent="1">
          <mxGeometry x="1173" y="3539" width="174" height="60" as="geometry" />
        </mxCell>
        <mxCell id="NjEQZNnnTkiGfQqc1ZRg-27" value="มี" style="rhombus;whiteSpace=wrap;html=1;rounded=1;" vertex="1" parent="1">
          <mxGeometry x="1220" y="3649" width="80" height="80" as="geometry" />
        </mxCell>
        <mxCell id="NjEQZNnnTkiGfQqc1ZRg-28" value="" style="edgeStyle=orthogonalEdgeStyle;rounded=0;orthogonalLoop=1;jettySize=auto;html=1;" edge="1" parent="1" source="NjEQZNnnTkiGfQqc1ZRg-25" target="NjEQZNnnTkiGfQqc1ZRg-27">
          <mxGeometry relative="1" as="geometry" />
        </mxCell>
        <mxCell id="NjEQZNnnTkiGfQqc1ZRg-29" value="นำเลขทะเบียนผู้ถือหุ้นที่ได้จาก &lt;br&gt;Table Request Temp&lt;br&gt;ตรวจสอบว่าเลขนี้เคยถูกอนุมัติไปหรือยัง&amp;nbsp;" style="whiteSpace=wrap;html=1;rounded=1;" vertex="1" parent="1">
          <mxGeometry x="1155" y="3779" width="210" height="70" as="geometry" />
        </mxCell>
        <mxCell id="NjEQZNnnTkiGfQqc1ZRg-30" value="" style="edgeStyle=orthogonalEdgeStyle;rounded=0;orthogonalLoop=1;jettySize=auto;html=1;" edge="1" parent="1" source="NjEQZNnnTkiGfQqc1ZRg-27" target="NjEQZNnnTkiGfQqc1ZRg-29">
          <mxGeometry relative="1" as="geometry" />
        </mxCell>
        <mxCell id="NjEQZNnnTkiGfQqc1ZRg-31" value="ใช่" style="edgeLabel;html=1;align=center;verticalAlign=middle;resizable=0;points=[];" vertex="1" connectable="0" parent="NjEQZNnnTkiGfQqc1ZRg-30">
          <mxGeometry x="-0.0924" relative="1" as="geometry">
            <mxPoint as="offset" />
          </mxGeometry>
        </mxCell>
        <mxCell id="NjEQZNnnTkiGfQqc1ZRg-32" value="อนุมัติ ?" style="rhombus;whiteSpace=wrap;html=1;rounded=1;" vertex="1" parent="1">
          <mxGeometry x="1220" y="3909" width="80" height="80" as="geometry" />
        </mxCell>
        <mxCell id="NjEQZNnnTkiGfQqc1ZRg-33" value="" style="edgeStyle=orthogonalEdgeStyle;rounded=0;orthogonalLoop=1;jettySize=auto;html=1;" edge="1" parent="1" source="NjEQZNnnTkiGfQqc1ZRg-29" target="NjEQZNnnTkiGfQqc1ZRg-32">
          <mxGeometry relative="1" as="geometry" />
        </mxCell>
        <mxCell id="NjEQZNnnTkiGfQqc1ZRg-34" style="edgeStyle=orthogonalEdgeStyle;rounded=0;orthogonalLoop=1;jettySize=auto;html=1;endArrow=none;endFill=0;" edge="1" parent="1" source="NjEQZNnnTkiGfQqc1ZRg-35">
          <mxGeometry relative="1" as="geometry">
            <mxPoint x="1620" y="3949" as="targetPoint" />
          </mxGeometry>
        </mxCell>
        <mxCell id="NjEQZNnnTkiGfQqc1ZRg-35" value="ส่ง Error Code 4 มีการใช้งานผู้ถือหุ้นนี้ในระบบ" style="whiteSpace=wrap;html=1;rounded=1;" vertex="1" parent="1">
          <mxGeometry x="1410" y="3919" width="120" height="60" as="geometry" />
        </mxCell>
        <mxCell id="NjEQZNnnTkiGfQqc1ZRg-36" value="ใช่" style="edgeStyle=orthogonalEdgeStyle;rounded=0;orthogonalLoop=1;jettySize=auto;html=1;" edge="1" parent="1" source="NjEQZNnnTkiGfQqc1ZRg-32" target="NjEQZNnnTkiGfQqc1ZRg-35">
          <mxGeometry relative="1" as="geometry" />
        </mxCell>
        <mxCell id="NjEQZNnnTkiGfQqc1ZRg-37" value="ตรวจสอบข้อมูล&amp;nbsp;&lt;br&gt;parameter in : proxyRequestRef" style="whiteSpace=wrap;html=1;rounded=1;" vertex="1" parent="1">
          <mxGeometry x="1175" y="4039" width="170" height="70" as="geometry" />
        </mxCell>
        <mxCell id="NjEQZNnnTkiGfQqc1ZRg-38" value="" style="edgeStyle=orthogonalEdgeStyle;rounded=0;orthogonalLoop=1;jettySize=auto;html=1;" edge="1" parent="1" source="NjEQZNnnTkiGfQqc1ZRg-27" target="NjEQZNnnTkiGfQqc1ZRg-37">
          <mxGeometry relative="1" as="geometry">
            <Array as="points">
              <mxPoint x="1100" y="3689" />
              <mxPoint x="1100" y="4079" />
            </Array>
          </mxGeometry>
        </mxCell>
        <mxCell id="NjEQZNnnTkiGfQqc1ZRg-39" value="ไม่ใช่" style="edgeLabel;html=1;align=center;verticalAlign=middle;resizable=0;points=[];" vertex="1" connectable="0" parent="NjEQZNnnTkiGfQqc1ZRg-38">
          <mxGeometry x="-0.025" y="-2" relative="1" as="geometry">
            <mxPoint x="73" y="-178" as="offset" />
          </mxGeometry>
        </mxCell>
        <mxCell id="NjEQZNnnTkiGfQqc1ZRg-40" value="" style="edgeStyle=orthogonalEdgeStyle;rounded=0;orthogonalLoop=1;jettySize=auto;html=1;" edge="1" parent="1" source="NjEQZNnnTkiGfQqc1ZRg-32" target="NjEQZNnnTkiGfQqc1ZRg-37">
          <mxGeometry relative="1" as="geometry" />
        </mxCell>
        <mxCell id="NjEQZNnnTkiGfQqc1ZRg-41" value="ไม่ใช่" style="edgeLabel;html=1;align=center;verticalAlign=middle;resizable=0;points=[];" vertex="1" connectable="0" parent="NjEQZNnnTkiGfQqc1ZRg-40">
          <mxGeometry x="-0.0096" relative="1" as="geometry">
            <mxPoint y="-1" as="offset" />
          </mxGeometry>
        </mxCell>
        <mxCell id="NjEQZNnnTkiGfQqc1ZRg-42" value="มี ?" style="rhombus;whiteSpace=wrap;html=1;rounded=1;" vertex="1" parent="1">
          <mxGeometry x="1220" y="4169" width="80" height="80" as="geometry" />
        </mxCell>
        <mxCell id="NjEQZNnnTkiGfQqc1ZRg-43" value="" style="edgeStyle=orthogonalEdgeStyle;rounded=0;orthogonalLoop=1;jettySize=auto;html=1;" edge="1" parent="1" source="NjEQZNnnTkiGfQqc1ZRg-37" target="NjEQZNnnTkiGfQqc1ZRg-42">
          <mxGeometry relative="1" as="geometry" />
        </mxCell>
        <mxCell id="NjEQZNnnTkiGfQqc1ZRg-44" value="ตรวจสอบข้อมูลการ&lt;br&gt;รับมอบฉันทะที่ได้รับมาจาก &lt;br&gt;paramter in :&lt;br&gt;&lt;span style=&quot;text-align: left;&quot;&gt;1. proxyName&lt;/span&gt;&lt;br style=&quot;text-align: left;&quot;&gt;&lt;span style=&quot;text-align: left;&quot;&gt;2. proxyCitizenID&lt;/span&gt;&lt;br style=&quot;text-align: left;&quot;&gt;&lt;span style=&quot;text-align: left;&quot;&gt;3. proxyEmail&lt;/span&gt;&lt;br style=&quot;text-align: left;&quot;&gt;&lt;span style=&quot;text-align: left;&quot;&gt;4. proxyTel&lt;/span&gt;&amp;nbsp;" style="whiteSpace=wrap;html=1;rounded=1;" vertex="1" parent="1">
          <mxGeometry x="1016" y="4259" width="164" height="130" as="geometry" />
        </mxCell>
        <mxCell id="NjEQZNnnTkiGfQqc1ZRg-45" value="" style="edgeStyle=orthogonalEdgeStyle;rounded=0;orthogonalLoop=1;jettySize=auto;html=1;" edge="1" parent="1" source="NjEQZNnnTkiGfQqc1ZRg-42" target="NjEQZNnnTkiGfQqc1ZRg-44">
          <mxGeometry relative="1" as="geometry" />
        </mxCell>
        <mxCell id="NjEQZNnnTkiGfQqc1ZRg-46" value="ไม่ใช่" style="edgeLabel;html=1;align=center;verticalAlign=middle;resizable=0;points=[];" vertex="1" connectable="0" parent="NjEQZNnnTkiGfQqc1ZRg-45">
          <mxGeometry x="-0.122" y="1" relative="1" as="geometry">
            <mxPoint x="15" y="-1" as="offset" />
          </mxGeometry>
        </mxCell>
        <mxCell id="NjEQZNnnTkiGfQqc1ZRg-47" value="มี ?" style="rhombus;whiteSpace=wrap;html=1;rounded=1;" vertex="1" parent="1">
          <mxGeometry x="1058" y="4449" width="80" height="80" as="geometry" />
        </mxCell>
        <mxCell id="NjEQZNnnTkiGfQqc1ZRg-48" value="" style="edgeStyle=orthogonalEdgeStyle;rounded=0;orthogonalLoop=1;jettySize=auto;html=1;" edge="1" parent="1" source="NjEQZNnnTkiGfQqc1ZRg-44" target="NjEQZNnnTkiGfQqc1ZRg-47">
          <mxGeometry relative="1" as="geometry" />
        </mxCell>
        <mxCell id="NjEQZNnnTkiGfQqc1ZRg-49" value="นำข้อมูลการรับมอบฉันทะมาปรับปรุงข้อมูลการรับมอบฉันทะในข้อมูล Request temp ที่ต้องการสร้าง&amp;nbsp;" style="whiteSpace=wrap;html=1;rounded=1;" vertex="1" parent="1">
          <mxGeometry x="910" y="4529" width="160" height="80" as="geometry" />
        </mxCell>
        <mxCell id="NjEQZNnnTkiGfQqc1ZRg-50" value="" style="edgeStyle=orthogonalEdgeStyle;rounded=0;orthogonalLoop=1;jettySize=auto;html=1;" edge="1" parent="1" source="NjEQZNnnTkiGfQqc1ZRg-47" target="NjEQZNnnTkiGfQqc1ZRg-49">
          <mxGeometry relative="1" as="geometry">
            <Array as="points">
              <mxPoint x="990" y="4489" />
            </Array>
          </mxGeometry>
        </mxCell>
        <mxCell id="NjEQZNnnTkiGfQqc1ZRg-51" value="มี" style="edgeLabel;html=1;align=center;verticalAlign=middle;resizable=0;points=[];" vertex="1" connectable="0" parent="NjEQZNnnTkiGfQqc1ZRg-50">
          <mxGeometry x="-0.4818" relative="1" as="geometry">
            <mxPoint x="-10" as="offset" />
          </mxGeometry>
        </mxCell>
        <mxCell id="NjEQZNnnTkiGfQqc1ZRg-52" value="ค้นหาข้อมูลใน &lt;br&gt;Table RequestTemp ที่ &lt;br&gt;parameter in : proxyRequestRef ตรงกันกับ requestId" style="whiteSpace=wrap;html=1;rounded=1;" vertex="1" parent="1">
          <mxGeometry x="1275" y="4269" width="170" height="80" as="geometry" />
        </mxCell>
        <mxCell id="NjEQZNnnTkiGfQqc1ZRg-53" value="" style="edgeStyle=orthogonalEdgeStyle;rounded=0;orthogonalLoop=1;jettySize=auto;html=1;" edge="1" parent="1" source="NjEQZNnnTkiGfQqc1ZRg-42" target="NjEQZNnnTkiGfQqc1ZRg-52">
          <mxGeometry relative="1" as="geometry">
            <Array as="points">
              <mxPoint x="1360" y="4209" />
            </Array>
          </mxGeometry>
        </mxCell>
        <mxCell id="NjEQZNnnTkiGfQqc1ZRg-54" value="ใช่" style="edgeLabel;html=1;align=center;verticalAlign=middle;resizable=0;points=[];" vertex="1" connectable="0" parent="NjEQZNnnTkiGfQqc1ZRg-53">
          <mxGeometry x="-0.3563" y="-4" relative="1" as="geometry">
            <mxPoint y="-5" as="offset" />
          </mxGeometry>
        </mxCell>
        <mxCell id="NjEQZNnnTkiGfQqc1ZRg-55" value="มี ?" style="rhombus;whiteSpace=wrap;html=1;rounded=1;" vertex="1" parent="1">
          <mxGeometry x="1320" y="4379" width="80" height="80" as="geometry" />
        </mxCell>
        <mxCell id="NjEQZNnnTkiGfQqc1ZRg-56" value="" style="edgeStyle=orthogonalEdgeStyle;rounded=0;orthogonalLoop=1;jettySize=auto;html=1;" edge="1" parent="1" source="NjEQZNnnTkiGfQqc1ZRg-52" target="NjEQZNnnTkiGfQqc1ZRg-55">
          <mxGeometry relative="1" as="geometry" />
        </mxCell>
        <mxCell id="NjEQZNnnTkiGfQqc1ZRg-57" value="นำข้อมูลการรับมอบฉันทะมาปรับปรุงข้อมูลการรับมอบฉันทะในข้อมูล Request temp ที่ต้องการสร้าง&amp;nbsp;" style="whiteSpace=wrap;html=1;rounded=1;" vertex="1" parent="1">
          <mxGeometry x="1309.75" y="4529" width="172.5" height="70" as="geometry" />
        </mxCell>
        <mxCell id="NjEQZNnnTkiGfQqc1ZRg-58" value="" style="edgeStyle=orthogonalEdgeStyle;rounded=0;orthogonalLoop=1;jettySize=auto;html=1;" edge="1" parent="1" source="NjEQZNnnTkiGfQqc1ZRg-55" target="NjEQZNnnTkiGfQqc1ZRg-57">
          <mxGeometry relative="1" as="geometry" />
        </mxCell>
        <mxCell id="NjEQZNnnTkiGfQqc1ZRg-59" style="edgeStyle=orthogonalEdgeStyle;rounded=0;orthogonalLoop=1;jettySize=auto;html=1;endArrow=none;endFill=0;exitX=1;exitY=0.5;exitDx=0;exitDy=0;" edge="1" parent="1" source="NjEQZNnnTkiGfQqc1ZRg-60">
          <mxGeometry relative="1" as="geometry">
            <mxPoint x="1620" y="4419" as="targetPoint" />
            <mxPoint x="1601.25" y="4419" as="sourcePoint" />
          </mxGeometry>
        </mxCell>
        <mxCell id="NjEQZNnnTkiGfQqc1ZRg-60" value="ส่ง Error Code 404&amp;nbsp;" style="whiteSpace=wrap;html=1;rounded=1;" vertex="1" parent="1">
          <mxGeometry x="1470" y="4389" width="120" height="60" as="geometry" />
        </mxCell>
        <mxCell id="NjEQZNnnTkiGfQqc1ZRg-61" value="" style="edgeStyle=orthogonalEdgeStyle;rounded=0;orthogonalLoop=1;jettySize=auto;html=1;" edge="1" parent="1" source="NjEQZNnnTkiGfQqc1ZRg-55" target="NjEQZNnnTkiGfQqc1ZRg-60">
          <mxGeometry relative="1" as="geometry" />
        </mxCell>
        <mxCell id="NjEQZNnnTkiGfQqc1ZRg-62" value="ไม่ใช่" style="edgeLabel;html=1;align=center;verticalAlign=middle;resizable=0;points=[];" vertex="1" connectable="0" parent="NjEQZNnnTkiGfQqc1ZRg-61">
          <mxGeometry x="-0.1657" relative="1" as="geometry">
            <mxPoint as="offset" />
          </mxGeometry>
        </mxCell>
        <mxCell id="NjEQZNnnTkiGfQqc1ZRg-63" value="ล้างข้อมูล verifyToken ใน Request temp ที่ต้องการสร้าง&amp;nbsp;" style="whiteSpace=wrap;html=1;rounded=1;" vertex="1" parent="1">
          <mxGeometry x="1053" y="4659" width="120" height="60" as="geometry" />
        </mxCell>
        <mxCell id="NjEQZNnnTkiGfQqc1ZRg-64" value="" style="edgeStyle=orthogonalEdgeStyle;rounded=0;orthogonalLoop=1;jettySize=auto;html=1;entryX=1;entryY=0.5;entryDx=0;entryDy=0;" edge="1" parent="1" source="NjEQZNnnTkiGfQqc1ZRg-47" target="NjEQZNnnTkiGfQqc1ZRg-63">
          <mxGeometry relative="1" as="geometry">
            <mxPoint x="1245" y="4639" as="targetPoint" />
            <Array as="points">
              <mxPoint x="1200" y="4489" />
              <mxPoint x="1200" y="4689" />
            </Array>
          </mxGeometry>
        </mxCell>
        <mxCell id="NjEQZNnnTkiGfQqc1ZRg-65" value="ไม่ใช่" style="edgeLabel;html=1;align=center;verticalAlign=middle;resizable=0;points=[];" vertex="1" connectable="0" parent="NjEQZNnnTkiGfQqc1ZRg-64">
          <mxGeometry x="-0.6702" y="1" relative="1" as="geometry">
            <mxPoint x="-11" y="1" as="offset" />
          </mxGeometry>
        </mxCell>
        <mxCell id="NjEQZNnnTkiGfQqc1ZRg-66" value="" style="edgeStyle=orthogonalEdgeStyle;rounded=0;orthogonalLoop=1;jettySize=auto;html=1;" edge="1" parent="1" source="NjEQZNnnTkiGfQqc1ZRg-49" target="NjEQZNnnTkiGfQqc1ZRg-63">
          <mxGeometry relative="1" as="geometry">
            <Array as="points">
              <mxPoint x="990" y="4689" />
            </Array>
          </mxGeometry>
        </mxCell>
        <mxCell id="NjEQZNnnTkiGfQqc1ZRg-67" value="ล้างข้อมูล verifyToken ใน Request temp ที่ต้องการสร้าง&amp;nbsp;" style="whiteSpace=wrap;html=1;rounded=1;" vertex="1" parent="1">
          <mxGeometry x="1336" y="4659" width="120" height="60" as="geometry" />
        </mxCell>
        <mxCell id="NjEQZNnnTkiGfQqc1ZRg-68" value="" style="edgeStyle=orthogonalEdgeStyle;rounded=0;orthogonalLoop=1;jettySize=auto;html=1;" edge="1" parent="1" source="NjEQZNnnTkiGfQqc1ZRg-57" target="NjEQZNnnTkiGfQqc1ZRg-67">
          <mxGeometry relative="1" as="geometry" />
        </mxCell>
        <mxCell id="NjEQZNnnTkiGfQqc1ZRg-69" value="เพิ่มข้อมูล request temp ลงใน table Request" style="rounded=1;whiteSpace=wrap;html=1;" vertex="1" parent="1">
          <mxGeometry x="1170" y="4759" width="180" height="50" as="geometry" />
        </mxCell>
        <mxCell id="NjEQZNnnTkiGfQqc1ZRg-70" style="edgeStyle=orthogonalEdgeStyle;rounded=0;orthogonalLoop=1;jettySize=auto;html=1;" edge="1" parent="1" source="NjEQZNnnTkiGfQqc1ZRg-63" target="NjEQZNnnTkiGfQqc1ZRg-69">
          <mxGeometry relative="1" as="geometry">
            <mxPoint x="1219.999999999975" y="4789" as="targetPoint" />
            <Array as="points">
              <mxPoint x="1113" y="4789" />
            </Array>
          </mxGeometry>
        </mxCell>
        <mxCell id="NjEQZNnnTkiGfQqc1ZRg-71" style="edgeStyle=orthogonalEdgeStyle;rounded=0;orthogonalLoop=1;jettySize=auto;html=1;exitX=0.5;exitY=1;exitDx=0;exitDy=0;entryX=1;entryY=0.5;entryDx=0;entryDy=0;" edge="1" parent="1" source="NjEQZNnnTkiGfQqc1ZRg-67" target="NjEQZNnnTkiGfQqc1ZRg-69">
          <mxGeometry relative="1" as="geometry">
            <mxPoint x="1340" y="4789" as="targetPoint" />
            <Array as="points">
              <mxPoint x="1400" y="4719" />
              <mxPoint x="1400" y="4784" />
            </Array>
          </mxGeometry>
        </mxCell>
        <mxCell id="NjEQZNnnTkiGfQqc1ZRg-72" value="บันทึกข้อมูล" style="whiteSpace=wrap;html=1;rounded=1;" vertex="1" parent="1">
          <mxGeometry x="1200" y="4859" width="120" height="60" as="geometry" />
        </mxCell>
        <mxCell id="NjEQZNnnTkiGfQqc1ZRg-73" value="" style="edgeStyle=orthogonalEdgeStyle;rounded=0;orthogonalLoop=1;jettySize=auto;html=1;" edge="1" parent="1" source="NjEQZNnnTkiGfQqc1ZRg-69" target="NjEQZNnnTkiGfQqc1ZRg-72">
          <mxGeometry relative="1" as="geometry" />
        </mxCell>
        <mxCell id="NjEQZNnnTkiGfQqc1ZRg-74" value="สำเร็จ ?" style="rhombus;whiteSpace=wrap;html=1;rounded=1;" vertex="1" parent="1">
          <mxGeometry x="1220" y="4989" width="80" height="80" as="geometry" />
        </mxCell>
        <mxCell id="NjEQZNnnTkiGfQqc1ZRg-75" value="" style="edgeStyle=orthogonalEdgeStyle;rounded=0;orthogonalLoop=1;jettySize=auto;html=1;" edge="1" parent="1" source="NjEQZNnnTkiGfQqc1ZRg-72" target="NjEQZNnnTkiGfQqc1ZRg-74">
          <mxGeometry relative="1" as="geometry" />
        </mxCell>
        <mxCell id="NjEQZNnnTkiGfQqc1ZRg-76" style="edgeStyle=orthogonalEdgeStyle;rounded=0;orthogonalLoop=1;jettySize=auto;html=1;endArrow=none;endFill=0;" edge="1" parent="1" source="NjEQZNnnTkiGfQqc1ZRg-77">
          <mxGeometry relative="1" as="geometry">
            <mxPoint x="1620" y="5029" as="targetPoint" />
          </mxGeometry>
        </mxCell>
        <mxCell id="NjEQZNnnTkiGfQqc1ZRg-77" value="ส่ง Error Code 500" style="whiteSpace=wrap;html=1;rounded=1;" vertex="1" parent="1">
          <mxGeometry x="1410" y="4999" width="120" height="60" as="geometry" />
        </mxCell>
        <mxCell id="NjEQZNnnTkiGfQqc1ZRg-78" value="" style="edgeStyle=orthogonalEdgeStyle;rounded=0;orthogonalLoop=1;jettySize=auto;html=1;" edge="1" parent="1" source="NjEQZNnnTkiGfQqc1ZRg-74" target="NjEQZNnnTkiGfQqc1ZRg-77">
          <mxGeometry relative="1" as="geometry" />
        </mxCell>
        <mxCell id="NjEQZNnnTkiGfQqc1ZRg-79" value="ไม่ใช่" style="edgeLabel;html=1;align=center;verticalAlign=middle;resizable=0;points=[];" vertex="1" connectable="0" parent="NjEQZNnnTkiGfQqc1ZRg-78">
          <mxGeometry x="-0.0823" y="-3" relative="1" as="geometry">
            <mxPoint y="-3" as="offset" />
          </mxGeometry>
        </mxCell>
        <mxCell id="NjEQZNnnTkiGfQqc1ZRg-80" value="ส่งกลับข้อมูลผู้ถือหุ้นที่บันทึกสำเร็จเเล้ว" style="whiteSpace=wrap;html=1;rounded=1;" vertex="1" parent="1">
          <mxGeometry x="1200" y="5149" width="120" height="60" as="geometry" />
        </mxCell>
        <mxCell id="NjEQZNnnTkiGfQqc1ZRg-81" style="edgeStyle=orthogonalEdgeStyle;rounded=0;orthogonalLoop=1;jettySize=auto;html=1;" edge="1" parent="1" source="NjEQZNnnTkiGfQqc1ZRg-74" target="NjEQZNnnTkiGfQqc1ZRg-80">
          <mxGeometry relative="1" as="geometry">
            <mxPoint x="1260" y="5149" as="targetPoint" />
          </mxGeometry>
        </mxCell>
        <mxCell id="NjEQZNnnTkiGfQqc1ZRg-82" value="ใช่" style="edgeLabel;html=1;align=center;verticalAlign=middle;resizable=0;points=[];" vertex="1" connectable="0" parent="NjEQZNnnTkiGfQqc1ZRg-81">
          <mxGeometry x="-0.12" y="-2" relative="1" as="geometry">
            <mxPoint as="offset" />
          </mxGeometry>
        </mxCell>
        <mxCell id="NjEQZNnnTkiGfQqc1ZRg-83" value="สิ้นสุด" style="ellipse;whiteSpace=wrap;html=1;rounded=1;" vertex="1" parent="1">
          <mxGeometry x="1200" y="5289" width="120" height="60" as="geometry" />
        </mxCell>
        <mxCell id="NjEQZNnnTkiGfQqc1ZRg-85" value="" style="edgeStyle=orthogonalEdgeStyle;rounded=0;orthogonalLoop=1;jettySize=auto;html=1;" edge="1" parent="1" source="NjEQZNnnTkiGfQqc1ZRg-80" target="NjEQZNnnTkiGfQqc1ZRg-83">
          <mxGeometry relative="1" as="geometry" />
        </mxCell>
        <mxCell id="NjEQZNnnTkiGfQqc1ZRg-243" style="edgeStyle=orthogonalEdgeStyle;rounded=0;orthogonalLoop=1;jettySize=auto;html=1;entryX=0.5;entryY=0;entryDx=0;entryDy=0;" edge="1" parent="1" source="NjEQZNnnTkiGfQqc1ZRg-238" target="NjEQZNnnTkiGfQqc1ZRg-25">
          <mxGeometry relative="1" as="geometry">
            <Array as="points">
              <mxPoint x="1250" y="3510" />
              <mxPoint x="1260" y="3510" />
            </Array>
          </mxGeometry>
        </mxCell>
        <mxCell id="NjEQZNnnTkiGfQqc1ZRg-2" value="ค้นหาข้อมูลใน &lt;br&gt;Table Request Temp ที่ &lt;br&gt;verifyToken ,&amp;nbsp; requestId&amp;nbsp; ตรงกันกับ parameter in : verifytoken , requestRef" style="rounded=1;whiteSpace=wrap;html=1;" vertex="1" parent="1">
          <mxGeometry x="1134.5" y="2600" width="229" height="70" as="geometry" />
        </mxCell>
        <mxCell id="NjEQZNnnTkiGfQqc1ZRg-3" value="มีข้อมูล" style="rhombus;whiteSpace=wrap;html=1;rounded=1;" vertex="1" parent="1">
          <mxGeometry x="1209" y="2707.5" width="80" height="80" as="geometry" />
        </mxCell>
        <mxCell id="NjEQZNnnTkiGfQqc1ZRg-4" value="" style="edgeStyle=orthogonalEdgeStyle;rounded=0;orthogonalLoop=1;jettySize=auto;html=1;" edge="1" parent="1" source="NjEQZNnnTkiGfQqc1ZRg-2" target="NjEQZNnnTkiGfQqc1ZRg-3">
          <mxGeometry relative="1" as="geometry">
            <mxPoint x="1249.0000000000002" y="2667.5" as="sourcePoint" />
          </mxGeometry>
        </mxCell>
        <mxCell id="NjEQZNnnTkiGfQqc1ZRg-5" style="edgeStyle=orthogonalEdgeStyle;rounded=0;orthogonalLoop=1;jettySize=auto;html=1;endArrow=none;endFill=0;" edge="1" parent="1">
          <mxGeometry relative="1" as="geometry">
            <mxPoint x="1609" y="2750" as="targetPoint" />
            <mxPoint x="1539" y="2750" as="sourcePoint" />
            <Array as="points">
              <mxPoint x="1609" y="2750" />
            </Array>
          </mxGeometry>
        </mxCell>
        <mxCell id="NjEQZNnnTkiGfQqc1ZRg-6" value="ส่ง Error Code 404&amp;nbsp;" style="whiteSpace=wrap;html=1;rounded=1;" vertex="1" parent="1">
          <mxGeometry x="1379" y="2730" width="160" height="35" as="geometry" />
        </mxCell>
        <mxCell id="NjEQZNnnTkiGfQqc1ZRg-7" value="" style="edgeStyle=orthogonalEdgeStyle;rounded=0;orthogonalLoop=1;jettySize=auto;html=1;" edge="1" parent="1" source="NjEQZNnnTkiGfQqc1ZRg-3" target="NjEQZNnnTkiGfQqc1ZRg-6">
          <mxGeometry relative="1" as="geometry" />
        </mxCell>
        <mxCell id="NjEQZNnnTkiGfQqc1ZRg-8" value="ไม่ใช่" style="edgeLabel;html=1;align=center;verticalAlign=middle;resizable=0;points=[];" vertex="1" connectable="0" parent="NjEQZNnnTkiGfQqc1ZRg-7">
          <mxGeometry x="-0.0988" y="1" relative="1" as="geometry">
            <mxPoint as="offset" />
          </mxGeometry>
        </mxCell>
        <mxCell id="NjEQZNnnTkiGfQqc1ZRg-9" value="อัพโหลดไฟล์แนบ" style="whiteSpace=wrap;html=1;rounded=1;" vertex="1" parent="1">
          <mxGeometry x="1189" y="2850" width="120" height="60" as="geometry" />
        </mxCell>
        <mxCell id="NjEQZNnnTkiGfQqc1ZRg-10" value="" style="edgeStyle=orthogonalEdgeStyle;rounded=0;orthogonalLoop=1;jettySize=auto;html=1;" edge="1" parent="1" source="NjEQZNnnTkiGfQqc1ZRg-3" target="NjEQZNnnTkiGfQqc1ZRg-9">
          <mxGeometry relative="1" as="geometry" />
        </mxCell>
        <mxCell id="NjEQZNnnTkiGfQqc1ZRg-11" value="ใช่" style="edgeLabel;html=1;align=center;verticalAlign=middle;resizable=0;points=[];" vertex="1" connectable="0" parent="NjEQZNnnTkiGfQqc1ZRg-10">
          <mxGeometry x="-0.232" y="1" relative="1" as="geometry">
            <mxPoint as="offset" />
          </mxGeometry>
        </mxCell>
        <mxCell id="NjEQZNnnTkiGfQqc1ZRg-12" value="สำเร็จ ?" style="rhombus;whiteSpace=wrap;html=1;rounded=1;" vertex="1" parent="1">
          <mxGeometry x="1209" y="2970" width="80" height="80" as="geometry" />
        </mxCell>
        <mxCell id="NjEQZNnnTkiGfQqc1ZRg-13" value="" style="edgeStyle=orthogonalEdgeStyle;rounded=0;orthogonalLoop=1;jettySize=auto;html=1;" edge="1" parent="1" source="NjEQZNnnTkiGfQqc1ZRg-9" target="NjEQZNnnTkiGfQqc1ZRg-12">
          <mxGeometry relative="1" as="geometry" />
        </mxCell>
        <mxCell id="NjEQZNnnTkiGfQqc1ZRg-14" style="edgeStyle=orthogonalEdgeStyle;rounded=0;orthogonalLoop=1;jettySize=auto;html=1;entryX=0;entryY=0.5;entryDx=0;entryDy=0;exitX=0;exitY=0.5;exitDx=0;exitDy=0;" edge="1" parent="1" source="NjEQZNnnTkiGfQqc1ZRg-23" target="NjEQZNnnTkiGfQqc1ZRg-9">
          <mxGeometry relative="1" as="geometry">
            <Array as="points">
              <mxPoint x="1139" y="3230" />
              <mxPoint x="1139" y="2880" />
            </Array>
          </mxGeometry>
        </mxCell>
        <mxCell id="NjEQZNnnTkiGfQqc1ZRg-15" value="ใช่" style="edgeLabel;html=1;align=center;verticalAlign=middle;resizable=0;points=[];" vertex="1" connectable="0" parent="NjEQZNnnTkiGfQqc1ZRg-14">
          <mxGeometry x="-0.8049" relative="1" as="geometry">
            <mxPoint x="14" as="offset" />
          </mxGeometry>
        </mxCell>
        <mxCell id="NjEQZNnnTkiGfQqc1ZRg-16" value="ตรวจสอบว่ามีไฟลอีกหรือไม่" style="whiteSpace=wrap;html=1;rounded=1;" vertex="1" parent="1">
          <mxGeometry x="1189" y="3100" width="120" height="60" as="geometry" />
        </mxCell>
        <mxCell id="NjEQZNnnTkiGfQqc1ZRg-17" value="" style="edgeStyle=orthogonalEdgeStyle;rounded=0;orthogonalLoop=1;jettySize=auto;html=1;" edge="1" parent="1" source="NjEQZNnnTkiGfQqc1ZRg-12" target="NjEQZNnnTkiGfQqc1ZRg-16">
          <mxGeometry relative="1" as="geometry" />
        </mxCell>
        <mxCell id="NjEQZNnnTkiGfQqc1ZRg-18" value="ใช่" style="edgeLabel;html=1;align=center;verticalAlign=middle;resizable=0;points=[];" vertex="1" connectable="0" parent="NjEQZNnnTkiGfQqc1ZRg-17">
          <mxGeometry x="-0.1535" y="1" relative="1" as="geometry">
            <mxPoint as="offset" />
          </mxGeometry>
        </mxCell>
        <mxCell id="NjEQZNnnTkiGfQqc1ZRg-19" style="edgeStyle=orthogonalEdgeStyle;rounded=0;orthogonalLoop=1;jettySize=auto;html=1;endArrow=none;endFill=0;" edge="1" parent="1" source="NjEQZNnnTkiGfQqc1ZRg-20">
          <mxGeometry relative="1" as="geometry">
            <mxPoint x="1609" y="3010" as="targetPoint" />
          </mxGeometry>
        </mxCell>
        <mxCell id="NjEQZNnnTkiGfQqc1ZRg-20" value="ส่ง Error Code&amp;nbsp;&lt;span style=&quot;white-space: pre;&quot;&gt;	&lt;/span&gt;1&amp;nbsp;&amp;nbsp;&lt;br&gt;อัพโหลดไฟล์ไม่สำเร็จ" style="whiteSpace=wrap;html=1;rounded=1;" vertex="1" parent="1">
          <mxGeometry x="1379" y="2993.25" width="160" height="33.5" as="geometry" />
        </mxCell>
        <mxCell id="NjEQZNnnTkiGfQqc1ZRg-21" value="" style="edgeStyle=orthogonalEdgeStyle;rounded=0;orthogonalLoop=1;jettySize=auto;html=1;" edge="1" parent="1" source="NjEQZNnnTkiGfQqc1ZRg-12" target="NjEQZNnnTkiGfQqc1ZRg-20">
          <mxGeometry relative="1" as="geometry" />
        </mxCell>
        <mxCell id="NjEQZNnnTkiGfQqc1ZRg-22" value="ไม่ใช่" style="edgeLabel;html=1;align=center;verticalAlign=middle;resizable=0;points=[];" vertex="1" connectable="0" parent="NjEQZNnnTkiGfQqc1ZRg-21">
          <mxGeometry x="-0.0214" y="2" relative="1" as="geometry">
            <mxPoint as="offset" />
          </mxGeometry>
        </mxCell>
        <mxCell id="NjEQZNnnTkiGfQqc1ZRg-23" value="มี ?" style="rhombus;whiteSpace=wrap;html=1;rounded=1;" vertex="1" parent="1">
          <mxGeometry x="1209" y="3190" width="80" height="80" as="geometry" />
        </mxCell>
        <mxCell id="NjEQZNnnTkiGfQqc1ZRg-24" value="" style="edgeStyle=orthogonalEdgeStyle;rounded=0;orthogonalLoop=1;jettySize=auto;html=1;" edge="1" parent="1" source="NjEQZNnnTkiGfQqc1ZRg-16" target="NjEQZNnnTkiGfQqc1ZRg-23">
          <mxGeometry relative="1" as="geometry" />
        </mxCell>
        <mxCell id="NjEQZNnnTkiGfQqc1ZRg-197" value="ตรวจสอบสถานะ การรับยื่นเอกสารมอบฉันทะให้กรรมการ&lt;br&gt;requestProxy&lt;br&gt;AttorneyStatus" style="rounded=1;whiteSpace=wrap;html=1;" vertex="1" parent="1">
          <mxGeometry x="1160" y="2340" width="177" height="60" as="geometry" />
        </mxCell>
        <mxCell id="NjEQZNnnTkiGfQqc1ZRg-229" value="" style="edgeStyle=orthogonalEdgeStyle;rounded=0;orthogonalLoop=1;jettySize=auto;html=1;endArrow=classic;endFill=1;" edge="1" parent="1">
          <mxGeometry relative="1" as="geometry">
            <mxPoint x="1249" y="2540.0000000000005" as="sourcePoint" />
            <mxPoint x="1250.017543859649" y="2600.0000000000005" as="targetPoint" />
            <Array as="points">
              <mxPoint x="1249" y="2600" />
            </Array>
          </mxGeometry>
        </mxCell>
        <mxCell id="NjEQZNnnTkiGfQqc1ZRg-230" value="Y ?" style="rhombus;whiteSpace=wrap;html=1;rounded=1;" vertex="1" parent="1">
          <mxGeometry x="1208" y="2460" width="80" height="80" as="geometry" />
        </mxCell>
        <mxCell id="NjEQZNnnTkiGfQqc1ZRg-231" value="" style="edgeStyle=orthogonalEdgeStyle;rounded=0;orthogonalLoop=1;jettySize=auto;html=1;endArrow=none;endFill=0;" edge="1" parent="1" source="NjEQZNnnTkiGfQqc1ZRg-197" target="NjEQZNnnTkiGfQqc1ZRg-230">
          <mxGeometry relative="1" as="geometry" />
        </mxCell>
        <mxCell id="NjEQZNnnTkiGfQqc1ZRg-233" value="ส่ง Error Code&amp;nbsp;&lt;span style=&quot;&quot;&gt;&amp;nbsp;3&lt;/span&gt;&amp;nbsp;&amp;nbsp;&lt;br&gt;การยื่นแบบคำร้องยังไม่เปิด / ปิดอยู่" style="whiteSpace=wrap;html=1;rounded=1;" vertex="1" parent="1">
          <mxGeometry x="1367.5" y="2476.25" width="201.5" height="47.5" as="geometry" />
        </mxCell>
        <mxCell id="NjEQZNnnTkiGfQqc1ZRg-234" style="edgeStyle=orthogonalEdgeStyle;rounded=0;orthogonalLoop=1;jettySize=auto;html=1;entryX=0;entryY=0.5;entryDx=0;entryDy=0;endArrow=classic;endFill=1;" edge="1" parent="1" source="NjEQZNnnTkiGfQqc1ZRg-230" target="NjEQZNnnTkiGfQqc1ZRg-233">
          <mxGeometry relative="1" as="geometry" />
        </mxCell>
        <mxCell id="NjEQZNnnTkiGfQqc1ZRg-236" value="อัพโหลดไฟล์ลายเซนต์" style="rounded=1;whiteSpace=wrap;html=1;" vertex="1" parent="1">
          <mxGeometry x="1189" y="3320" width="121" height="40" as="geometry" />
        </mxCell>
        <mxCell id="NjEQZNnnTkiGfQqc1ZRg-237" value="" style="edgeStyle=orthogonalEdgeStyle;rounded=0;orthogonalLoop=1;jettySize=auto;html=1;" edge="1" parent="1" source="NjEQZNnnTkiGfQqc1ZRg-23" target="NjEQZNnnTkiGfQqc1ZRg-236">
          <mxGeometry relative="1" as="geometry" />
        </mxCell>
        <mxCell id="NjEQZNnnTkiGfQqc1ZRg-238" value="สำเร็จ" style="rhombus;whiteSpace=wrap;html=1;rounded=1;" vertex="1" parent="1">
          <mxGeometry x="1209.5" y="3400" width="80" height="80" as="geometry" />
        </mxCell>
        <mxCell id="NjEQZNnnTkiGfQqc1ZRg-239" value="" style="edgeStyle=orthogonalEdgeStyle;rounded=0;orthogonalLoop=1;jettySize=auto;html=1;" edge="1" parent="1" source="NjEQZNnnTkiGfQqc1ZRg-236" target="NjEQZNnnTkiGfQqc1ZRg-238">
          <mxGeometry relative="1" as="geometry" />
        </mxCell>
        <mxCell id="NjEQZNnnTkiGfQqc1ZRg-244" style="edgeStyle=orthogonalEdgeStyle;rounded=0;orthogonalLoop=1;jettySize=auto;html=1;endArrow=none;endFill=0;" edge="1" parent="1" source="NjEQZNnnTkiGfQqc1ZRg-241">
          <mxGeometry relative="1" as="geometry">
            <mxPoint x="1610" y="3440" as="targetPoint" />
          </mxGeometry>
        </mxCell>
        <mxCell id="NjEQZNnnTkiGfQqc1ZRg-241" value="ส่ง Error Code 2&lt;br&gt;อัพโหลดไฟล์ลายเซนต์ไม่สำเร็จ" style="whiteSpace=wrap;html=1;rounded=1;" vertex="1" parent="1">
          <mxGeometry x="1376.25" y="3420" width="163.75" height="40" as="geometry" />
        </mxCell>
        <mxCell id="NjEQZNnnTkiGfQqc1ZRg-242" value="" style="edgeStyle=orthogonalEdgeStyle;rounded=0;orthogonalLoop=1;jettySize=auto;html=1;" edge="1" parent="1" source="NjEQZNnnTkiGfQqc1ZRg-238" target="NjEQZNnnTkiGfQqc1ZRg-241">
          <mxGeometry relative="1" as="geometry" />
        </mxCell>
        <mxCell id="NjEQZNnnTkiGfQqc1ZRg-489" value="" style="edgeStyle=orthogonalEdgeStyle;rounded=0;orthogonalLoop=1;jettySize=auto;html=1;" edge="1" parent="1" source="NjEQZNnnTkiGfQqc1ZRg-491">
          <mxGeometry relative="1" as="geometry">
            <mxPoint x="1084" y="381.34000000000015" as="targetPoint" />
          </mxGeometry>
        </mxCell>
        <mxCell id="NjEQZNnnTkiGfQqc1ZRg-490" value="ใช่" style="edgeLabel;html=1;align=center;verticalAlign=middle;resizable=0;points=[];" vertex="1" connectable="0" parent="NjEQZNnnTkiGfQqc1ZRg-489">
          <mxGeometry x="-0.0893" y="-1" relative="1" as="geometry">
            <mxPoint as="offset" />
          </mxGeometry>
        </mxCell>
        <mxCell id="NjEQZNnnTkiGfQqc1ZRg-491" value="ตรงกัน ?" style="rhombus;whiteSpace=wrap;html=1;rounded=1;" vertex="1" parent="1">
          <mxGeometry x="1212" y="341.3399999999999" width="80" height="80" as="geometry" />
        </mxCell>
        <mxCell id="NjEQZNnnTkiGfQqc1ZRg-492" value="ตรวจสอบเวลาปัจจุบันกับ&lt;br&gt;เวลาเริ่มต้นการประชุม" style="rounded=1;whiteSpace=wrap;html=1;" vertex="1" parent="1">
          <mxGeometry x="924" y="363.8399999999999" width="150" height="35" as="geometry" />
        </mxCell>
        <mxCell id="NjEQZNnnTkiGfQqc1ZRg-493" value="" style="edgeStyle=orthogonalEdgeStyle;rounded=0;orthogonalLoop=1;jettySize=auto;html=1;" edge="1" parent="1" source="NjEQZNnnTkiGfQqc1ZRg-492" target="NjEQZNnnTkiGfQqc1ZRg-494">
          <mxGeometry relative="1" as="geometry" />
        </mxCell>
        <mxCell id="NjEQZNnnTkiGfQqc1ZRg-494" value="เวลาปัจจุบัน &lt;br&gt;&amp;gt;= เวลาเริ่มต้นการประชุม" style="rhombus;whiteSpace=wrap;html=1;rounded=1;" vertex="1" parent="1">
          <mxGeometry x="944.75" y="449" width="108.5" height="100" as="geometry" />
        </mxCell>
        <mxCell id="NjEQZNnnTkiGfQqc1ZRg-495" value="เวลาปัจจุบัน &lt;br&gt;&amp;nbsp;&amp;lt; เวลาเริ่มต้นการประชุม" style="rhombus;whiteSpace=wrap;html=1;rounded=1;" vertex="1" parent="1">
          <mxGeometry x="949.75" y="636.5" width="108.5" height="100" as="geometry" />
        </mxCell>
        <mxCell id="NjEQZNnnTkiGfQqc1ZRg-496" value="ไม่ใช่" style="edgeStyle=orthogonalEdgeStyle;rounded=0;orthogonalLoop=1;jettySize=auto;html=1;endArrow=classic;endFill=1;" edge="1" parent="1" source="NjEQZNnnTkiGfQqc1ZRg-494" target="NjEQZNnnTkiGfQqc1ZRg-495">
          <mxGeometry relative="1" as="geometry" />
        </mxCell>
        <mxCell id="NjEQZNnnTkiGfQqc1ZRg-498" value="ยังไม่ถึงเวลา" style="whiteSpace=wrap;html=1;rounded=1;" vertex="1" parent="1">
          <mxGeometry x="854" y="736.5" width="120" height="60" as="geometry" />
        </mxCell>
        <mxCell id="NjEQZNnnTkiGfQqc1ZRg-499" value="" style="edgeStyle=orthogonalEdgeStyle;rounded=0;orthogonalLoop=1;jettySize=auto;html=1;endArrow=classic;endFill=1;" edge="1" parent="1" source="NjEQZNnnTkiGfQqc1ZRg-495" target="NjEQZNnnTkiGfQqc1ZRg-498">
          <mxGeometry relative="1" as="geometry">
            <Array as="points">
              <mxPoint x="914" y="687" />
            </Array>
          </mxGeometry>
        </mxCell>
        <mxCell id="NjEQZNnnTkiGfQqc1ZRg-500" value="ใช่" style="edgeLabel;html=1;align=center;verticalAlign=middle;resizable=0;points=[];" vertex="1" connectable="0" parent="NjEQZNnnTkiGfQqc1ZRg-499">
          <mxGeometry x="-0.2299" y="-1" relative="1" as="geometry">
            <mxPoint x="-3" y="23" as="offset" />
          </mxGeometry>
        </mxCell>
        <mxCell id="NjEQZNnnTkiGfQqc1ZRg-501" value="เวลาปัจจุบัน&amp;nbsp;&lt;br&gt;&amp;lt;= เวลาสิ้นสุดการประชุม" style="rhombus;whiteSpace=wrap;html=1;rounded=1;" vertex="1" parent="1">
          <mxGeometry x="1111" y="451.5" width="110" height="95" as="geometry" />
        </mxCell>
        <mxCell id="NjEQZNnnTkiGfQqc1ZRg-502" value="" style="edgeStyle=orthogonalEdgeStyle;rounded=0;orthogonalLoop=1;jettySize=auto;html=1;endArrow=classic;endFill=1;entryX=0;entryY=0.5;entryDx=0;entryDy=0;" edge="1" parent="1" source="NjEQZNnnTkiGfQqc1ZRg-494" target="NjEQZNnnTkiGfQqc1ZRg-501">
          <mxGeometry relative="1" as="geometry">
            <mxPoint x="1116" y="506.5" as="targetPoint" />
          </mxGeometry>
        </mxCell>
        <mxCell id="NjEQZNnnTkiGfQqc1ZRg-503" value="ใช่" style="edgeLabel;html=1;align=center;verticalAlign=middle;resizable=0;points=[];" vertex="1" connectable="0" parent="NjEQZNnnTkiGfQqc1ZRg-502">
          <mxGeometry x="-0.2299" y="2" relative="1" as="geometry">
            <mxPoint y="2" as="offset" />
          </mxGeometry>
        </mxCell>
        <mxCell id="NjEQZNnnTkiGfQqc1ZRg-505" value="อยู่ในเวลาประชุม" style="whiteSpace=wrap;html=1;rounded=1;" vertex="1" parent="1">
          <mxGeometry x="1106" y="589" width="120" height="60" as="geometry" />
        </mxCell>
        <mxCell id="NjEQZNnnTkiGfQqc1ZRg-506" value="" style="edgeStyle=orthogonalEdgeStyle;rounded=0;orthogonalLoop=1;jettySize=auto;html=1;endArrow=classic;endFill=1;" edge="1" parent="1" source="NjEQZNnnTkiGfQqc1ZRg-501" target="NjEQZNnnTkiGfQqc1ZRg-505">
          <mxGeometry relative="1" as="geometry" />
        </mxCell>
        <mxCell id="NjEQZNnnTkiGfQqc1ZRg-507" value="ใช่" style="edgeLabel;html=1;align=center;verticalAlign=middle;resizable=0;points=[];" vertex="1" connectable="0" parent="NjEQZNnnTkiGfQqc1ZRg-506">
          <mxGeometry x="-0.0236" y="2" relative="1" as="geometry">
            <mxPoint x="-2" as="offset" />
          </mxGeometry>
        </mxCell>
        <mxCell id="NjEQZNnnTkiGfQqc1ZRg-508" value="ปิดการประชุม&amp;nbsp;&lt;br&gt;กำหนดค่า requestProxy&lt;br&gt;AttorneyStatus&amp;nbsp;= &quot;F&quot;" style="whiteSpace=wrap;html=1;rounded=1;" vertex="1" parent="1">
          <mxGeometry x="1292" y="469" width="120" height="60" as="geometry" />
        </mxCell>
        <mxCell id="NjEQZNnnTkiGfQqc1ZRg-509" value="" style="edgeStyle=orthogonalEdgeStyle;rounded=0;orthogonalLoop=1;jettySize=auto;html=1;endArrow=classic;endFill=1;" edge="1" parent="1" source="NjEQZNnnTkiGfQqc1ZRg-501" target="NjEQZNnnTkiGfQqc1ZRg-508">
          <mxGeometry relative="1" as="geometry" />
        </mxCell>
        <mxCell id="NjEQZNnnTkiGfQqc1ZRg-510" value="ไม่ใช่" style="edgeLabel;html=1;align=center;verticalAlign=middle;resizable=0;points=[];" vertex="1" connectable="0" parent="NjEQZNnnTkiGfQqc1ZRg-509">
          <mxGeometry x="-0.3007" y="2" relative="1" as="geometry">
            <mxPoint x="2" y="2" as="offset" />
          </mxGeometry>
        </mxCell>
        <mxCell id="NjEQZNnnTkiGfQqc1ZRg-511" value="ปิดการประชุม&amp;nbsp;&lt;br&gt;กำหนดค่า requestProxy&lt;br&gt;AttorneyStatus&amp;nbsp;= &quot;F&quot;" style="whiteSpace=wrap;html=1;rounded=1;" vertex="1" parent="1">
          <mxGeometry x="1036" y="736.5" width="120" height="60" as="geometry" />
        </mxCell>
        <mxCell id="NjEQZNnnTkiGfQqc1ZRg-512" value="" style="edgeStyle=orthogonalEdgeStyle;rounded=0;orthogonalLoop=1;jettySize=auto;html=1;endArrow=classic;endFill=1;entryX=0.5;entryY=0;entryDx=0;entryDy=0;" edge="1" parent="1" source="NjEQZNnnTkiGfQqc1ZRg-495" target="NjEQZNnnTkiGfQqc1ZRg-511">
          <mxGeometry relative="1" as="geometry">
            <Array as="points">
              <mxPoint x="1096" y="686.5" />
            </Array>
          </mxGeometry>
        </mxCell>
        <mxCell id="NjEQZNnnTkiGfQqc1ZRg-513" value="ไม่ใช่" style="edgeLabel;html=1;align=center;verticalAlign=middle;resizable=0;points=[];" vertex="1" connectable="0" parent="NjEQZNnnTkiGfQqc1ZRg-512">
          <mxGeometry x="-0.6501" y="3" relative="1" as="geometry">
            <mxPoint x="22" y="23" as="offset" />
          </mxGeometry>
        </mxCell>
        <mxCell id="NjEQZNnnTkiGfQqc1ZRg-514" value="" style="shape=requiredInterface;html=1;verticalLabelPosition=bottom;sketch=0;direction=north;" vertex="1" parent="1">
          <mxGeometry x="1187.5" y="759" width="20" height="10" as="geometry" />
        </mxCell>
        <mxCell id="NjEQZNnnTkiGfQqc1ZRg-515" style="edgeStyle=orthogonalEdgeStyle;rounded=0;orthogonalLoop=1;jettySize=auto;html=1;endArrow=none;endFill=0;entryX=-0.021;entryY=0.02;entryDx=0;entryDy=0;entryPerimeter=0;" edge="1" parent="1" source="NjEQZNnnTkiGfQqc1ZRg-511" target="NjEQZNnnTkiGfQqc1ZRg-514">
          <mxGeometry relative="1" as="geometry">
            <mxPoint x="1184" y="769" as="targetPoint" />
            <Array as="points">
              <mxPoint x="1164" y="769" />
            </Array>
          </mxGeometry>
        </mxCell>
        <mxCell id="NjEQZNnnTkiGfQqc1ZRg-516" style="edgeStyle=orthogonalEdgeStyle;rounded=0;orthogonalLoop=1;jettySize=auto;html=1;endArrow=none;endFill=0;exitX=0.028;exitY=0.997;exitDx=0;exitDy=0;exitPerimeter=0;" edge="1" parent="1" source="NjEQZNnnTkiGfQqc1ZRg-517">
          <mxGeometry relative="1" as="geometry">
            <mxPoint x="1640" y="500" as="targetPoint" />
            <Array as="points">
              <mxPoint x="1636" y="499" />
              <mxPoint x="1646" y="499" />
            </Array>
          </mxGeometry>
        </mxCell>
        <mxCell id="NjEQZNnnTkiGfQqc1ZRg-517" value="" style="shape=requiredInterface;html=1;verticalLabelPosition=bottom;sketch=0;direction=north;" vertex="1" parent="1">
          <mxGeometry x="1434" y="489" width="20" height="10" as="geometry" />
        </mxCell>
        <mxCell id="NjEQZNnnTkiGfQqc1ZRg-518" value="" style="edgeStyle=orthogonalEdgeStyle;rounded=0;orthogonalLoop=1;jettySize=auto;html=1;startArrow=none;exitX=1;exitY=0.5;exitDx=0;exitDy=0;exitPerimeter=0;" edge="1" parent="1" source="NjEQZNnnTkiGfQqc1ZRg-517">
          <mxGeometry relative="1" as="geometry">
            <mxPoint x="1296" y="869" as="targetPoint" />
            <Array as="points">
              <mxPoint x="1444" y="869" />
            </Array>
          </mxGeometry>
        </mxCell>
        <mxCell id="NjEQZNnnTkiGfQqc1ZRg-519" value="" style="edgeStyle=orthogonalEdgeStyle;rounded=0;orthogonalLoop=1;jettySize=auto;html=1;endArrow=none;" edge="1" parent="1" source="NjEQZNnnTkiGfQqc1ZRg-491" target="NjEQZNnnTkiGfQqc1ZRg-517">
          <mxGeometry relative="1" as="geometry">
            <mxPoint x="1291.971111111111" y="381.31111111111113" as="sourcePoint" />
            <mxPoint x="1321" y="869" as="targetPoint" />
            <Array as="points" />
          </mxGeometry>
        </mxCell>
        <mxCell id="NjEQZNnnTkiGfQqc1ZRg-520" value="ไม่ใช่" style="edgeLabel;html=1;align=center;verticalAlign=middle;resizable=0;points=[];" vertex="1" connectable="0" parent="NjEQZNnnTkiGfQqc1ZRg-519">
          <mxGeometry x="-0.5154" y="1" relative="1" as="geometry">
            <mxPoint as="offset" />
          </mxGeometry>
        </mxCell>
        <mxCell id="NjEQZNnnTkiGfQqc1ZRg-521" style="edgeStyle=orthogonalEdgeStyle;rounded=0;orthogonalLoop=1;jettySize=auto;html=1;entryX=0.136;entryY=0.009;entryDx=0;entryDy=0;entryPerimeter=0;endArrow=none;endFill=0;" edge="1" parent="1" source="NjEQZNnnTkiGfQqc1ZRg-508" target="NjEQZNnnTkiGfQqc1ZRg-517">
          <mxGeometry relative="1" as="geometry">
            <Array as="points">
              <mxPoint x="1434" y="499" />
            </Array>
          </mxGeometry>
        </mxCell>
        <mxCell id="NjEQZNnnTkiGfQqc1ZRg-522" style="edgeStyle=orthogonalEdgeStyle;rounded=0;orthogonalLoop=1;jettySize=auto;html=1;endArrow=none;endFill=0;" edge="1" parent="1" source="NjEQZNnnTkiGfQqc1ZRg-523">
          <mxGeometry relative="1" as="geometry">
            <mxPoint x="1646" y="769" as="targetPoint" />
            <Array as="points">
              <mxPoint x="1634" y="769" />
            </Array>
          </mxGeometry>
        </mxCell>
        <mxCell id="NjEQZNnnTkiGfQqc1ZRg-523" value="" style="shape=requiredInterface;html=1;verticalLabelPosition=bottom;sketch=0;direction=north;" vertex="1" parent="1">
          <mxGeometry x="1434" y="759" width="20" height="10" as="geometry" />
        </mxCell>
        <mxCell id="NjEQZNnnTkiGfQqc1ZRg-524" style="edgeStyle=orthogonalEdgeStyle;rounded=0;orthogonalLoop=1;jettySize=auto;html=1;endArrow=none;endFill=0;entryX=-0.041;entryY=0.063;entryDx=0;entryDy=0;entryPerimeter=0;exitX=0.02;exitY=1.02;exitDx=0;exitDy=0;exitPerimeter=0;" edge="1" parent="1" source="NjEQZNnnTkiGfQqc1ZRg-514" target="NjEQZNnnTkiGfQqc1ZRg-523">
          <mxGeometry relative="1" as="geometry">
            <mxPoint x="1434" y="769" as="targetPoint" />
            <Array as="points">
              <mxPoint x="1274" y="769" />
            </Array>
          </mxGeometry>
        </mxCell>
        <mxCell id="NjEQZNnnTkiGfQqc1ZRg-525" value="" style="edgeStyle=orthogonalEdgeStyle;rounded=0;orthogonalLoop=1;jettySize=auto;html=1;endArrow=classic;endFill=1;" edge="1" parent="1" source="NjEQZNnnTkiGfQqc1ZRg-526" target="NjEQZNnnTkiGfQqc1ZRg-491">
          <mxGeometry relative="1" as="geometry" />
        </mxCell>
        <mxCell id="NjEQZNnnTkiGfQqc1ZRg-526" value="ตรวจสอบวันที่ประชุมกับ&lt;br&gt;วันปัจจุบันว่าตรงกันหรือไม่" style="whiteSpace=wrap;html=1;rounded=1;" vertex="1" parent="1">
          <mxGeometry x="1180" y="244" width="144" height="73" as="geometry" />
        </mxCell>
        <mxCell id="NjEQZNnnTkiGfQqc1ZRg-527" value="" style="edgeStyle=orthogonalEdgeStyle;rounded=0;orthogonalLoop=1;jettySize=auto;html=1;endArrow=classic;endFill=1;" edge="1" parent="1" source="NjEQZNnnTkiGfQqc1ZRg-528" target="NjEQZNnnTkiGfQqc1ZRg-526">
          <mxGeometry relative="1" as="geometry" />
        </mxCell>
        <mxCell id="NjEQZNnnTkiGfQqc1ZRg-528" value="กำหนดตัวเเปรสำหรับตรวจสอบสถานะการรับเอกสารคำร้องมอบฉันทะให้กรรมการ&lt;br&gt;requestProxyAttorneyStatus&amp;nbsp;= &quot;&quot;" style="rounded=1;whiteSpace=wrap;html=1;" vertex="1" parent="1">
          <mxGeometry x="1127" y="140" width="250" height="70" as="geometry" />
        </mxCell>
        <mxCell id="NjEQZNnnTkiGfQqc1ZRg-529" value="เริ่มต้น" style="ellipse;whiteSpace=wrap;html=1;rounded=1;glass=0;strokeWidth=1;shadow=0;" vertex="1" parent="1">
          <mxGeometry x="1199.5" y="-410" width="90" height="40" as="geometry" />
        </mxCell>
        <mxCell id="NjEQZNnnTkiGfQqc1ZRg-530" value="ดึงข้อมูลจาก &lt;br&gt;Table Config" style="whiteSpace=wrap;html=1;rounded=1;glass=0;strokeWidth=1;shadow=0;" vertex="1" parent="1">
          <mxGeometry x="1184.5" y="-340" width="120" height="60" as="geometry" />
        </mxCell>
        <mxCell id="NjEQZNnnTkiGfQqc1ZRg-531" value="" style="edgeStyle=orthogonalEdgeStyle;rounded=0;orthogonalLoop=1;jettySize=auto;html=1;" edge="1" parent="1" source="NjEQZNnnTkiGfQqc1ZRg-529" target="NjEQZNnnTkiGfQqc1ZRg-530">
          <mxGeometry relative="1" as="geometry" />
        </mxCell>
        <mxCell id="NjEQZNnnTkiGfQqc1ZRg-532" value="ดึงข้อมูล ?" style="rhombus;whiteSpace=wrap;html=1;rounded=1;glass=0;strokeWidth=1;shadow=0;" vertex="1" parent="1">
          <mxGeometry x="1204.5" y="-240" width="80" height="80" as="geometry" />
        </mxCell>
        <mxCell id="NjEQZNnnTkiGfQqc1ZRg-533" value="" style="edgeStyle=orthogonalEdgeStyle;rounded=0;orthogonalLoop=1;jettySize=auto;html=1;" edge="1" parent="1" source="NjEQZNnnTkiGfQqc1ZRg-530" target="NjEQZNnnTkiGfQqc1ZRg-532">
          <mxGeometry relative="1" as="geometry" />
        </mxCell>
        <mxCell id="NjEQZNnnTkiGfQqc1ZRg-534" style="edgeStyle=orthogonalEdgeStyle;rounded=0;orthogonalLoop=1;jettySize=auto;html=1;endArrow=none;endFill=0;" edge="1" parent="1" source="NjEQZNnnTkiGfQqc1ZRg-535">
          <mxGeometry relative="1" as="geometry">
            <mxPoint x="1640" y="2560" as="targetPoint" />
          </mxGeometry>
        </mxCell>
        <mxCell id="NjEQZNnnTkiGfQqc1ZRg-535" value="ส่ง Error code 500" style="rounded=1;whiteSpace=wrap;html=1;" vertex="1" parent="1">
          <mxGeometry x="1366.5" y="-220" width="147.5" height="40" as="geometry" />
        </mxCell>
        <mxCell id="NjEQZNnnTkiGfQqc1ZRg-536" value="" style="edgeStyle=orthogonalEdgeStyle;rounded=0;orthogonalLoop=1;jettySize=auto;html=1;entryX=0;entryY=0.5;entryDx=0;entryDy=0;" edge="1" parent="1" source="NjEQZNnnTkiGfQqc1ZRg-532" target="NjEQZNnnTkiGfQqc1ZRg-535">
          <mxGeometry relative="1" as="geometry">
            <mxPoint x="1431.5" y="-190" as="targetPoint" />
          </mxGeometry>
        </mxCell>
        <mxCell id="NjEQZNnnTkiGfQqc1ZRg-537" value="ไม่สำเร็จ" style="edgeLabel;html=1;align=center;verticalAlign=middle;resizable=0;points=[];" vertex="1" connectable="0" parent="NjEQZNnnTkiGfQqc1ZRg-536">
          <mxGeometry x="-0.1197" relative="1" as="geometry">
            <mxPoint as="offset" />
          </mxGeometry>
        </mxCell>
        <mxCell id="NjEQZNnnTkiGfQqc1ZRg-538" value="ตรวจสอบข้อมูล &lt;br&gt;Config" style="whiteSpace=wrap;html=1;rounded=1;glass=0;strokeWidth=1;shadow=0;" vertex="1" parent="1">
          <mxGeometry x="1184.5" y="-80" width="120" height="60" as="geometry" />
        </mxCell>
        <mxCell id="NjEQZNnnTkiGfQqc1ZRg-539" value="" style="edgeStyle=orthogonalEdgeStyle;rounded=0;orthogonalLoop=1;jettySize=auto;html=1;" edge="1" parent="1" source="NjEQZNnnTkiGfQqc1ZRg-532" target="NjEQZNnnTkiGfQqc1ZRg-538">
          <mxGeometry relative="1" as="geometry" />
        </mxCell>
        <mxCell id="NjEQZNnnTkiGfQqc1ZRg-540" value="สำเร็จ" style="edgeLabel;html=1;align=center;verticalAlign=middle;resizable=0;points=[];" vertex="1" connectable="0" parent="NjEQZNnnTkiGfQqc1ZRg-539">
          <mxGeometry x="-0.151" relative="1" as="geometry">
            <mxPoint as="offset" />
          </mxGeometry>
        </mxCell>
        <mxCell id="NjEQZNnnTkiGfQqc1ZRg-541" value="มีข้อมูล ?" style="rhombus;whiteSpace=wrap;html=1;rounded=1;glass=0;strokeWidth=1;shadow=0;" vertex="1" parent="1">
          <mxGeometry x="1204.5" y="10" width="80" height="80" as="geometry" />
        </mxCell>
        <mxCell id="NjEQZNnnTkiGfQqc1ZRg-542" value="" style="edgeStyle=orthogonalEdgeStyle;rounded=0;orthogonalLoop=1;jettySize=auto;html=1;" edge="1" parent="1" source="NjEQZNnnTkiGfQqc1ZRg-538" target="NjEQZNnnTkiGfQqc1ZRg-541">
          <mxGeometry relative="1" as="geometry" />
        </mxCell>
        <mxCell id="NjEQZNnnTkiGfQqc1ZRg-543" style="edgeStyle=orthogonalEdgeStyle;rounded=0;orthogonalLoop=1;jettySize=auto;html=1;endArrow=none;endFill=0;" edge="1" parent="1" source="NjEQZNnnTkiGfQqc1ZRg-544">
          <mxGeometry relative="1" as="geometry">
            <mxPoint x="1640" y="50" as="targetPoint" />
          </mxGeometry>
        </mxCell>
        <mxCell id="NjEQZNnnTkiGfQqc1ZRg-544" value="ส่ง Error code 404" style="whiteSpace=wrap;html=1;rounded=1;glass=0;strokeWidth=1;shadow=0;" vertex="1" parent="1">
          <mxGeometry x="1364" y="30" width="150" height="40" as="geometry" />
        </mxCell>
        <mxCell id="NjEQZNnnTkiGfQqc1ZRg-545" value="" style="edgeStyle=orthogonalEdgeStyle;rounded=0;orthogonalLoop=1;jettySize=auto;html=1;" edge="1" parent="1" source="NjEQZNnnTkiGfQqc1ZRg-541" target="NjEQZNnnTkiGfQqc1ZRg-544">
          <mxGeometry relative="1" as="geometry" />
        </mxCell>
        <mxCell id="NjEQZNnnTkiGfQqc1ZRg-546" value="ไม่ใช่" style="edgeLabel;html=1;align=center;verticalAlign=middle;resizable=0;points=[];" vertex="1" connectable="0" parent="NjEQZNnnTkiGfQqc1ZRg-545">
          <mxGeometry x="-0.08" y="-2" relative="1" as="geometry">
            <mxPoint as="offset" />
          </mxGeometry>
        </mxCell>
        <mxCell id="NjEQZNnnTkiGfQqc1ZRg-547" value="" style="edgeStyle=orthogonalEdgeStyle;rounded=0;orthogonalLoop=1;jettySize=auto;html=1;" edge="1" parent="1" source="NjEQZNnnTkiGfQqc1ZRg-541">
          <mxGeometry relative="1" as="geometry">
            <mxPoint x="1246.5" y="140" as="targetPoint" />
          </mxGeometry>
        </mxCell>
        <mxCell id="NjEQZNnnTkiGfQqc1ZRg-548" value="ใช่" style="edgeLabel;html=1;align=center;verticalAlign=middle;resizable=0;points=[];" vertex="1" connectable="0" parent="NjEQZNnnTkiGfQqc1ZRg-547">
          <mxGeometry x="-0.2087" y="-1" relative="1" as="geometry">
            <mxPoint as="offset" />
          </mxGeometry>
        </mxCell>
        <mxCell id="NjEQZNnnTkiGfQqc1ZRg-549" value="ตรวจสอบสถานะ การรับยื่นเอกสารคำร้องมอบฉันทะให้กรรมการ" style="rounded=1;whiteSpace=wrap;html=1;" vertex="1" parent="1">
          <mxGeometry x="1118.5" y="830" width="177" height="60" as="geometry" />
        </mxCell>
        <mxCell id="NjEQZNnnTkiGfQqc1ZRg-497" style="edgeStyle=orthogonalEdgeStyle;rounded=0;orthogonalLoop=1;jettySize=auto;html=1;endArrow=classic;endFill=1;" edge="1" parent="1" source="NjEQZNnnTkiGfQqc1ZRg-498" target="NjEQZNnnTkiGfQqc1ZRg-549">
          <mxGeometry relative="1" as="geometry">
            <Array as="points">
              <mxPoint x="914" y="869" />
            </Array>
            <mxPoint x="1074" y="869" as="targetPoint" />
          </mxGeometry>
        </mxCell>
        <mxCell id="NjEQZNnnTkiGfQqc1ZRg-550" value="" style="edgeStyle=orthogonalEdgeStyle;rounded=0;orthogonalLoop=1;jettySize=auto;html=1;endArrow=classic;endFill=1;" edge="1" parent="1" source="NjEQZNnnTkiGfQqc1ZRg-552">
          <mxGeometry relative="1" as="geometry">
            <mxPoint x="1206.5666666666657" y="1080" as="targetPoint" />
          </mxGeometry>
        </mxCell>
        <mxCell id="NjEQZNnnTkiGfQqc1ZRg-551" value="ใช่" style="edgeLabel;html=1;align=center;verticalAlign=middle;resizable=0;points=[];" vertex="1" connectable="0" parent="NjEQZNnnTkiGfQqc1ZRg-550">
          <mxGeometry x="-0.0814" y="-1" relative="1" as="geometry">
            <mxPoint as="offset" />
          </mxGeometry>
        </mxCell>
        <mxCell id="NjEQZNnnTkiGfQqc1ZRg-552" value="เปิด ?" style="rhombus;whiteSpace=wrap;html=1;rounded=1;" vertex="1" parent="1">
          <mxGeometry x="1167" y="937" width="80" height="80" as="geometry" />
        </mxCell>
        <mxCell id="NjEQZNnnTkiGfQqc1ZRg-553" style="edgeStyle=orthogonalEdgeStyle;rounded=0;orthogonalLoop=1;jettySize=auto;html=1;endArrow=none;endFill=0;" edge="1" parent="1" source="NjEQZNnnTkiGfQqc1ZRg-554">
          <mxGeometry relative="1" as="geometry">
            <mxPoint x="1420.5" y="2190" as="targetPoint" />
            <Array as="points">
              <mxPoint x="1630.5" y="977" />
            </Array>
          </mxGeometry>
        </mxCell>
        <mxCell id="NjEQZNnnTkiGfQqc1ZRg-554" value="requestProxy&lt;br&gt;AttorneyStatus&amp;nbsp;= &quot;C&quot;" style="whiteSpace=wrap;html=1;rounded=1;" vertex="1" parent="1">
          <mxGeometry x="1383" y="957" width="120" height="40" as="geometry" />
        </mxCell>
        <mxCell id="NjEQZNnnTkiGfQqc1ZRg-555" style="edgeStyle=orthogonalEdgeStyle;rounded=0;orthogonalLoop=1;jettySize=auto;html=1;endArrow=classic;endFill=1;" edge="1" parent="1" source="NjEQZNnnTkiGfQqc1ZRg-633" target="NjEQZNnnTkiGfQqc1ZRg-197">
          <mxGeometry relative="1" as="geometry">
            <Array as="points">
              <mxPoint x="1258" y="1930" />
              <mxPoint x="1421" y="1930" />
              <mxPoint x="1421" y="2190" />
              <mxPoint x="1420" y="2190" />
              <mxPoint x="1420" y="2370" />
            </Array>
            <mxPoint x="1342.5" y="2190" as="targetPoint" />
          </mxGeometry>
        </mxCell>
        <mxCell id="NjEQZNnnTkiGfQqc1ZRg-556" style="edgeStyle=orthogonalEdgeStyle;rounded=0;orthogonalLoop=1;jettySize=auto;html=1;entryX=0.5;entryY=0;entryDx=0;entryDy=0;endArrow=classic;endFill=1;" edge="1" parent="1" source="NjEQZNnnTkiGfQqc1ZRg-612" target="NjEQZNnnTkiGfQqc1ZRg-197">
          <mxGeometry relative="1" as="geometry">
            <mxPoint x="1154.5" y="2190" as="targetPoint" />
          </mxGeometry>
        </mxCell>
        <mxCell id="NjEQZNnnTkiGfQqc1ZRg-557" style="edgeStyle=orthogonalEdgeStyle;rounded=0;orthogonalLoop=1;jettySize=auto;html=1;endArrow=classic;endFill=1;entryX=0;entryY=0.5;entryDx=0;entryDy=0;" edge="1" parent="1" source="NjEQZNnnTkiGfQqc1ZRg-609" target="NjEQZNnnTkiGfQqc1ZRg-197">
          <mxGeometry relative="1" as="geometry">
            <mxPoint x="1140.5" y="2190" as="targetPoint" />
            <Array as="points">
              <mxPoint x="944" y="2370" />
            </Array>
          </mxGeometry>
        </mxCell>
        <mxCell id="NjEQZNnnTkiGfQqc1ZRg-558" style="edgeStyle=orthogonalEdgeStyle;rounded=0;orthogonalLoop=1;jettySize=auto;html=1;endArrow=none;endFill=0;" edge="1" parent="1">
          <mxGeometry relative="1" as="geometry">
            <mxPoint x="943.5" y="2190" as="targetPoint" />
            <mxPoint x="881.5" y="1628" as="sourcePoint" />
            <Array as="points">
              <mxPoint x="873.5" y="1628" />
              <mxPoint x="873.5" y="2190" />
            </Array>
          </mxGeometry>
        </mxCell>
        <mxCell id="NjEQZNnnTkiGfQqc1ZRg-559" value="ตรวจสอบวันที่ในการรับยื่นเอกสารแบบคำร้องมอบฉันทะให้กรรมการ โดยตรวจสอบว่า &lt;br&gt;วันที่ปัจจุบัน อยู่ในช่วง&lt;br&gt;วันที่เริ่มต้น - สิ้นสุด หรือไม่" style="whiteSpace=wrap;html=1;rounded=1;" vertex="1" parent="1">
          <mxGeometry x="1073.5" y="1070" width="247" height="60" as="geometry" />
        </mxCell>
        <mxCell id="NjEQZNnnTkiGfQqc1ZRg-560" value="อยู่ในช่วง ?" style="rhombus;whiteSpace=wrap;html=1;rounded=1;" vertex="1" parent="1">
          <mxGeometry x="1157" y="1170" width="80" height="80" as="geometry" />
        </mxCell>
        <mxCell id="NjEQZNnnTkiGfQqc1ZRg-561" value="" style="edgeStyle=orthogonalEdgeStyle;rounded=0;orthogonalLoop=1;jettySize=auto;html=1;endArrow=none;endFill=0;" edge="1" parent="1" source="NjEQZNnnTkiGfQqc1ZRg-559" target="NjEQZNnnTkiGfQqc1ZRg-560">
          <mxGeometry relative="1" as="geometry" />
        </mxCell>
        <mxCell id="NjEQZNnnTkiGfQqc1ZRg-562" value="วันที่ปัจจุบัน&amp;nbsp;&lt;br&gt;&amp;gt; วันที่สิ้นสุดการรับเอกสาร" style="rhombus;whiteSpace=wrap;html=1;rounded=1;" vertex="1" parent="1">
          <mxGeometry x="1296.5" y="1160" width="127" height="100" as="geometry" />
        </mxCell>
        <mxCell id="NjEQZNnnTkiGfQqc1ZRg-563" value="" style="edgeStyle=orthogonalEdgeStyle;rounded=0;orthogonalLoop=1;jettySize=auto;html=1;endArrow=classic;endFill=1;" edge="1" parent="1" source="NjEQZNnnTkiGfQqc1ZRg-560" target="NjEQZNnnTkiGfQqc1ZRg-562">
          <mxGeometry relative="1" as="geometry" />
        </mxCell>
        <mxCell id="NjEQZNnnTkiGfQqc1ZRg-564" value="ไม่ใช่" style="edgeLabel;html=1;align=center;verticalAlign=middle;resizable=0;points=[];" vertex="1" connectable="0" parent="NjEQZNnnTkiGfQqc1ZRg-563">
          <mxGeometry x="-0.1765" y="-3" relative="1" as="geometry">
            <mxPoint x="1" y="-3" as="offset" />
          </mxGeometry>
        </mxCell>
        <mxCell id="NjEQZNnnTkiGfQqc1ZRg-565" style="edgeStyle=orthogonalEdgeStyle;rounded=0;orthogonalLoop=1;jettySize=auto;html=1;endArrow=none;endFill=0;" edge="1" parent="1" source="NjEQZNnnTkiGfQqc1ZRg-566">
          <mxGeometry relative="1" as="geometry">
            <mxPoint x="1630.5" y="1210" as="targetPoint" />
          </mxGeometry>
        </mxCell>
        <mxCell id="NjEQZNnnTkiGfQqc1ZRg-566" value="requestProxy&lt;br&gt;AttorneyStatus&amp;nbsp;= &quot;C&quot;" style="whiteSpace=wrap;html=1;rounded=1;" vertex="1" parent="1">
          <mxGeometry x="1473.5" y="1190" width="120" height="40" as="geometry" />
        </mxCell>
        <mxCell id="NjEQZNnnTkiGfQqc1ZRg-567" value="" style="edgeStyle=orthogonalEdgeStyle;rounded=0;orthogonalLoop=1;jettySize=auto;html=1;endArrow=classic;endFill=1;" edge="1" parent="1" source="NjEQZNnnTkiGfQqc1ZRg-562" target="NjEQZNnnTkiGfQqc1ZRg-566">
          <mxGeometry relative="1" as="geometry" />
        </mxCell>
        <mxCell id="NjEQZNnnTkiGfQqc1ZRg-568" value="ใช่" style="edgeLabel;html=1;align=center;verticalAlign=middle;resizable=0;points=[];" vertex="1" connectable="0" parent="NjEQZNnnTkiGfQqc1ZRg-567">
          <mxGeometry x="-0.1927" y="-1" relative="1" as="geometry">
            <mxPoint as="offset" />
          </mxGeometry>
        </mxCell>
        <mxCell id="NjEQZNnnTkiGfQqc1ZRg-569" style="edgeStyle=orthogonalEdgeStyle;rounded=0;orthogonalLoop=1;jettySize=auto;html=1;endArrow=none;endFill=0;" edge="1" parent="1" source="NjEQZNnnTkiGfQqc1ZRg-570">
          <mxGeometry relative="1" as="geometry">
            <mxPoint x="1630.5" y="1340" as="targetPoint" />
          </mxGeometry>
        </mxCell>
        <mxCell id="NjEQZNnnTkiGfQqc1ZRg-570" value="requestProxy&lt;br&gt;AttorneyStatus&amp;nbsp;= &quot;N&quot;" style="whiteSpace=wrap;html=1;rounded=1;" vertex="1" parent="1">
          <mxGeometry x="1300" y="1320" width="120" height="40" as="geometry" />
        </mxCell>
        <mxCell id="NjEQZNnnTkiGfQqc1ZRg-571" value="" style="edgeStyle=orthogonalEdgeStyle;rounded=0;orthogonalLoop=1;jettySize=auto;html=1;endArrow=classic;endFill=1;" edge="1" parent="1" source="NjEQZNnnTkiGfQqc1ZRg-562" target="NjEQZNnnTkiGfQqc1ZRg-570">
          <mxGeometry relative="1" as="geometry" />
        </mxCell>
        <mxCell id="NjEQZNnnTkiGfQqc1ZRg-572" value="ไม่ใช่" style="edgeLabel;html=1;align=center;verticalAlign=middle;resizable=0;points=[];" vertex="1" connectable="0" parent="NjEQZNnnTkiGfQqc1ZRg-571">
          <mxGeometry x="-0.2691" relative="1" as="geometry">
            <mxPoint as="offset" />
          </mxGeometry>
        </mxCell>
        <mxCell id="NjEQZNnnTkiGfQqc1ZRg-573" value="วันที่ปัจจุบัน =&amp;nbsp;&lt;br&gt;วันที่เริ่มต้น&lt;br&gt;รับเอกสาร ?" style="rhombus;whiteSpace=wrap;html=1;rounded=1;" vertex="1" parent="1">
          <mxGeometry x="1133.75" y="1280" width="126.5" height="100" as="geometry" />
        </mxCell>
        <mxCell id="NjEQZNnnTkiGfQqc1ZRg-574" value="" style="edgeStyle=orthogonalEdgeStyle;rounded=0;orthogonalLoop=1;jettySize=auto;html=1;endArrow=classic;endFill=1;" edge="1" parent="1" source="NjEQZNnnTkiGfQqc1ZRg-560" target="NjEQZNnnTkiGfQqc1ZRg-573">
          <mxGeometry relative="1" as="geometry" />
        </mxCell>
        <mxCell id="NjEQZNnnTkiGfQqc1ZRg-575" value="ใช่" style="edgeLabel;html=1;align=center;verticalAlign=middle;resizable=0;points=[];" vertex="1" connectable="0" parent="NjEQZNnnTkiGfQqc1ZRg-574">
          <mxGeometry x="0.0764" y="2" relative="1" as="geometry">
            <mxPoint x="-5" y="-2" as="offset" />
          </mxGeometry>
        </mxCell>
        <mxCell id="NjEQZNnnTkiGfQqc1ZRg-576" value="เวลาปัจจุบัน &amp;gt;= &lt;br&gt;เวลาเริ่มต้นรับ&lt;br&gt;เอกสาร ?" style="rhombus;whiteSpace=wrap;html=1;rounded=1;" vertex="1" parent="1">
          <mxGeometry x="993.5" y="1360" width="130" height="90" as="geometry" />
        </mxCell>
        <mxCell id="NjEQZNnnTkiGfQqc1ZRg-577" value="" style="edgeStyle=orthogonalEdgeStyle;rounded=0;orthogonalLoop=1;jettySize=auto;html=1;endArrow=classic;endFill=1;" edge="1" parent="1" source="NjEQZNnnTkiGfQqc1ZRg-573" target="NjEQZNnnTkiGfQqc1ZRg-576">
          <mxGeometry relative="1" as="geometry">
            <Array as="points">
              <mxPoint x="1058.5" y="1340" />
            </Array>
          </mxGeometry>
        </mxCell>
        <mxCell id="NjEQZNnnTkiGfQqc1ZRg-578" value="ใช่" style="edgeLabel;html=1;align=center;verticalAlign=middle;resizable=0;points=[];" vertex="1" connectable="0" parent="NjEQZNnnTkiGfQqc1ZRg-577">
          <mxGeometry x="-0.1218" y="-2" relative="1" as="geometry">
            <mxPoint as="offset" />
          </mxGeometry>
        </mxCell>
        <mxCell id="NjEQZNnnTkiGfQqc1ZRg-579" value="เวลาปัจจุบัน &amp;lt;&lt;br&gt;เวลาเริ่มต้นรับ&lt;br&gt;เอกสาร ?" style="rhombus;whiteSpace=wrap;html=1;rounded=1;" vertex="1" parent="1">
          <mxGeometry x="927.75" y="1460" width="130" height="90" as="geometry" />
        </mxCell>
        <mxCell id="NjEQZNnnTkiGfQqc1ZRg-580" value="" style="edgeStyle=orthogonalEdgeStyle;rounded=0;orthogonalLoop=1;jettySize=auto;html=1;endArrow=classic;endFill=1;" edge="1" parent="1" source="NjEQZNnnTkiGfQqc1ZRg-576" target="NjEQZNnnTkiGfQqc1ZRg-579">
          <mxGeometry relative="1" as="geometry">
            <Array as="points">
              <mxPoint x="989.5" y="1405" />
            </Array>
          </mxGeometry>
        </mxCell>
        <mxCell id="NjEQZNnnTkiGfQqc1ZRg-581" value="ไม่ใช่" style="edgeLabel;html=1;align=center;verticalAlign=middle;resizable=0;points=[];" vertex="1" connectable="0" parent="NjEQZNnnTkiGfQqc1ZRg-580">
          <mxGeometry x="-0.3265" y="1" relative="1" as="geometry">
            <mxPoint y="9" as="offset" />
          </mxGeometry>
        </mxCell>
        <mxCell id="NjEQZNnnTkiGfQqc1ZRg-582" value="requestProxy&lt;br&gt;AttorneyStatus&amp;nbsp;= &quot;C&quot;" style="whiteSpace=wrap;html=1;rounded=1;" vertex="1" parent="1">
          <mxGeometry x="878.5" y="1613" width="125" height="30" as="geometry" />
        </mxCell>
        <mxCell id="NjEQZNnnTkiGfQqc1ZRg-583" value="" style="edgeStyle=orthogonalEdgeStyle;rounded=0;orthogonalLoop=1;jettySize=auto;html=1;endArrow=classic;endFill=1;" edge="1" parent="1" source="NjEQZNnnTkiGfQqc1ZRg-579" target="NjEQZNnnTkiGfQqc1ZRg-582">
          <mxGeometry relative="1" as="geometry">
            <Array as="points">
              <mxPoint x="903.5" y="1505" />
            </Array>
          </mxGeometry>
        </mxCell>
        <mxCell id="NjEQZNnnTkiGfQqc1ZRg-584" value="ไม่ใช่" style="edgeLabel;html=1;align=center;verticalAlign=middle;resizable=0;points=[];" vertex="1" connectable="0" parent="NjEQZNnnTkiGfQqc1ZRg-583">
          <mxGeometry x="0.0262" relative="1" as="geometry">
            <mxPoint y="16" as="offset" />
          </mxGeometry>
        </mxCell>
        <mxCell id="NjEQZNnnTkiGfQqc1ZRg-585" value="วันที่ปัจจุบัน =&amp;nbsp;&lt;br&gt;วันที่สิ้นสุดรับเอกสาร ?" style="rhombus;whiteSpace=wrap;html=1;rounded=1;" vertex="1" parent="1">
          <mxGeometry x="1247" y="1420" width="100" height="80" as="geometry" />
        </mxCell>
        <mxCell id="NjEQZNnnTkiGfQqc1ZRg-586" value="" style="edgeStyle=orthogonalEdgeStyle;rounded=0;orthogonalLoop=1;jettySize=auto;html=1;endArrow=classic;endFill=1;" edge="1" parent="1" source="NjEQZNnnTkiGfQqc1ZRg-573" target="NjEQZNnnTkiGfQqc1ZRg-585">
          <mxGeometry relative="1" as="geometry">
            <Array as="points">
              <mxPoint x="1197.5" y="1400" />
              <mxPoint x="1293.5" y="1400" />
            </Array>
          </mxGeometry>
        </mxCell>
        <mxCell id="NjEQZNnnTkiGfQqc1ZRg-587" value="ไม่ใช่" style="edgeLabel;html=1;align=center;verticalAlign=middle;resizable=0;points=[];" vertex="1" connectable="0" parent="NjEQZNnnTkiGfQqc1ZRg-586">
          <mxGeometry x="-0.0844" y="1" relative="1" as="geometry">
            <mxPoint as="offset" />
          </mxGeometry>
        </mxCell>
        <mxCell id="NjEQZNnnTkiGfQqc1ZRg-588" value="" style="edgeStyle=orthogonalEdgeStyle;rounded=0;orthogonalLoop=1;jettySize=auto;html=1;endArrow=classic;endFill=1;entryX=0;entryY=0.5;entryDx=0;entryDy=0;" edge="1" parent="1" source="NjEQZNnnTkiGfQqc1ZRg-585">
          <mxGeometry relative="1" as="geometry">
            <mxPoint x="1420.5" y="1460" as="targetPoint" />
            <Array as="points">
              <mxPoint x="1413.5" y="1460" />
              <mxPoint x="1413.5" y="1460" />
            </Array>
          </mxGeometry>
        </mxCell>
        <mxCell id="NjEQZNnnTkiGfQqc1ZRg-589" value="ไม่ใช่" style="edgeLabel;html=1;align=center;verticalAlign=middle;resizable=0;points=[];" vertex="1" connectable="0" parent="NjEQZNnnTkiGfQqc1ZRg-588">
          <mxGeometry x="-0.0923" y="1" relative="1" as="geometry">
            <mxPoint as="offset" />
          </mxGeometry>
        </mxCell>
        <mxCell id="NjEQZNnnTkiGfQqc1ZRg-590" style="edgeStyle=orthogonalEdgeStyle;rounded=0;orthogonalLoop=1;jettySize=auto;html=1;endArrow=none;endFill=0;" edge="1" parent="1">
          <mxGeometry relative="1" as="geometry">
            <mxPoint x="872.5" y="1690" as="targetPoint" />
            <Array as="points">
              <mxPoint x="1088.5" y="1690" />
            </Array>
            <mxPoint x="1089" y="1643" as="sourcePoint" />
          </mxGeometry>
        </mxCell>
        <mxCell id="NjEQZNnnTkiGfQqc1ZRg-591" value="requestProxy&lt;br&gt;AttorneyStatus&amp;nbsp;= &quot;N&quot;" style="whiteSpace=wrap;html=1;rounded=1;" vertex="1" parent="1">
          <mxGeometry x="1027" y="1613" width="120" height="30" as="geometry" />
        </mxCell>
        <mxCell id="NjEQZNnnTkiGfQqc1ZRg-592" value="" style="edgeStyle=orthogonalEdgeStyle;rounded=0;orthogonalLoop=1;jettySize=auto;html=1;endArrow=classic;endFill=1;exitX=0.985;exitY=0.5;exitDx=0;exitDy=0;exitPerimeter=0;" edge="1" parent="1" source="NjEQZNnnTkiGfQqc1ZRg-579" target="NjEQZNnnTkiGfQqc1ZRg-591">
          <mxGeometry relative="1" as="geometry">
            <Array as="points">
              <mxPoint x="1063.5" y="1505" />
            </Array>
          </mxGeometry>
        </mxCell>
        <mxCell id="NjEQZNnnTkiGfQqc1ZRg-593" value="ใช่" style="edgeLabel;html=1;align=center;verticalAlign=middle;resizable=0;points=[];" vertex="1" connectable="0" parent="NjEQZNnnTkiGfQqc1ZRg-592">
          <mxGeometry x="0.1915" relative="1" as="geometry">
            <mxPoint as="offset" />
          </mxGeometry>
        </mxCell>
        <mxCell id="NjEQZNnnTkiGfQqc1ZRg-594" value="เวลาปัจจุบัน&amp;nbsp;&lt;br&gt;&amp;lt;= เวลาสิ้นสุด&lt;br&gt;รับเอกสาร ?" style="rhombus;whiteSpace=wrap;html=1;rounded=1;" vertex="1" parent="1">
          <mxGeometry x="1420" y="1420" width="100" height="80" as="geometry" />
        </mxCell>
        <mxCell id="NjEQZNnnTkiGfQqc1ZRg-595" style="edgeStyle=orthogonalEdgeStyle;rounded=0;orthogonalLoop=1;jettySize=auto;html=1;endArrow=none;endFill=0;" edge="1" parent="1" source="NjEQZNnnTkiGfQqc1ZRg-596">
          <mxGeometry relative="1" as="geometry">
            <mxPoint x="1553.5" y="1610" as="targetPoint" />
            <Array as="points">
              <mxPoint x="1408.5" y="1610" />
            </Array>
          </mxGeometry>
        </mxCell>
        <mxCell id="NjEQZNnnTkiGfQqc1ZRg-596" value="requestProxy&lt;br&gt;AttorneyStatus&amp;nbsp;= &quot;C&quot;" style="whiteSpace=wrap;html=1;rounded=1;" vertex="1" parent="1">
          <mxGeometry x="1347" y="1550" width="123.5" height="30" as="geometry" />
        </mxCell>
        <mxCell id="NjEQZNnnTkiGfQqc1ZRg-597" value="" style="edgeStyle=orthogonalEdgeStyle;rounded=0;orthogonalLoop=1;jettySize=auto;html=1;endArrow=classic;endFill=1;" edge="1" parent="1" source="NjEQZNnnTkiGfQqc1ZRg-594" target="NjEQZNnnTkiGfQqc1ZRg-596">
          <mxGeometry relative="1" as="geometry" />
        </mxCell>
        <mxCell id="NjEQZNnnTkiGfQqc1ZRg-598" value="ไม่ใช่" style="edgeLabel;html=1;align=center;verticalAlign=middle;resizable=0;points=[];" vertex="1" connectable="0" parent="NjEQZNnnTkiGfQqc1ZRg-597">
          <mxGeometry x="-0.3552" y="-1" relative="1" as="geometry">
            <mxPoint x="-15" as="offset" />
          </mxGeometry>
        </mxCell>
        <mxCell id="NjEQZNnnTkiGfQqc1ZRg-599" style="edgeStyle=orthogonalEdgeStyle;rounded=0;orthogonalLoop=1;jettySize=auto;html=1;endArrow=none;endFill=0;" edge="1" parent="1">
          <mxGeometry relative="1" as="geometry">
            <mxPoint x="1630.5" y="1610" as="targetPoint" />
            <Array as="points">
              <mxPoint x="1546.5" y="1610" />
            </Array>
            <mxPoint x="1545.9814814814818" y="1580" as="sourcePoint" />
          </mxGeometry>
        </mxCell>
        <mxCell id="NjEQZNnnTkiGfQqc1ZRg-600" value="requestProxy&lt;br&gt;AttorneyStatus&amp;nbsp;= &quot;Y&quot;" style="whiteSpace=wrap;html=1;rounded=1;" vertex="1" parent="1">
          <mxGeometry x="1483.5" y="1550" width="131" height="30" as="geometry" />
        </mxCell>
        <mxCell id="NjEQZNnnTkiGfQqc1ZRg-601" value="" style="edgeStyle=orthogonalEdgeStyle;rounded=0;orthogonalLoop=1;jettySize=auto;html=1;endArrow=classic;endFill=1;entryX=0.5;entryY=0;entryDx=0;entryDy=0;" edge="1" parent="1" source="NjEQZNnnTkiGfQqc1ZRg-594" target="NjEQZNnnTkiGfQqc1ZRg-600">
          <mxGeometry relative="1" as="geometry">
            <Array as="points">
              <mxPoint x="1549.5" y="1460" />
            </Array>
          </mxGeometry>
        </mxCell>
        <mxCell id="NjEQZNnnTkiGfQqc1ZRg-602" value="ใช่" style="edgeLabel;html=1;align=center;verticalAlign=middle;resizable=0;points=[];" vertex="1" connectable="0" parent="NjEQZNnnTkiGfQqc1ZRg-601">
          <mxGeometry x="0.0378" relative="1" as="geometry">
            <mxPoint y="12" as="offset" />
          </mxGeometry>
        </mxCell>
        <mxCell id="NjEQZNnnTkiGfQqc1ZRg-603" value="วันที่ปัจจุบัน =&lt;br&gt;วันที่สิ้นสุด&lt;br&gt;รับเอกสาร ?" style="rhombus;whiteSpace=wrap;html=1;rounded=1;" vertex="1" parent="1">
          <mxGeometry x="1100.5" y="1690" width="130" height="100" as="geometry" />
        </mxCell>
        <mxCell id="NjEQZNnnTkiGfQqc1ZRg-604" value="" style="edgeStyle=orthogonalEdgeStyle;rounded=0;orthogonalLoop=1;jettySize=auto;html=1;endArrow=classic;endFill=1;" edge="1" parent="1" source="NjEQZNnnTkiGfQqc1ZRg-576" target="NjEQZNnnTkiGfQqc1ZRg-603">
          <mxGeometry relative="1" as="geometry">
            <Array as="points">
              <mxPoint x="1163.5" y="1405" />
            </Array>
          </mxGeometry>
        </mxCell>
        <mxCell id="NjEQZNnnTkiGfQqc1ZRg-605" value="ใช่" style="edgeLabel;html=1;align=center;verticalAlign=middle;resizable=0;points=[];" vertex="1" connectable="0" parent="NjEQZNnnTkiGfQqc1ZRg-604">
          <mxGeometry x="-0.1911" y="3" relative="1" as="geometry">
            <mxPoint x="-1" y="63" as="offset" />
          </mxGeometry>
        </mxCell>
        <mxCell id="NjEQZNnnTkiGfQqc1ZRg-606" value="เวลาปัจจุบัน &amp;lt;=&lt;br&gt;เวลาสิ้นสุดรับ&lt;br&gt;เอกสาร ?" style="rhombus;whiteSpace=wrap;html=1;rounded=1;" vertex="1" parent="1">
          <mxGeometry x="980.5" y="1890" width="130" height="100" as="geometry" />
        </mxCell>
        <mxCell id="NjEQZNnnTkiGfQqc1ZRg-607" value="" style="edgeStyle=orthogonalEdgeStyle;rounded=0;orthogonalLoop=1;jettySize=auto;html=1;endArrow=classic;endFill=1;" edge="1" parent="1" source="NjEQZNnnTkiGfQqc1ZRg-603" target="NjEQZNnnTkiGfQqc1ZRg-606">
          <mxGeometry relative="1" as="geometry" />
        </mxCell>
        <mxCell id="NjEQZNnnTkiGfQqc1ZRg-608" value="ไม่ใช่" style="edgeLabel;html=1;align=center;verticalAlign=middle;resizable=0;points=[];" vertex="1" connectable="0" parent="NjEQZNnnTkiGfQqc1ZRg-607">
          <mxGeometry x="0.0154" y="-2" relative="1" as="geometry">
            <mxPoint x="1" as="offset" />
          </mxGeometry>
        </mxCell>
        <mxCell id="NjEQZNnnTkiGfQqc1ZRg-609" value="requestProxy&lt;br&gt;AttorneyStatus&amp;nbsp;= &quot;Y&quot;" style="whiteSpace=wrap;html=1;rounded=1;" vertex="1" parent="1">
          <mxGeometry x="883.5" y="2050" width="120" height="60" as="geometry" />
        </mxCell>
        <mxCell id="NjEQZNnnTkiGfQqc1ZRg-610" value="" style="edgeStyle=orthogonalEdgeStyle;rounded=0;orthogonalLoop=1;jettySize=auto;html=1;endArrow=classic;endFill=1;" edge="1" parent="1" source="NjEQZNnnTkiGfQqc1ZRg-606" target="NjEQZNnnTkiGfQqc1ZRg-609">
          <mxGeometry relative="1" as="geometry">
            <Array as="points">
              <mxPoint x="943.5" y="1940" />
            </Array>
          </mxGeometry>
        </mxCell>
        <mxCell id="NjEQZNnnTkiGfQqc1ZRg-611" value="ใช่" style="edgeLabel;html=1;align=center;verticalAlign=middle;resizable=0;points=[];" vertex="1" connectable="0" parent="NjEQZNnnTkiGfQqc1ZRg-610">
          <mxGeometry x="0.2678" y="-3" relative="1" as="geometry">
            <mxPoint x="3" y="11" as="offset" />
          </mxGeometry>
        </mxCell>
        <mxCell id="NjEQZNnnTkiGfQqc1ZRg-612" value="requestProxy&lt;br&gt;AttorneyStatus&amp;nbsp;= &quot;C&quot;" style="whiteSpace=wrap;html=1;rounded=1;" vertex="1" parent="1">
          <mxGeometry x="1083.5" y="2050" width="120" height="60" as="geometry" />
        </mxCell>
        <mxCell id="NjEQZNnnTkiGfQqc1ZRg-613" value="" style="edgeStyle=orthogonalEdgeStyle;rounded=0;orthogonalLoop=1;jettySize=auto;html=1;endArrow=classic;endFill=1;" edge="1" parent="1" source="NjEQZNnnTkiGfQqc1ZRg-606" target="NjEQZNnnTkiGfQqc1ZRg-612">
          <mxGeometry relative="1" as="geometry">
            <Array as="points">
              <mxPoint x="1143.5" y="1940" />
            </Array>
          </mxGeometry>
        </mxCell>
        <mxCell id="NjEQZNnnTkiGfQqc1ZRg-614" value="ไม่ใช่" style="edgeLabel;html=1;align=center;verticalAlign=middle;resizable=0;points=[];" vertex="1" connectable="0" parent="NjEQZNnnTkiGfQqc1ZRg-613">
          <mxGeometry x="0.3073" y="-1" relative="1" as="geometry">
            <mxPoint as="offset" />
          </mxGeometry>
        </mxCell>
        <mxCell id="NjEQZNnnTkiGfQqc1ZRg-615" style="edgeStyle=orthogonalEdgeStyle;rounded=0;orthogonalLoop=1;jettySize=auto;html=1;endArrow=none;endFill=0;" edge="1" parent="1">
          <mxGeometry relative="1" as="geometry">
            <mxPoint x="873.5" y="1740" as="targetPoint" />
            <mxPoint x="910" y="1740" as="sourcePoint" />
          </mxGeometry>
        </mxCell>
        <mxCell id="NjEQZNnnTkiGfQqc1ZRg-616" value="requestProxy&lt;br&gt;AttorneyStatus&amp;nbsp;= &quot;Y&quot;" style="whiteSpace=wrap;html=1;rounded=1;" vertex="1" parent="1">
          <mxGeometry x="907" y="1710" width="120" height="60" as="geometry" />
        </mxCell>
        <mxCell id="NjEQZNnnTkiGfQqc1ZRg-617" value="" style="edgeStyle=orthogonalEdgeStyle;rounded=0;orthogonalLoop=1;jettySize=auto;html=1;endArrow=classic;endFill=1;exitX=0;exitY=0.5;exitDx=0;exitDy=0;" edge="1" parent="1" source="NjEQZNnnTkiGfQqc1ZRg-603" target="NjEQZNnnTkiGfQqc1ZRg-616">
          <mxGeometry relative="1" as="geometry">
            <mxPoint x="1063.5" y="1740" as="sourcePoint" />
            <Array as="points" />
          </mxGeometry>
        </mxCell>
        <mxCell id="NjEQZNnnTkiGfQqc1ZRg-618" value="ไม่ใช่" style="edgeLabel;html=1;align=center;verticalAlign=middle;resizable=0;points=[];" vertex="1" connectable="0" parent="NjEQZNnnTkiGfQqc1ZRg-617">
          <mxGeometry x="-0.1771" y="-2" relative="1" as="geometry">
            <mxPoint as="offset" />
          </mxGeometry>
        </mxCell>
        <mxCell id="NjEQZNnnTkiGfQqc1ZRg-619" value="เวลาปัจจุบันอยู่ในช่วงเวลาเริ่มต้น - สิ้นสุดการรับเอกสารหรือไม่ ?&amp;nbsp;" style="whiteSpace=wrap;html=1;rounded=1;" vertex="1" parent="1">
          <mxGeometry x="1203.5" y="1550" width="120" height="60" as="geometry" />
        </mxCell>
        <mxCell id="NjEQZNnnTkiGfQqc1ZRg-620" value="" style="edgeStyle=orthogonalEdgeStyle;rounded=0;orthogonalLoop=1;jettySize=auto;html=1;endArrow=classic;endFill=1;" edge="1" parent="1" source="NjEQZNnnTkiGfQqc1ZRg-585" target="NjEQZNnnTkiGfQqc1ZRg-619">
          <mxGeometry relative="1" as="geometry" />
        </mxCell>
        <mxCell id="NjEQZNnnTkiGfQqc1ZRg-621" value="อยู่ในช่วง" style="rhombus;whiteSpace=wrap;html=1;rounded=1;" vertex="1" parent="1">
          <mxGeometry x="1247" y="1660" width="80" height="80" as="geometry" />
        </mxCell>
        <mxCell id="NjEQZNnnTkiGfQqc1ZRg-622" value="" style="edgeStyle=orthogonalEdgeStyle;rounded=0;orthogonalLoop=1;jettySize=auto;html=1;endArrow=classic;endFill=1;" edge="1" parent="1" source="NjEQZNnnTkiGfQqc1ZRg-619" target="NjEQZNnnTkiGfQqc1ZRg-621">
          <mxGeometry relative="1" as="geometry" />
        </mxCell>
        <mxCell id="NjEQZNnnTkiGfQqc1ZRg-623" value="เวลาปัจจุบัน&lt;br&gt;&amp;nbsp;&amp;lt; เวลาเริ่มต้นรับเอกสาร ?" style="rhombus;whiteSpace=wrap;html=1;rounded=1;" vertex="1" parent="1">
          <mxGeometry x="1371" y="1640" width="114" height="120" as="geometry" />
        </mxCell>
        <mxCell id="NjEQZNnnTkiGfQqc1ZRg-624" value="" style="edgeStyle=orthogonalEdgeStyle;rounded=0;orthogonalLoop=1;jettySize=auto;html=1;endArrow=classic;endFill=1;" edge="1" parent="1" source="NjEQZNnnTkiGfQqc1ZRg-621" target="NjEQZNnnTkiGfQqc1ZRg-623">
          <mxGeometry relative="1" as="geometry" />
        </mxCell>
        <mxCell id="NjEQZNnnTkiGfQqc1ZRg-625" style="edgeStyle=orthogonalEdgeStyle;rounded=0;orthogonalLoop=1;jettySize=auto;html=1;endArrow=none;endFill=0;" edge="1" parent="1" source="NjEQZNnnTkiGfQqc1ZRg-626">
          <mxGeometry relative="1" as="geometry">
            <mxPoint x="1423.5" y="1930" as="targetPoint" />
            <Array as="points">
              <mxPoint x="1563.5" y="1930" />
            </Array>
          </mxGeometry>
        </mxCell>
        <mxCell id="NjEQZNnnTkiGfQqc1ZRg-626" value="requestProxy&lt;br&gt;AttorneyStatus&amp;nbsp;= &quot;N&quot;" style="whiteSpace=wrap;html=1;rounded=1;" vertex="1" parent="1">
          <mxGeometry x="1490" y="1810" width="134" height="40" as="geometry" />
        </mxCell>
        <mxCell id="NjEQZNnnTkiGfQqc1ZRg-627" value="" style="edgeStyle=orthogonalEdgeStyle;rounded=0;orthogonalLoop=1;jettySize=auto;html=1;endArrow=classic;endFill=1;" edge="1" parent="1" source="NjEQZNnnTkiGfQqc1ZRg-623" target="NjEQZNnnTkiGfQqc1ZRg-626">
          <mxGeometry relative="1" as="geometry">
            <Array as="points">
              <mxPoint x="1563.5" y="1700" />
            </Array>
          </mxGeometry>
        </mxCell>
        <mxCell id="NjEQZNnnTkiGfQqc1ZRg-628" value="ใช่" style="edgeLabel;html=1;align=center;verticalAlign=middle;resizable=0;points=[];" vertex="1" connectable="0" parent="NjEQZNnnTkiGfQqc1ZRg-627">
          <mxGeometry x="-0.0909" y="2" relative="1" as="geometry">
            <mxPoint x="-4" y="43" as="offset" />
          </mxGeometry>
        </mxCell>
        <mxCell id="NjEQZNnnTkiGfQqc1ZRg-629" style="edgeStyle=orthogonalEdgeStyle;rounded=0;orthogonalLoop=1;jettySize=auto;html=1;endArrow=none;endFill=0;exitX=0.5;exitY=1;exitDx=0;exitDy=0;" edge="1" parent="1" source="NjEQZNnnTkiGfQqc1ZRg-630">
          <mxGeometry relative="1" as="geometry">
            <mxPoint x="1423.5" y="1930" as="targetPoint" />
            <Array as="points">
              <mxPoint x="1420.5" y="1850" />
              <mxPoint x="1420.5" y="1930" />
            </Array>
          </mxGeometry>
        </mxCell>
        <mxCell id="NjEQZNnnTkiGfQqc1ZRg-630" value="requestProxy&lt;br&gt;AttorneyStatus&amp;nbsp;= &quot;C&quot;" style="whiteSpace=wrap;html=1;rounded=1;" vertex="1" parent="1">
          <mxGeometry x="1343.75" y="1810" width="130" height="40" as="geometry" />
        </mxCell>
        <mxCell id="NjEQZNnnTkiGfQqc1ZRg-631" value="" style="edgeStyle=orthogonalEdgeStyle;rounded=0;orthogonalLoop=1;jettySize=auto;html=1;endArrow=classic;endFill=1;exitX=0.5;exitY=1;exitDx=0;exitDy=0;" edge="1" parent="1" source="NjEQZNnnTkiGfQqc1ZRg-623" target="NjEQZNnnTkiGfQqc1ZRg-630">
          <mxGeometry relative="1" as="geometry">
            <Array as="points">
              <mxPoint x="1428.5" y="1785" />
              <mxPoint x="1428.5" y="1785" />
            </Array>
          </mxGeometry>
        </mxCell>
        <mxCell id="NjEQZNnnTkiGfQqc1ZRg-632" value="ไม่ใช่" style="edgeLabel;html=1;align=center;verticalAlign=middle;resizable=0;points=[];" vertex="1" connectable="0" parent="NjEQZNnnTkiGfQqc1ZRg-631">
          <mxGeometry x="-0.0539" y="1" relative="1" as="geometry">
            <mxPoint x="-1" y="-3" as="offset" />
          </mxGeometry>
        </mxCell>
        <mxCell id="NjEQZNnnTkiGfQqc1ZRg-633" value="&lt;span style=&quot;color: rgb(0, 0, 0); font-family: Helvetica; font-size: 12px; font-style: normal; font-variant-ligatures: normal; font-variant-caps: normal; font-weight: 400; letter-spacing: normal; orphans: 2; text-align: center; text-indent: 0px; text-transform: none; widows: 2; word-spacing: 0px; -webkit-text-stroke-width: 0px; background-color: rgb(248, 249, 250); text-decoration-thickness: initial; text-decoration-style: initial; text-decoration-color: initial; float: none; display: inline !important;&quot;&gt;requestProxy&lt;br&gt;AttorneyStatus&amp;nbsp;= &quot;Y&quot;&lt;/span&gt;" style="whiteSpace=wrap;html=1;rounded=1;" vertex="1" parent="1">
          <mxGeometry x="1200" y="1810" width="116.5" height="40" as="geometry" />
        </mxCell>
        <mxCell id="NjEQZNnnTkiGfQqc1ZRg-634" value="" style="edgeStyle=orthogonalEdgeStyle;rounded=0;orthogonalLoop=1;jettySize=auto;html=1;endArrow=classic;endFill=1;" edge="1" parent="1" source="NjEQZNnnTkiGfQqc1ZRg-621" target="NjEQZNnnTkiGfQqc1ZRg-633">
          <mxGeometry relative="1" as="geometry" />
        </mxCell>
        <mxCell id="NjEQZNnnTkiGfQqc1ZRg-635" value="ใช่" style="edgeLabel;html=1;align=center;verticalAlign=middle;resizable=0;points=[];" vertex="1" connectable="0" parent="NjEQZNnnTkiGfQqc1ZRg-634">
          <mxGeometry x="-0.2153" y="-1" relative="1" as="geometry">
            <mxPoint x="4" y="-14" as="offset" />
          </mxGeometry>
        </mxCell>
        <mxCell id="NjEQZNnnTkiGfQqc1ZRg-636" value="" style="edgeStyle=orthogonalEdgeStyle;rounded=0;orthogonalLoop=1;jettySize=auto;html=1;endArrow=classic;endFill=1;" edge="1" parent="1" source="NjEQZNnnTkiGfQqc1ZRg-549" target="NjEQZNnnTkiGfQqc1ZRg-552">
          <mxGeometry relative="1" as="geometry" />
        </mxCell>
        <mxCell id="NjEQZNnnTkiGfQqc1ZRg-637" style="edgeStyle=orthogonalEdgeStyle;rounded=0;orthogonalLoop=1;jettySize=auto;html=1;endArrow=none;endFill=0;entryX=0;entryY=0.5;entryDx=0;entryDy=0;" edge="1" parent="1" source="NjEQZNnnTkiGfQqc1ZRg-552" target="NjEQZNnnTkiGfQqc1ZRg-554">
          <mxGeometry relative="1" as="geometry">
            <mxPoint x="1650.5" y="977" as="targetPoint" />
          </mxGeometry>
        </mxCell>
        <mxCell id="NjEQZNnnTkiGfQqc1ZRg-638" value="ไม่ใช่" style="edgeLabel;html=1;align=center;verticalAlign=middle;resizable=0;points=[];" vertex="1" connectable="0" parent="NjEQZNnnTkiGfQqc1ZRg-637">
          <mxGeometry x="0.0214" relative="1" as="geometry">
            <mxPoint x="-5" as="offset" />
          </mxGeometry>
        </mxCell>
        <mxCell id="NjEQZNnnTkiGfQqc1ZRg-504" style="edgeStyle=orthogonalEdgeStyle;rounded=0;orthogonalLoop=1;jettySize=auto;html=1;endArrow=classic;endFill=1;exitX=1;exitY=0.5;exitDx=0;exitDy=0;" edge="1" parent="1" source="NjEQZNnnTkiGfQqc1ZRg-505" target="NjEQZNnnTkiGfQqc1ZRg-549">
          <mxGeometry relative="1" as="geometry">
            <Array as="points">
              <mxPoint x="1234" y="619" />
              <mxPoint x="1234" y="744" />
              <mxPoint x="1197" y="744" />
            </Array>
            <mxPoint x="1197.5" y="839" as="targetPoint" />
          </mxGeometry>
        </mxCell>
      </root>
    </mxGraphModel>
  </diagram>
  <diagram id="fB3Fz5HJtCStyB_6Qw2y" name="หน้า-2">
    <mxGraphModel dx="2593" dy="1340" grid="1" gridSize="10" guides="1" tooltips="1" connect="1" arrows="1" fold="1" page="1" pageScale="1" pageWidth="827" pageHeight="1169" math="0" shadow="0">
      <root>
        <mxCell id="0" />
        <mxCell id="1" parent="0" />
        <mxCell id="Q4j835Vxl0gf2T9_gQ0k-2" value="ค้นหาข้อมูลใน Table Request Temp ที่ verifyToken ตรงกัน" style="rounded=1;whiteSpace=wrap;html=1;" vertex="1" parent="1">
          <mxGeometry x="344" y="110" width="120" height="60" as="geometry" />
        </mxCell>
        <mxCell id="Q4j835Vxl0gf2T9_gQ0k-3" value="มีข้อมูล" style="rhombus;whiteSpace=wrap;html=1;rounded=1;" vertex="1" parent="1">
          <mxGeometry x="364" y="214" width="80" height="80" as="geometry" />
        </mxCell>
        <mxCell id="Q4j835Vxl0gf2T9_gQ0k-4" value="" style="edgeStyle=orthogonalEdgeStyle;rounded=0;orthogonalLoop=1;jettySize=auto;html=1;" edge="1" parent="1" source="Q4j835Vxl0gf2T9_gQ0k-2" target="Q4j835Vxl0gf2T9_gQ0k-3">
          <mxGeometry relative="1" as="geometry" />
        </mxCell>
        <mxCell id="JQ-mXFVfwS_rQCFEfg94-2" style="edgeStyle=orthogonalEdgeStyle;rounded=0;orthogonalLoop=1;jettySize=auto;html=1;endArrow=none;endFill=0;" edge="1" parent="1" source="Q4j835Vxl0gf2T9_gQ0k-5">
          <mxGeometry relative="1" as="geometry">
            <mxPoint x="730" y="1152.1052631578948" as="targetPoint" />
          </mxGeometry>
        </mxCell>
        <mxCell id="Q4j835Vxl0gf2T9_gQ0k-5" value="ส่ง Error Code 3&amp;nbsp;&amp;nbsp;&lt;br&gt;รหัสยืนยันตัวตนไม่ถูกต้อง" style="whiteSpace=wrap;html=1;rounded=1;" vertex="1" parent="1">
          <mxGeometry x="534" y="236.5" width="160" height="35" as="geometry" />
        </mxCell>
        <mxCell id="Q4j835Vxl0gf2T9_gQ0k-6" value="" style="edgeStyle=orthogonalEdgeStyle;rounded=0;orthogonalLoop=1;jettySize=auto;html=1;" edge="1" parent="1" source="Q4j835Vxl0gf2T9_gQ0k-3" target="Q4j835Vxl0gf2T9_gQ0k-5">
          <mxGeometry relative="1" as="geometry" />
        </mxCell>
        <mxCell id="Q4j835Vxl0gf2T9_gQ0k-7" value="ตรวจสอบไฟลแนบ" style="whiteSpace=wrap;html=1;rounded=1;" vertex="1" parent="1">
          <mxGeometry x="344" y="354" width="120" height="60" as="geometry" />
        </mxCell>
        <mxCell id="Q4j835Vxl0gf2T9_gQ0k-8" value="" style="edgeStyle=orthogonalEdgeStyle;rounded=0;orthogonalLoop=1;jettySize=auto;html=1;" edge="1" parent="1" source="Q4j835Vxl0gf2T9_gQ0k-3" target="Q4j835Vxl0gf2T9_gQ0k-7">
          <mxGeometry relative="1" as="geometry" />
        </mxCell>
        <mxCell id="Q4j835Vxl0gf2T9_gQ0k-9" value="ใช่" style="text;html=1;align=center;verticalAlign=middle;resizable=0;points=[];autosize=1;strokeColor=none;fillColor=none;" vertex="1" parent="1">
          <mxGeometry x="364" y="309" width="40" height="30" as="geometry" />
        </mxCell>
        <mxCell id="Q4j835Vxl0gf2T9_gQ0k-10" value="ไม่ใช่" style="text;html=1;align=center;verticalAlign=middle;resizable=0;points=[];autosize=1;strokeColor=none;fillColor=none;" vertex="1" parent="1">
          <mxGeometry x="434" y="220" width="50" height="30" as="geometry" />
        </mxCell>
        <mxCell id="Q4j835Vxl0gf2T9_gQ0k-11" value="มีข้อมูล" style="rhombus;whiteSpace=wrap;html=1;rounded=1;" vertex="1" parent="1">
          <mxGeometry x="364" y="454" width="80" height="80" as="geometry" />
        </mxCell>
        <mxCell id="Q4j835Vxl0gf2T9_gQ0k-12" value="" style="edgeStyle=orthogonalEdgeStyle;rounded=0;orthogonalLoop=1;jettySize=auto;html=1;" edge="1" parent="1" source="Q4j835Vxl0gf2T9_gQ0k-7" target="Q4j835Vxl0gf2T9_gQ0k-11">
          <mxGeometry relative="1" as="geometry" />
        </mxCell>
        <mxCell id="Q4j835Vxl0gf2T9_gQ0k-13" value="ไม่ใช่" style="text;html=1;align=center;verticalAlign=middle;resizable=0;points=[];autosize=1;strokeColor=none;fillColor=none;" vertex="1" parent="1">
          <mxGeometry x="304" y="454" width="50" height="30" as="geometry" />
        </mxCell>
        <mxCell id="Q4j835Vxl0gf2T9_gQ0k-14" value="ใช่" style="text;html=1;align=center;verticalAlign=middle;resizable=0;points=[];autosize=1;strokeColor=none;fillColor=none;" vertex="1" parent="1">
          <mxGeometry x="354" y="519" width="40" height="30" as="geometry" />
        </mxCell>
        <mxCell id="Q4j835Vxl0gf2T9_gQ0k-15" value="อัปโหลดไฟลแนบ" style="whiteSpace=wrap;html=1;rounded=1;" vertex="1" parent="1">
          <mxGeometry x="344" y="574" width="120" height="60" as="geometry" />
        </mxCell>
        <mxCell id="Q4j835Vxl0gf2T9_gQ0k-16" value="" style="edgeStyle=orthogonalEdgeStyle;rounded=0;orthogonalLoop=1;jettySize=auto;html=1;" edge="1" parent="1" source="Q4j835Vxl0gf2T9_gQ0k-11" target="Q4j835Vxl0gf2T9_gQ0k-15">
          <mxGeometry relative="1" as="geometry" />
        </mxCell>
        <mxCell id="Q4j835Vxl0gf2T9_gQ0k-17" value="สำเร็จ" style="rhombus;whiteSpace=wrap;html=1;rounded=1;" vertex="1" parent="1">
          <mxGeometry x="364" y="674" width="80" height="80" as="geometry" />
        </mxCell>
        <mxCell id="Q4j835Vxl0gf2T9_gQ0k-18" value="" style="edgeStyle=orthogonalEdgeStyle;rounded=0;orthogonalLoop=1;jettySize=auto;html=1;" edge="1" parent="1" source="Q4j835Vxl0gf2T9_gQ0k-15" target="Q4j835Vxl0gf2T9_gQ0k-17">
          <mxGeometry relative="1" as="geometry" />
        </mxCell>
        <mxCell id="Q4j835Vxl0gf2T9_gQ0k-19" value="ตรวจสอบว่ามีไฟลอีกหรือไม่" style="whiteSpace=wrap;html=1;rounded=1;" vertex="1" parent="1">
          <mxGeometry x="344" y="784" width="120" height="60" as="geometry" />
        </mxCell>
        <mxCell id="Q4j835Vxl0gf2T9_gQ0k-20" value="" style="edgeStyle=orthogonalEdgeStyle;rounded=0;orthogonalLoop=1;jettySize=auto;html=1;" edge="1" parent="1" source="Q4j835Vxl0gf2T9_gQ0k-17" target="Q4j835Vxl0gf2T9_gQ0k-19">
          <mxGeometry relative="1" as="geometry" />
        </mxCell>
        <mxCell id="Q4j835Vxl0gf2T9_gQ0k-21" style="edgeStyle=orthogonalEdgeStyle;rounded=0;orthogonalLoop=1;jettySize=auto;html=1;endArrow=classic;endFill=1;entryX=1;entryY=0.5;entryDx=0;entryDy=0;" edge="1" parent="1" source="Q4j835Vxl0gf2T9_gQ0k-22" target="Q4j835Vxl0gf2T9_gQ0k-15">
          <mxGeometry relative="1" as="geometry">
            <mxPoint x="489" y="495" as="targetPoint" />
            <Array as="points">
              <mxPoint x="484" y="914" />
              <mxPoint x="484" y="604" />
            </Array>
          </mxGeometry>
        </mxCell>
        <mxCell id="Q4j835Vxl0gf2T9_gQ0k-22" value="มีข้อมูล" style="rhombus;whiteSpace=wrap;html=1;rounded=1;" vertex="1" parent="1">
          <mxGeometry x="370.8800000000001" y="874" width="80" height="80" as="geometry" />
        </mxCell>
        <mxCell id="Q4j835Vxl0gf2T9_gQ0k-23" value="" style="edgeStyle=orthogonalEdgeStyle;rounded=0;orthogonalLoop=1;jettySize=auto;html=1;" edge="1" parent="1" source="Q4j835Vxl0gf2T9_gQ0k-19" target="Q4j835Vxl0gf2T9_gQ0k-22">
          <mxGeometry relative="1" as="geometry" />
        </mxCell>
        <mxCell id="Q4j835Vxl0gf2T9_gQ0k-24" value="ส่ง Error Code 1&amp;nbsp;&amp;nbsp;&lt;br&gt;ไม่สามารถอัพโหลดเอกสารแนบได้" style="rounded=1;whiteSpace=wrap;html=1;" vertex="1" parent="1">
          <mxGeometry x="174" y="684" width="120" height="60" as="geometry" />
        </mxCell>
        <mxCell id="Q4j835Vxl0gf2T9_gQ0k-25" style="edgeStyle=orthogonalEdgeStyle;rounded=0;orthogonalLoop=1;jettySize=auto;html=1;" edge="1" parent="1" source="Q4j835Vxl0gf2T9_gQ0k-17" target="Q4j835Vxl0gf2T9_gQ0k-24">
          <mxGeometry relative="1" as="geometry">
            <mxPoint x="494" y="714" as="targetPoint" />
          </mxGeometry>
        </mxCell>
        <mxCell id="Q4j835Vxl0gf2T9_gQ0k-26" value="ใช่" style="text;html=1;align=center;verticalAlign=middle;resizable=0;points=[];autosize=1;strokeColor=none;fillColor=none;" vertex="1" parent="1">
          <mxGeometry x="429" y="874" width="40" height="30" as="geometry" />
        </mxCell>
        <mxCell id="Q4j835Vxl0gf2T9_gQ0k-27" value="ใช่" style="text;html=1;align=center;verticalAlign=middle;resizable=0;points=[];autosize=1;strokeColor=none;fillColor=none;" vertex="1" parent="1">
          <mxGeometry x="404" y="739" width="40" height="30" as="geometry" />
        </mxCell>
        <mxCell id="Q4j835Vxl0gf2T9_gQ0k-28" value="ไม่ใช่" style="text;html=1;align=center;verticalAlign=middle;resizable=0;points=[];autosize=1;strokeColor=none;fillColor=none;" vertex="1" parent="1">
          <mxGeometry x="329" y="679" width="50" height="30" as="geometry" />
        </mxCell>
        <mxCell id="Q4j835Vxl0gf2T9_gQ0k-29" value="" style="edgeStyle=orthogonalEdgeStyle;rounded=0;orthogonalLoop=1;jettySize=auto;html=1;" edge="1" parent="1" source="Q4j835Vxl0gf2T9_gQ0k-30" target="Q4j835Vxl0gf2T9_gQ0k-2">
          <mxGeometry relative="1" as="geometry" />
        </mxCell>
        <mxCell id="Q4j835Vxl0gf2T9_gQ0k-30" value="เริ่มต้น" style="ellipse;whiteSpace=wrap;html=1;" vertex="1" parent="1">
          <mxGeometry x="374" y="40" width="60" height="40" as="geometry" />
        </mxCell>
        <mxCell id="Q4j835Vxl0gf2T9_gQ0k-31" style="edgeStyle=orthogonalEdgeStyle;rounded=0;orthogonalLoop=1;jettySize=auto;html=1;exitX=0.5;exitY=1;exitDx=0;exitDy=0;endArrow=classic;endFill=1;entryX=0;entryY=0.5;entryDx=0;entryDy=0;" edge="1" parent="1" source="Q4j835Vxl0gf2T9_gQ0k-22" target="JQ-mXFVfwS_rQCFEfg94-3">
          <mxGeometry relative="1" as="geometry">
            <mxPoint x="484" y="495" as="targetPoint" />
          </mxGeometry>
        </mxCell>
        <mxCell id="Q4j835Vxl0gf2T9_gQ0k-32" value="" style="ellipse;whiteSpace=wrap;html=1;aspect=fixed;" vertex="1" parent="1">
          <mxGeometry x="389.63" y="2240" width="30" height="30" as="geometry" />
        </mxCell>
        <mxCell id="Q4j835Vxl0gf2T9_gQ0k-33" style="edgeStyle=orthogonalEdgeStyle;rounded=0;orthogonalLoop=1;jettySize=auto;html=1;" edge="1" parent="1" source="Q4j835Vxl0gf2T9_gQ0k-24" target="Q4j835Vxl0gf2T9_gQ0k-32">
          <mxGeometry relative="1" as="geometry">
            <mxPoint x="80" y="810" as="targetPoint" />
            <Array as="points">
              <mxPoint x="104" y="714" />
              <mxPoint x="104" y="2260" />
            </Array>
          </mxGeometry>
        </mxCell>
        <mxCell id="Q4j835Vxl0gf2T9_gQ0k-34" value="สิ้นสุด" style="ellipse;whiteSpace=wrap;html=1;" vertex="1" parent="1">
          <mxGeometry x="364" y="2290" width="80" height="30" as="geometry" />
        </mxCell>
        <mxCell id="Q4j835Vxl0gf2T9_gQ0k-35" value="" style="edgeStyle=orthogonalEdgeStyle;rounded=0;orthogonalLoop=1;jettySize=auto;html=1;" edge="1" parent="1" source="Q4j835Vxl0gf2T9_gQ0k-32" target="Q4j835Vxl0gf2T9_gQ0k-34">
          <mxGeometry relative="1" as="geometry" />
        </mxCell>
        <mxCell id="Q4j835Vxl0gf2T9_gQ0k-36" style="edgeStyle=orthogonalEdgeStyle;rounded=0;orthogonalLoop=1;jettySize=auto;html=1;endArrow=none;endFill=0;" edge="1" parent="1" source="Q4j835Vxl0gf2T9_gQ0k-37">
          <mxGeometry relative="1" as="geometry">
            <mxPoint x="104" y="720" as="targetPoint" />
          </mxGeometry>
        </mxCell>
        <mxCell id="Q4j835Vxl0gf2T9_gQ0k-37" value="ส่ง Error Code 7&amp;nbsp;&amp;nbsp;&lt;br&gt;ไม่พบเอกสารไฟลแนบ" style="rounded=1;whiteSpace=wrap;html=1;" vertex="1" parent="1">
          <mxGeometry x="164" y="464" width="120" height="60" as="geometry" />
        </mxCell>
        <mxCell id="Q4j835Vxl0gf2T9_gQ0k-38" style="edgeStyle=orthogonalEdgeStyle;rounded=0;orthogonalLoop=1;jettySize=auto;html=1;endArrow=none;endFill=0;" edge="1" parent="1">
          <mxGeometry relative="1" as="geometry">
            <mxPoint x="730" y="1440" as="targetPoint" />
            <mxPoint x="703.3800000000001" y="1124.0169491525423" as="sourcePoint" />
            <Array as="points">
              <mxPoint x="730" y="1124" />
              <mxPoint x="730" y="1450" />
            </Array>
          </mxGeometry>
        </mxCell>
        <mxCell id="Q4j835Vxl0gf2T9_gQ0k-39" style="edgeStyle=orthogonalEdgeStyle;rounded=0;orthogonalLoop=1;jettySize=auto;html=1;endArrow=classic;endFill=1;" edge="1" parent="1" source="Q4j835Vxl0gf2T9_gQ0k-40">
          <mxGeometry relative="1" as="geometry">
            <mxPoint x="404.6300000000001" y="1739.9999999999998" as="targetPoint" />
          </mxGeometry>
        </mxCell>
        <mxCell id="Q4j835Vxl0gf2T9_gQ0k-40" value="ซ้ำซ้อน" style="rhombus;whiteSpace=wrap;html=1;rounded=1;" vertex="1" parent="1">
          <mxGeometry x="364.6300000000001" y="1610" width="80" height="80" as="geometry" />
        </mxCell>
        <mxCell id="Q4j835Vxl0gf2T9_gQ0k-41" value="ใช่" style="text;html=1;align=center;verticalAlign=middle;resizable=0;points=[];autosize=1;strokeColor=none;fillColor=none;" vertex="1" parent="1">
          <mxGeometry x="433.3800000000001" y="1610" width="40" height="30" as="geometry" />
        </mxCell>
        <mxCell id="Q4j835Vxl0gf2T9_gQ0k-42" value="ไม่" style="text;html=1;align=center;verticalAlign=middle;resizable=0;points=[];autosize=1;strokeColor=none;fillColor=none;" vertex="1" parent="1">
          <mxGeometry x="357.3800000000001" y="1690" width="40" height="30" as="geometry" />
        </mxCell>
        <mxCell id="Q4j835Vxl0gf2T9_gQ0k-43" style="edgeStyle=orthogonalEdgeStyle;rounded=0;orthogonalLoop=1;jettySize=auto;html=1;endArrow=classic;endFill=1;entryX=1;entryY=0.5;entryDx=0;entryDy=0;" edge="1" parent="1" source="Q4j835Vxl0gf2T9_gQ0k-66" target="Q4j835Vxl0gf2T9_gQ0k-32">
          <mxGeometry relative="1" as="geometry">
            <mxPoint x="704" y="2240" as="targetPoint" />
            <Array as="points">
              <mxPoint x="730" y="1440" />
              <mxPoint x="730" y="2255" />
            </Array>
          </mxGeometry>
        </mxCell>
        <mxCell id="Q4j835Vxl0gf2T9_gQ0k-44" style="edgeStyle=orthogonalEdgeStyle;rounded=0;orthogonalLoop=1;jettySize=auto;html=1;endArrow=none;endFill=0;" edge="1" parent="1" source="Q4j835Vxl0gf2T9_gQ0k-64">
          <mxGeometry relative="1" as="geometry">
            <mxPoint x="730" y="1354" as="targetPoint" />
          </mxGeometry>
        </mxCell>
        <mxCell id="Q4j835Vxl0gf2T9_gQ0k-45" value="เพิ่มข้อมูลผู้ถือหุ้น โดยนำข้อมูลใน table Request Temp ที่ตรงกับ verifyToken เพิ่มลงใน Table Request&amp;nbsp;" style="rounded=1;whiteSpace=wrap;html=1;" vertex="1" parent="1">
          <mxGeometry x="330.1300000000001" y="1740" width="149" height="60" as="geometry" />
        </mxCell>
        <mxCell id="Q4j835Vxl0gf2T9_gQ0k-47" value="สำเร็จ" style="rhombus;whiteSpace=wrap;html=1;rounded=1;" vertex="1" parent="1">
          <mxGeometry x="364.6300000000001" y="2153" width="80" height="80" as="geometry" />
        </mxCell>
        <mxCell id="Q4j835Vxl0gf2T9_gQ0k-48" value="" style="edgeStyle=orthogonalEdgeStyle;rounded=0;orthogonalLoop=1;jettySize=auto;html=1;" edge="1" parent="1" source="Q4j835Vxl0gf2T9_gQ0k-11" target="Q4j835Vxl0gf2T9_gQ0k-37">
          <mxGeometry relative="1" as="geometry" />
        </mxCell>
        <mxCell id="Q4j835Vxl0gf2T9_gQ0k-49" value="" style="edgeStyle=orthogonalEdgeStyle;rounded=0;orthogonalLoop=1;jettySize=auto;html=1;endArrow=classic;endFill=1;" edge="1" parent="1" target="Q4j835Vxl0gf2T9_gQ0k-47">
          <mxGeometry relative="1" as="geometry">
            <mxPoint x="404.6153846153843" y="2100" as="sourcePoint" />
          </mxGeometry>
        </mxCell>
        <mxCell id="Q4j835Vxl0gf2T9_gQ0k-50" value="ตรวจสอบเวลาเปิดยื่นรับแบบคำร้องจาก table Meeting" style="rounded=1;whiteSpace=wrap;html=1;" vertex="1" parent="1">
          <mxGeometry x="350.8800000000001" y="990" width="120" height="60" as="geometry" />
        </mxCell>
        <mxCell id="Q4j835Vxl0gf2T9_gQ0k-51" value="เปิดรับเอกสาร" style="rhombus;whiteSpace=wrap;html=1;rounded=1;" vertex="1" parent="1">
          <mxGeometry x="370.8800000000001" y="1084" width="80" height="80" as="geometry" />
        </mxCell>
        <mxCell id="Q4j835Vxl0gf2T9_gQ0k-52" value="" style="edgeStyle=orthogonalEdgeStyle;rounded=0;orthogonalLoop=1;jettySize=auto;html=1;" edge="1" parent="1" source="Q4j835Vxl0gf2T9_gQ0k-50" target="Q4j835Vxl0gf2T9_gQ0k-51">
          <mxGeometry relative="1" as="geometry" />
        </mxCell>
        <mxCell id="Q4j835Vxl0gf2T9_gQ0k-53" value="ส่ง Error Code&amp;nbsp; 4&amp;nbsp;&lt;br&gt;การยื่นเอกสารคำร้อง&lt;br&gt;ยังไม่เปิด/ปิดอยู่" style="whiteSpace=wrap;html=1;rounded=1;" vertex="1" parent="1">
          <mxGeometry x="543.3800000000001" y="1099" width="160" height="50" as="geometry" />
        </mxCell>
        <mxCell id="Q4j835Vxl0gf2T9_gQ0k-54" style="edgeStyle=orthogonalEdgeStyle;rounded=0;orthogonalLoop=1;jettySize=auto;html=1;entryX=0;entryY=0.5;entryDx=0;entryDy=0;" edge="1" parent="1" source="Q4j835Vxl0gf2T9_gQ0k-51" target="Q4j835Vxl0gf2T9_gQ0k-53">
          <mxGeometry relative="1" as="geometry">
            <mxPoint x="513.3800000000001" y="1019" as="targetPoint" />
          </mxGeometry>
        </mxCell>
        <mxCell id="Q4j835Vxl0gf2T9_gQ0k-55" value="ไม่ใช่" style="text;html=1;align=center;verticalAlign=middle;resizable=0;points=[];autosize=1;strokeColor=none;fillColor=none;" vertex="1" parent="1">
          <mxGeometry x="448.3800000000001" y="1084" width="50" height="30" as="geometry" />
        </mxCell>
        <mxCell id="Q4j835Vxl0gf2T9_gQ0k-56" value="ใช่" style="text;html=1;align=center;verticalAlign=middle;resizable=0;points=[];autosize=1;strokeColor=none;fillColor=none;" vertex="1" parent="1">
          <mxGeometry x="358.3800000000001" y="1154" width="40" height="30" as="geometry" />
        </mxCell>
        <mxCell id="Q4j835Vxl0gf2T9_gQ0k-57" value="ตรวจสอบข้อมูล&lt;br&gt;ตรวจสอบความเป็นผู้ถือหุ้น โดยตรวจสอบจาก Table Shareholder&amp;nbsp;" style="whiteSpace=wrap;html=1;rounded=1;" vertex="1" parent="1">
          <mxGeometry x="313.3800000000001" y="1194" width="195" height="85" as="geometry" />
        </mxCell>
        <mxCell id="Q4j835Vxl0gf2T9_gQ0k-58" value="เป็นผู้ถือหุ้น" style="rhombus;whiteSpace=wrap;html=1;rounded=1;" vertex="1" parent="1">
          <mxGeometry x="370.8800000000001" y="1314" width="80" height="80" as="geometry" />
        </mxCell>
        <mxCell id="Q4j835Vxl0gf2T9_gQ0k-59" style="edgeStyle=orthogonalEdgeStyle;rounded=0;orthogonalLoop=1;jettySize=auto;html=1;entryX=0.5;entryY=0;entryDx=0;entryDy=0;" edge="1" parent="1" source="Q4j835Vxl0gf2T9_gQ0k-51" target="Q4j835Vxl0gf2T9_gQ0k-57">
          <mxGeometry relative="1" as="geometry">
            <mxPoint x="403.3800000000001" y="1190" as="targetPoint" />
          </mxGeometry>
        </mxCell>
        <mxCell id="Q4j835Vxl0gf2T9_gQ0k-60" value="" style="edgeStyle=orthogonalEdgeStyle;rounded=0;orthogonalLoop=1;jettySize=auto;html=1;" edge="1" parent="1" source="Q4j835Vxl0gf2T9_gQ0k-57" target="Q4j835Vxl0gf2T9_gQ0k-58">
          <mxGeometry relative="1" as="geometry" />
        </mxCell>
        <mxCell id="Q4j835Vxl0gf2T9_gQ0k-61" value="ใช่" style="text;html=1;align=center;verticalAlign=middle;resizable=0;points=[];autosize=1;strokeColor=none;fillColor=none;" vertex="1" parent="1">
          <mxGeometry x="357.3800000000001" y="1394" width="40" height="30" as="geometry" />
        </mxCell>
        <mxCell id="Q4j835Vxl0gf2T9_gQ0k-62" value="ไม่ใช่" style="text;html=1;align=center;verticalAlign=middle;resizable=0;points=[];autosize=1;strokeColor=none;fillColor=none;" vertex="1" parent="1">
          <mxGeometry x="450.8800000000001" y="1319" width="50" height="30" as="geometry" />
        </mxCell>
        <mxCell id="Q4j835Vxl0gf2T9_gQ0k-63" value="ตรวจสอบข้อมูล&lt;br&gt;ตรวจสอบความซ้ำซ้อนของเอกสาร ว่าเคยมีการยื่นมาหรือไม่ โดยมีเงื่อนไขคือ เลขทะเบียนผู้ถือหุ้น เเละ เบอรโทร และ อีเมล์ ต้องไม่ซ้ำใน Table Request&amp;nbsp;" style="whiteSpace=wrap;html=1;rounded=1;" vertex="1" parent="1">
          <mxGeometry x="292.1300000000001" y="1444" width="237.5" height="100" as="geometry" />
        </mxCell>
        <mxCell id="Q4j835Vxl0gf2T9_gQ0k-64" value="ส่ง Error Code 6 ไม่พบข้อมูลผู้ถือหุ้นนี้ในระบบ" style="whiteSpace=wrap;html=1;rounded=1;" vertex="1" parent="1">
          <mxGeometry x="563.3800000000001" y="1324" width="120" height="60" as="geometry" />
        </mxCell>
        <mxCell id="Q4j835Vxl0gf2T9_gQ0k-65" style="edgeStyle=orthogonalEdgeStyle;rounded=0;orthogonalLoop=1;jettySize=auto;html=1;entryX=0;entryY=0.5;entryDx=0;entryDy=0;exitX=1;exitY=0.5;exitDx=0;exitDy=0;" edge="1" parent="1" source="Q4j835Vxl0gf2T9_gQ0k-58" target="Q4j835Vxl0gf2T9_gQ0k-64">
          <mxGeometry relative="1" as="geometry">
            <Array as="points">
              <mxPoint x="513.3800000000001" y="1354" />
              <mxPoint x="513.3800000000001" y="1354" />
            </Array>
          </mxGeometry>
        </mxCell>
        <mxCell id="Q4j835Vxl0gf2T9_gQ0k-66" value="ส่ง Error Code 5 มีการใช้งานผู้ถือหุ้นนี้ในระบบ" style="whiteSpace=wrap;html=1;rounded=1;" vertex="1" parent="1">
          <mxGeometry x="563.3800000000001" y="1410" width="120" height="60" as="geometry" />
        </mxCell>
        <mxCell id="Q4j835Vxl0gf2T9_gQ0k-67" style="edgeStyle=orthogonalEdgeStyle;rounded=0;orthogonalLoop=1;jettySize=auto;html=1;endArrow=none;endFill=0;" edge="1" parent="1" source="Q4j835Vxl0gf2T9_gQ0k-68">
          <mxGeometry relative="1" as="geometry">
            <mxPoint x="730" y="2190" as="targetPoint" />
            <Array as="points">
              <mxPoint x="730" y="2193" />
            </Array>
          </mxGeometry>
        </mxCell>
        <mxCell id="Q4j835Vxl0gf2T9_gQ0k-68" value="ส่ง Error Code&amp;nbsp; 2&amp;nbsp;&lt;br&gt;ไม่สามารถบันทึกข้อมูลได้" style="rounded=1;whiteSpace=wrap;html=1;" vertex="1" parent="1">
          <mxGeometry x="543.3800000000001" y="2162.5" width="120" height="61" as="geometry" />
        </mxCell>
        <mxCell id="Q4j835Vxl0gf2T9_gQ0k-69" value="ไม่ใช่" style="text;html=1;align=center;verticalAlign=middle;resizable=0;points=[];autosize=1;strokeColor=none;fillColor=none;" vertex="1" parent="1">
          <mxGeometry x="429.1300000000001" y="2163.52" width="50" height="30" as="geometry" />
        </mxCell>
        <mxCell id="Q4j835Vxl0gf2T9_gQ0k-70" value="ใช่" style="text;html=1;align=center;verticalAlign=middle;resizable=0;points=[];autosize=1;strokeColor=none;fillColor=none;" vertex="1" parent="1">
          <mxGeometry x="317.38" y="1930.65" width="40" height="30" as="geometry" />
        </mxCell>
        <mxCell id="Q4j835Vxl0gf2T9_gQ0k-72" value="" style="edgeStyle=orthogonalEdgeStyle;rounded=0;orthogonalLoop=1;jettySize=auto;html=1;exitX=0.5;exitY=1;exitDx=0;exitDy=0;" edge="1" parent="1" source="Q4j835Vxl0gf2T9_gQ0k-63" target="Q4j835Vxl0gf2T9_gQ0k-40">
          <mxGeometry relative="1" as="geometry">
            <mxPoint x="404.3800000000001" y="1590" as="sourcePoint" />
            <Array as="points">
              <mxPoint x="404.3800000000001" y="1544" />
            </Array>
          </mxGeometry>
        </mxCell>
        <mxCell id="Q4j835Vxl0gf2T9_gQ0k-75" value="" style="edgeStyle=orthogonalEdgeStyle;rounded=0;orthogonalLoop=1;jettySize=auto;html=1;endArrow=classic;endFill=1;" edge="1" parent="1" source="Q4j835Vxl0gf2T9_gQ0k-58" target="Q4j835Vxl0gf2T9_gQ0k-63">
          <mxGeometry relative="1" as="geometry" />
        </mxCell>
        <mxCell id="Q4j835Vxl0gf2T9_gQ0k-80" style="edgeStyle=orthogonalEdgeStyle;rounded=0;orthogonalLoop=1;jettySize=auto;html=1;entryX=0;entryY=0.5;entryDx=0;entryDy=0;endArrow=classic;endFill=1;" edge="1" parent="1" source="Q4j835Vxl0gf2T9_gQ0k-47" target="Q4j835Vxl0gf2T9_gQ0k-68">
          <mxGeometry relative="1" as="geometry" />
        </mxCell>
        <mxCell id="Q4j835Vxl0gf2T9_gQ0k-81" value="" style="edgeStyle=orthogonalEdgeStyle;rounded=0;orthogonalLoop=1;jettySize=auto;html=1;entryX=0;entryY=0.5;entryDx=0;entryDy=0;" edge="1" parent="1" source="Q4j835Vxl0gf2T9_gQ0k-40" target="Q4j835Vxl0gf2T9_gQ0k-66">
          <mxGeometry relative="1" as="geometry">
            <Array as="points">
              <mxPoint x="553.3800000000001" y="1650" />
              <mxPoint x="553.3800000000001" y="1440" />
            </Array>
          </mxGeometry>
        </mxCell>
        <mxCell id="Q4j835Vxl0gf2T9_gQ0k-82" value="" style="edgeStyle=orthogonalEdgeStyle;rounded=0;orthogonalLoop=1;jettySize=auto;html=1;endArrow=classic;endFill=1;entryX=0.5;entryY=0;entryDx=0;entryDy=0;" edge="1" parent="1" source="Q4j835Vxl0gf2T9_gQ0k-45" target="2ah3h-jQbx6tSFjaXhej-38">
          <mxGeometry relative="1" as="geometry">
            <mxPoint x="404.6153846153843" y="1830" as="targetPoint" />
          </mxGeometry>
        </mxCell>
        <mxCell id="Q4j835Vxl0gf2T9_gQ0k-86" style="edgeStyle=orthogonalEdgeStyle;rounded=0;orthogonalLoop=1;jettySize=auto;html=1;entryX=0;entryY=0;entryDx=0;entryDy=0;endArrow=classic;endFill=1;" edge="1" parent="1" source="Q4j835Vxl0gf2T9_gQ0k-87" target="Q4j835Vxl0gf2T9_gQ0k-32">
          <mxGeometry relative="1" as="geometry">
            <Array as="points">
              <mxPoint x="394" y="2230" />
            </Array>
          </mxGeometry>
        </mxCell>
        <mxCell id="Q4j835Vxl0gf2T9_gQ0k-87" value="ส่งกลับข้อมูลผู้ถือหุ้น" style="rounded=1;whiteSpace=wrap;html=1;" vertex="1" parent="1">
          <mxGeometry x="174.0000000000001" y="2200" width="140" height="40" as="geometry" />
        </mxCell>
        <mxCell id="Q4j835Vxl0gf2T9_gQ0k-88" value="" style="edgeStyle=orthogonalEdgeStyle;rounded=0;orthogonalLoop=1;jettySize=auto;html=1;endArrow=classic;endFill=1;" edge="1" parent="1" source="Q4j835Vxl0gf2T9_gQ0k-47" target="Q4j835Vxl0gf2T9_gQ0k-87">
          <mxGeometry relative="1" as="geometry" />
        </mxCell>
        <mxCell id="2ah3h-jQbx6tSFjaXhej-40" value="ตรวจประเภทเอกสาร โดยเช็คจากข้อมูลการโหวต (agendaVote)" style="whiteSpace=wrap;html=1;rounded=1;" vertex="1" parent="1">
          <mxGeometry x="529.63" y="1933.9396412378378" width="120" height="62.71356783919599" as="geometry" />
        </mxCell>
        <mxCell id="2ah3h-jQbx6tSFjaXhej-41" value="" style="edgeStyle=orthogonalEdgeStyle;rounded=0;orthogonalLoop=1;jettySize=auto;html=1;endArrow=none;endFill=0;" edge="1" parent="1" source="2ah3h-jQbx6tSFjaXhej-38" target="2ah3h-jQbx6tSFjaXhej-40">
          <mxGeometry relative="1" as="geometry" />
        </mxCell>
        <mxCell id="2ah3h-jQbx6tSFjaXhej-45" value="" style="edgeStyle=orthogonalEdgeStyle;rounded=0;orthogonalLoop=1;jettySize=auto;html=1;endArrow=classic;endFill=1;" edge="1" parent="1" source="2ah3h-jQbx6tSFjaXhej-40" target="2ah3h-jQbx6tSFjaXhej-44">
          <mxGeometry relative="1" as="geometry" />
        </mxCell>
        <mxCell id="2ah3h-jQbx6tSFjaXhej-35" value="ใช่" style="text;html=1;align=center;verticalAlign=middle;resizable=0;points=[];autosize=1;strokeColor=none;fillColor=none;" vertex="1" parent="1">
          <mxGeometry x="339" y="2162.504714047751" width="40" height="30" as="geometry" />
        </mxCell>
        <mxCell id="2ah3h-jQbx6tSFjaXhej-36" value="บันทึกข้อมูล" style="whiteSpace=wrap;html=1;rounded=1;" vertex="1" parent="1">
          <mxGeometry x="344.25" y="2053.511926707384" width="120" height="69.29483620210993" as="geometry" />
        </mxCell>
        <mxCell id="2ah3h-jQbx6tSFjaXhej-38" value="เพิ่มข้อมูลกรรมการผู้รับมอบฉันทะในข้อมูล Request" style="whiteSpace=wrap;html=1;rounded=1;" vertex="1" parent="1">
          <mxGeometry x="344.25" y="1840" width="120" height="69.29483620210993" as="geometry" />
        </mxCell>
        <mxCell id="2ah3h-jQbx6tSFjaXhej-39" value="เพิ่มข้อมูลโหวตใน Table RequestProxyVote" style="whiteSpace=wrap;html=1;rounded=1;" vertex="1" parent="1">
          <mxGeometry x="180.25" y="1930.64717892628" width="120" height="69.29483620210993" as="geometry" />
        </mxCell>
        <mxCell id="2ah3h-jQbx6tSFjaXhej-42" style="edgeStyle=orthogonalEdgeStyle;rounded=0;orthogonalLoop=1;jettySize=auto;html=1;entryX=0.5;entryY=0;entryDx=0;entryDy=0;endArrow=classic;endFill=1;" edge="1" parent="1" source="2ah3h-jQbx6tSFjaXhej-44" target="2ah3h-jQbx6tSFjaXhej-36">
          <mxGeometry relative="1" as="geometry" />
        </mxCell>
        <mxCell id="2ah3h-jQbx6tSFjaXhej-43" value="" style="edgeStyle=orthogonalEdgeStyle;rounded=0;orthogonalLoop=1;jettySize=auto;html=1;endArrow=classic;endFill=1;" edge="1" parent="1" source="2ah3h-jQbx6tSFjaXhej-44" target="2ah3h-jQbx6tSFjaXhej-39">
          <mxGeometry relative="1" as="geometry" />
        </mxCell>
        <mxCell id="2ah3h-jQbx6tSFjaXhej-44" value="มีข้อมูลการโหวต" style="rhombus;whiteSpace=wrap;html=1;rounded=1;" vertex="1" parent="1">
          <mxGeometry x="364.25" y="1923.4871789262802" width="80" height="83.61809045226131" as="geometry" />
        </mxCell>
        <mxCell id="2ah3h-jQbx6tSFjaXhej-46" value="ไม่ใช่" style="text;html=1;align=center;verticalAlign=middle;resizable=0;points=[];autosize=1;strokeColor=none;fillColor=none;" vertex="1" parent="1">
          <mxGeometry x="410.25" y="2023.5147140477507" width="50" height="30" as="geometry" />
        </mxCell>
        <mxCell id="2ah3h-jQbx6tSFjaXhej-47" value="ตรวจสอบว่ามีข้อมูลโหวตอีกหรอไม่" style="whiteSpace=wrap;html=1;rounded=1;" vertex="1" parent="1">
          <mxGeometry x="180.25" y="2023.519433229445" width="120" height="60" as="geometry" />
        </mxCell>
        <mxCell id="2ah3h-jQbx6tSFjaXhej-48" value="" style="edgeStyle=orthogonalEdgeStyle;rounded=0;orthogonalLoop=1;jettySize=auto;html=1;endArrow=classic;endFill=1;" edge="1" parent="1" source="2ah3h-jQbx6tSFjaXhej-39" target="2ah3h-jQbx6tSFjaXhej-47">
          <mxGeometry relative="1" as="geometry" />
        </mxCell>
        <mxCell id="2ah3h-jQbx6tSFjaXhej-49" style="edgeStyle=orthogonalEdgeStyle;rounded=0;orthogonalLoop=1;jettySize=auto;html=1;entryX=0;entryY=0.5;entryDx=0;entryDy=0;endArrow=classic;endFill=1;" edge="1" parent="1" source="2ah3h-jQbx6tSFjaXhej-51" target="2ah3h-jQbx6tSFjaXhej-36">
          <mxGeometry relative="1" as="geometry" />
        </mxCell>
        <mxCell id="2ah3h-jQbx6tSFjaXhej-50" style="edgeStyle=orthogonalEdgeStyle;rounded=0;orthogonalLoop=1;jettySize=auto;html=1;entryX=0;entryY=0.5;entryDx=0;entryDy=0;endArrow=classic;endFill=1;" edge="1" parent="1" source="2ah3h-jQbx6tSFjaXhej-51" target="2ah3h-jQbx6tSFjaXhej-39">
          <mxGeometry relative="1" as="geometry">
            <Array as="points">
              <mxPoint x="160" y="2153.5147140477507" />
              <mxPoint x="160" y="1965.5147140477507" />
            </Array>
          </mxGeometry>
        </mxCell>
        <mxCell id="2ah3h-jQbx6tSFjaXhej-51" value="มีข้อมูล" style="rhombus;whiteSpace=wrap;html=1;rounded=1;" vertex="1" parent="1">
          <mxGeometry x="200.25" y="2113.519433229445" width="80" height="80" as="geometry" />
        </mxCell>
        <mxCell id="2ah3h-jQbx6tSFjaXhej-52" value="" style="edgeStyle=orthogonalEdgeStyle;rounded=0;orthogonalLoop=1;jettySize=auto;html=1;endArrow=classic;endFill=1;" edge="1" parent="1" source="2ah3h-jQbx6tSFjaXhej-47" target="2ah3h-jQbx6tSFjaXhej-51">
          <mxGeometry relative="1" as="geometry" />
        </mxCell>
        <mxCell id="2ah3h-jQbx6tSFjaXhej-53" value="ไม่ใช่" style="text;html=1;align=center;verticalAlign=middle;resizable=0;points=[];autosize=1;strokeColor=none;fillColor=none;" vertex="1" parent="1">
          <mxGeometry x="264" y="2122.814714047751" width="50" height="30" as="geometry" />
        </mxCell>
        <mxCell id="2ah3h-jQbx6tSFjaXhej-54" value="ใช่" style="text;html=1;align=center;verticalAlign=middle;resizable=0;points=[];autosize=1;strokeColor=none;fillColor=none;" vertex="1" parent="1">
          <mxGeometry x="164" y="2122.814714047751" width="40" height="30" as="geometry" />
        </mxCell>
        <mxCell id="JQ-mXFVfwS_rQCFEfg94-10" value="" style="group" vertex="1" connectable="0" parent="1">
          <mxGeometry x="510" y="740" width="193.75" height="333.77012770682927" as="geometry" />
        </mxCell>
        <mxCell id="JQ-mXFVfwS_rQCFEfg94-3" value="อัปโหลดไฟล์ลายเซนต์" style="whiteSpace=wrap;html=1;rounded=1;" vertex="1" parent="JQ-mXFVfwS_rQCFEfg94-10">
          <mxGeometry x="58.75" width="120" height="69.29483620210993" as="geometry" />
        </mxCell>
        <mxCell id="JQ-mXFVfwS_rQCFEfg94-4" value="สำเร็จ" style="rhombus;whiteSpace=wrap;html=1;rounded=1;" vertex="1" parent="JQ-mXFVfwS_rQCFEfg94-10">
          <mxGeometry x="78.75" y="102.78734036646301" width="80" height="92.3931149361466" as="geometry" />
        </mxCell>
        <mxCell id="JQ-mXFVfwS_rQCFEfg94-5" value="" style="edgeStyle=orthogonalEdgeStyle;rounded=0;orthogonalLoop=1;jettySize=auto;html=1;" edge="1" parent="JQ-mXFVfwS_rQCFEfg94-10" source="JQ-mXFVfwS_rQCFEfg94-3" target="JQ-mXFVfwS_rQCFEfg94-4">
          <mxGeometry relative="1" as="geometry" />
        </mxCell>
        <mxCell id="JQ-mXFVfwS_rQCFEfg94-6" value="ใช่" style="text;html=1;align=center;verticalAlign=middle;resizable=0;points=[];autosize=1;strokeColor=none;fillColor=none;" vertex="1" parent="JQ-mXFVfwS_rQCFEfg94-10">
          <mxGeometry x="40" y="115.49139367018279" width="40" height="30" as="geometry" />
        </mxCell>
        <mxCell id="JQ-mXFVfwS_rQCFEfg94-7" value="ไม่ใช่" style="text;html=1;align=center;verticalAlign=middle;resizable=0;points=[];autosize=1;strokeColor=none;fillColor=none;" vertex="1" parent="JQ-mXFVfwS_rQCFEfg94-10">
          <mxGeometry x="63.75" y="195.18045530260906" width="50" height="30" as="geometry" />
        </mxCell>
        <mxCell id="JQ-mXFVfwS_rQCFEfg94-8" value="ส่ง Error code 8 ไม่สามารถอัพโหลดไฟล์ลายเซนได้" style="whiteSpace=wrap;html=1;rounded=1;" vertex="1" parent="JQ-mXFVfwS_rQCFEfg94-10">
          <mxGeometry y="264.4752915047193" width="120" height="69.29483620210993" as="geometry" />
        </mxCell>
        <mxCell id="JQ-mXFVfwS_rQCFEfg94-9" value="" style="edgeStyle=orthogonalEdgeStyle;rounded=0;orthogonalLoop=1;jettySize=auto;html=1;" edge="1" parent="JQ-mXFVfwS_rQCFEfg94-10" source="JQ-mXFVfwS_rQCFEfg94-4" target="JQ-mXFVfwS_rQCFEfg94-8">
          <mxGeometry relative="1" as="geometry">
            <Array as="points">
              <mxPoint x="118.75" y="229.8278734036644" />
              <mxPoint x="58.75" y="229.8278734036644" />
            </Array>
          </mxGeometry>
        </mxCell>
        <mxCell id="JQ-mXFVfwS_rQCFEfg94-11" value="ไม่ใช่" style="text;html=1;align=center;verticalAlign=middle;resizable=0;points=[];autosize=1;strokeColor=none;fillColor=none;" vertex="1" parent="1">
          <mxGeometry x="420.88" y="940" width="50" height="30" as="geometry" />
        </mxCell>
        <mxCell id="JQ-mXFVfwS_rQCFEfg94-12" style="edgeStyle=orthogonalEdgeStyle;rounded=0;orthogonalLoop=1;jettySize=auto;html=1;endArrow=none;endFill=0;" edge="1" parent="1" source="JQ-mXFVfwS_rQCFEfg94-8">
          <mxGeometry relative="1" as="geometry">
            <mxPoint x="730" y="1039.1227096057742" as="targetPoint" />
          </mxGeometry>
        </mxCell>
        <mxCell id="JQ-mXFVfwS_rQCFEfg94-13" style="edgeStyle=orthogonalEdgeStyle;rounded=0;orthogonalLoop=1;jettySize=auto;html=1;entryX=1;entryY=0.5;entryDx=0;entryDy=0;endArrow=none;endFill=0;" edge="1" parent="1" source="JQ-mXFVfwS_rQCFEfg94-4" target="Q4j835Vxl0gf2T9_gQ0k-50">
          <mxGeometry relative="1" as="geometry">
            <Array as="points">
              <mxPoint x="530" y="889" />
              <mxPoint x="530" y="990" />
              <mxPoint x="500" y="990" />
              <mxPoint x="500" y="1020" />
            </Array>
          </mxGeometry>
        </mxCell>
      </root>
    </mxGraphModel>
  </diagram>
</mxfile>
